<svg xmlns="http://www.w3.org/2000/svg" viewBox="0 0 602.87 841.89"><defs><style>.cls-1{fill:#badff6;}.cls-2{fill:#fde1d6;}.cls-18,.cls-25,.cls-3{fill:#2f3438;}.cls-4{fill:#79acb6;}.cls-12,.cls-4,.cls-8,.cls-9{opacity:0.19;}.cls-5{fill:#aad8f4;}.cls-6{fill:#aa7870;}.cls-7{fill:#fde4db;}.cls-8{fill:#73cddd;}.cls-9{fill:#f26a59;}.cls-10{fill:#feefea;}.cls-11{fill:#f6edeb;}.cls-12,.cls-13{fill:#fcccbe;}.cls-14{fill:#905c50;}.cls-15{fill:#bf5a4b;}.cls-16{fill:#fff;}.cls-17{fill:#f9fdff;}.cls-18{font-size:36px;font-family:Roboto-Bold, Roboto;font-weight:700;}.cls-19{letter-spacing:-0.02em;}.cls-20{letter-spacing:0em;}.cls-21{letter-spacing:0.02em;}.cls-22,.cls-25,.cls-31{font-size:10.86px;}.cls-22,.cls-32,.cls-49,.cls-73,.cls-79{fill:#231f20;}.cls-22,.cls-25,.cls-31,.cls-49,.cls-69{font-family:Roboto-Regular, Roboto;}.cls-23,.cls-32{font-size:9.05px;}.cls-23,.cls-32,.cls-51,.cls-73,.cls-79{font-family:Roboto-Light, Roboto;font-weight:300;}.cls-24{letter-spacing:-0.01em;}.cls-26{letter-spacing:-0.01em;}.cls-27{letter-spacing:-0.01em;}.cls-28{letter-spacing:-0.02em;}.cls-29{letter-spacing:-0.01em;}.cls-30{letter-spacing:0em;}.cls-100,.cls-31,.cls-50,.cls-60,.cls-61,.cls-62,.cls-70,.cls-90,.cls-96{fill:#ce2027;}.cls-33{letter-spacing:-0.01em;}.cls-34{letter-spacing:-0.01em;}.cls-35{letter-spacing:0.01em;}.cls-36{letter-spacing:0em;}.cls-37{letter-spacing:0.01em;}.cls-38{letter-spacing:-0.01em;}.cls-39{letter-spacing:0.02em;}.cls-40{letter-spacing:-0.01em;}.cls-41{letter-spacing:-0.01em;}.cls-42{letter-spacing:-0.01em;}.cls-43{letter-spacing:-0.01em;}.cls-44{letter-spacing:-0.01em;}.cls-45,.cls-46,.cls-47{fill:none;stroke:#231f20;stroke-miterlimit:10;stroke-width:0.25px;}.cls-46{stroke-dasharray:1.02 1.02;}.cls-47{stroke-dasharray:1 1;}.cls-48{fill:#d6edfa;}.cls-49,.cls-69{font-size:12.22px;}.cls-50,.cls-81{letter-spacing:0em;}.cls-51,.cls-73,.cls-79{font-size:10.19px;}.cls-52{letter-spacing:-0.01em;}.cls-53{letter-spacing:-0.01em;}.cls-54{letter-spacing:0em;}.cls-55{letter-spacing:-0.01em;}.cls-56{opacity:0.22;}.cls-102,.cls-57{fill:#808285;}.cls-58{fill:#f47a66;}.cls-59{fill:#dae0e7;}.cls-60,.cls-89{letter-spacing:0em;}.cls-61{letter-spacing:-0.01em;}.cls-62,.cls-80{letter-spacing:-0.01em;}.cls-63,.cls-96{letter-spacing:-0.01em;}.cls-64{letter-spacing:-0.01em;}.cls-65{letter-spacing:-0.01em;}.cls-66{opacity:0.25;}.cls-67{fill:#a7a9ac;}.cls-68{fill:#dbe2e7;}.cls-69,.cls-72{fill:#121212;}.cls-71{letter-spacing:-0.06em;}.cls-74{letter-spacing:-0.01em;}.cls-75{letter-spacing:0.01em;}.cls-76{letter-spacing:-0.05em;}.cls-77{fill:#939598;}.cls-78{fill:#def1fc;}.cls-79{letter-spacing:-0.02em;}.cls-82{letter-spacing:-0.01em;}.cls-83{letter-spacing:-0.06em;}.cls-84{letter-spacing:-0.02em;}.cls-85{letter-spacing:-0.02em;}.cls-86{letter-spacing:-0.01em;}.cls-87{letter-spacing:0.02em;}.cls-88{letter-spacing:-0.01em;}.cls-90,.cls-98{letter-spacing:-0.01em;}.cls-91{letter-spacing:0.01em;}.cls-92{letter-spacing:-0.05em;}.cls-93{letter-spacing:-0.01em;}.cls-94{letter-spacing:-0.02em;}.cls-95{letter-spacing:-0.01em;}.cls-97{letter-spacing:0.02em;}.cls-99{letter-spacing:-0.01em;}.cls-100{letter-spacing:-0.01em;}.cls-101{letter-spacing:0em;}.cls-102{opacity:0.12;}</style></defs><title>Asset 1</title><g id="Layer_2" data-name="Layer 2"><g id="info1"><rect class="cls-1" width="602.87" height="841.89"/><path class="cls-2" d="M469.38,421.28c.05.51,15.42.3,15.43-.33.08-5.56,1.14-77.21,1.2-80.34l-22.58,7.47C464,353.42,469.06,417.59,469.38,421.28Z"/><path class="cls-2" d="M446.23,421.28c0,.51-15.41.3-15.42-.33-.09-5.56-1.14-77.21-1.2-80.34l22.57,7.47C451.58,353.42,446.56,417.59,446.23,421.28Z"/><path class="cls-2" d="M508.81,317.47c.95,1.19,9.41-8.06,8.52-9.32C504,289.22,490.22,263,486.84,258c-1.17-1.72-3-3.93-4.24-4.52l-9.09,16.89C481.35,281.11,496.22,301.66,508.81,317.47Z"/><path class="cls-2" d="M515.44,329c-.72.47-.94,1.9-1.35,4.12-.35,1.92-.81,4.83-1.77,5.84s-2-.17-2.26-2.45c-.46-3.76-1.24-12.31-1.36-16.58-.61-7.27,3.93-14.32,9.92-14.76,9-.66,12.51-.29,18-.46,1.36-.05.24,3.19-1.47,4.06-3.65,1.85-5,1.15-6.8,2.27s-1.28,2.9-.09,4.64c7.87,6.55,13,9.35,12.55,12.67-.77,2.67-6.72-1-13.28-5.51,5,7.58,8.46,14.12,6.54,15.3-2.28,1.4-6.7-5-11.17-10.49.43,7.22,2.68,14.56-.63,14.82C519.89,342.61,517.45,327.63,515.44,329Z"/><path class="cls-2" d="M404.06,317.47c-1,1.19-9.41-8.06-8.52-9.32C408.83,289.22,422.65,263,426,258a17.25,17.25,0,0,1,4.58-4.64l8.75,17C431.52,281.11,416.65,301.66,404.06,317.47Z"/><path class="cls-2" d="M396.51,330.64c.64.59.65,2.05.73,4.32.07,2,.1,4.91.9,6.09s2,.21,2.59-2c1-3.62,3-11.9,3.74-16.09,1.66-7.06-1.79-14.86-7.64-16.43-8.76-2.35-12.29-2.65-17.72-3.87-1.34-.3-.7,3.1.86,4.28,3.33,2.52,4.76,2.08,6.38,3.53s.84,3.1-.59,4.59c-8.71,5-14.19,6.76-14.21,10.12.36,2.78,6.77.28,13.89-2.92-6,6.52-10.39,12.32-8.66,13.85,2,1.81,7.33-3.7,12.53-8.23-1.47,7-4.75,13.85-1.53,14.73C390.14,343.27,394.72,329,396.51,330.64Z"/><path class="cls-2" d="M467.92,233.51l-.19,20c0,4.3-4.85,7.71-10.74,7.64s-10.64-3.61-10.6-7.9l.19-19.95Z"/><path class="cls-2" d="M468.22,418.5a42,42,0,0,0,.63-6.34s15.45-1,16.22-1.12c.12,1.38.34,3.76.59,6.32a15.35,15.35,0,0,0-.21-2.39c1.73,2.54,13.55,8,14.36,8.78,2.71,2.59,3,7,1.3,8.73C496.32,433.65,490,434,483.27,435c-5.63.84-13.76.05-15.33-2.54C465.13,427.83,467.47,422,468.22,418.5Z"/><path class="cls-2" d="M447.6,418.5a39.56,39.56,0,0,1-.63-6.34s-15.46-1-16.23-1.12c-.12,1.38-.34,3.76-.58,6.32a14.07,14.07,0,0,1,.2-2.39c-1.73,2.54-13.55,8-14.35,8.78-2.72,2.59-3,7-1.31,8.73,4.8,1.17,11.12,1.51,17.84,2.53,5.63.84,13.77.05,15.33-2.54C450.68,427.83,448.34,422,447.6,418.5Z"/><path class="cls-3" d="M453.88,355.83c.28-2.22.59-2.86.93-5.79.41-3.51,4.11-3.72,4.66-.07.15,1,.61,2,1.19,5.86l27.58-3.59c-1.12-16.75-1.94-25.65-2.57-34.67-5.47.28-16.6,3.14-27.84,3.09-11.74-.06-23.61-3.05-29.24-3.38-.83,9.9-1.22,16.16-1.93,35Z"/><path class="cls-4" d="M428.29,321c-.26,3.23-.47,6.29-.67,9.84,6.49,2,16.88,3.28,28.62,3.28,12.88,0,24.13-1.55,30.39-3.88-.24-3.12-.47-6-.67-8.69C483.07,320.55,431.34,320.11,428.29,321Z"/><path class="cls-5" d="M486.52,328.81c-2-26-2.41-62.44-3.31-75.67-6.14-1.48-26.29-3.77-26.29-3.77s-20.15,2.29-26.29,3.77c-.9,13.23-1.33,49.63-3.3,75.67,0,0,28.69,2.41,29.59,2.41S486.52,328.81,486.52,328.81Z"/><path class="cls-2" d="M410.27,190.06c6-3,14.42,3,18.71,13.37s5.78,19.8-.26,22.76-16.56-1.5-22.12-11.91C401.38,204.49,402,194.14,410.27,190.06Z"/><path class="cls-2" d="M503,189.61c-5.62-2.45-13,3.81-16.54,13.92s-4.48,19.21,1.14,21.64,15.06-2.5,19.72-12.76C511.71,202.76,510.69,193,503,189.61Z"/><path class="cls-6" d="M508.36,167.68c1.11,47.67-22.37,63.52-51.71,64.13-28.19.59-52.55-16.46-50.89-64.68.92-26.73,24.9-32.15,50.89-32.15S507.74,141,508.36,167.68Z"/><path class="cls-6" d="M407.82,168.84c-3.09,40.41,22,66.6,50.37,66S509.5,204.28,506,165.07c-2-21.77-21.23-40.82-48.37-40C429.17,125.92,410,140.1,407.82,168.84Z"/><path class="cls-6" d="M400.05,187.24c5.9-2.38,9.58-6.74,9.92-17.72-3.41-.83-5-2-8.31-3.21,12.75-3.69,10.88-24.48,27.54-33.18,27.3-11.79,52.2-3.12,59.38,1.64,13.22,8.78,14.84,20.61,15.8,33.87,1.82,12,4.17,15.56,9.67,18.3-5.92,1.95-9.42.2-11.42-2.13.59,7.56,3.66,9.95,7.07,13.3-9.24.53-14.38-8.27-16-15.88-1.85-8.44,1-17.75-.13-21.06-.68-1.92-6.76-13-9.31-13.06-5.56-.18-11.66,21.86-31.34,21.51,7.94-4.89,12.28-11.79,16.65-21.64a31.19,31.19,0,0,0-4.62,3.88c-16.15,16.33-33.42,18.67-47.3,17.31,2.3,12.87,5.66,26.36-11.87,32.51,1.59-2.25,3.91-9,4.25-14.33C408.11,188.67,404.67,189.84,400.05,187.24Z"/><path class="cls-6" d="M214.29,163.38c.84,52.38-23.3,69.63-53.36,70.1-28.88.45-53.72-18.45-51.74-71.41,1.11-29.35,25.7-35.14,52.32-35S213.81,134,214.29,163.38Z"/><path class="cls-7" d="M173.65,413.49c0,.52,15.79.41,15.8-.21.12-5.56,1.59-77.21,1.67-80.34L168,340.25C168.54,345.6,173.34,409.8,173.65,413.49Z"/><path class="cls-7" d="M189.59,406.63c-1.32-.08-14.21-2.16-16.74-2.27a44.58,44.58,0,0,1-1,8.26c-2.22,7.19-1.36,13.52,5.11,14.77,2.78.53,6.62.85,10.92,1.61,7.16,1.27,15.7,5.55,21.92,2.94.86-.35,3.36-2.34,2.64-3.54s-6.4-1.9-6.06-2.72c.23-.57,5.59,1.45,7.54.77,1.06-.37,1.78-2.59.34-3-.09,0,.59-1.16.42-1.71-.27-.83-2-1.08-1.92-1.41.21-2.61-5-3.07-9.63-5.12C196.34,412.17,193,411.06,189.59,406.63Z"/><path class="cls-7" d="M215.31,424.42a67.54,67.54,0,0,1-6.71-2,.28.28,0,0,1-.15-.34.23.23,0,0,1,.31-.16c1.51.61,5.9,1.81,6.61,1.95a.27.27,0,0,1,.19.31A.25.25,0,0,1,215.31,424.42Z"/><path class="cls-7" d="M213.67,421.27a34.86,34.86,0,0,1-4-1.24.27.27,0,0,1-.15-.33.23.23,0,0,1,.3-.16,35.24,35.24,0,0,0,3.88,1.21.26.26,0,0,1,.19.31A.25.25,0,0,1,213.67,421.27Z"/><path class="cls-7" d="M149.93,414.92c-.05.51-15.79.19-15.8-.43-.06-5.56-.75-77.22-.79-80.36l23.08,7.63C155.78,347.1,150.28,411.23,149.93,414.92Z"/><path class="cls-7" d="M221.56,321.82c-.73.46-1,1.9-1.4,4.11-.38,1.92-.86,4.83-1.85,5.83s-2-.18-2.3-2.46c-.45-3.77-1.2-12.32-1.3-16.6-.58-7.27,4.1-14.28,10.24-14.68,9.21-.6,12.81-.21,18.48-.34,1.4,0,.23,3.19-1.52,4.05-3.76,1.83-5.13,1.11-7,2.22s-1.32,2.89-.11,4.65c8,6.6,13.28,9.44,12.78,12.75-.8,2.66-6.88-1.06-13.57-5.6,5.08,7.61,8.59,14.18,6.61,15.34-2.34,1.38-6.83-5.08-11.38-10.56.4,7.22,2.67,14.57-.73,14.81C226,335.51,223.62,320.52,221.56,321.82Z"/><path class="cls-7" d="M214.6,310c1,1.2,9.69-8,8.78-9.26-13.51-19-27.52-45.38-30.95-50.36-1.19-1.73-2.89-3.69-4.13-4.29l-9.6,16.56C186.67,273.41,201.79,294.06,214.6,310Z"/><path class="cls-7" d="M107.3,309.23c-1,1.19-9.59-8.12-8.67-9.38,13.72-18.83,28-45,31.5-49.94,1.21-1.71,2.93-3.65,4.18-4.23l9.42,16.7C135.63,273.07,120.29,293.51,107.3,309.23Z"/><path class="cls-7" d="M99.51,322.35c.64.6.65,2,.72,4.32.06,2,.07,4.92.89,6.1s2,.22,2.65-2c1-3.62,3.15-11.89,3.93-16.07,1.73-7-1.76-14.87-7.74-16.48-9-2.41-12.57-2.74-18.13-4-1.37-.31-.73,3.09.86,4.28,3.4,2.54,4.87,2.12,6.52,3.58s.83,3.1-.63,4.59c-9,4.9-14.58,6.66-14.62,10,.36,2.77,6.94.32,14.25-2.83-6.21,6.48-10.71,12.25-8.95,13.79,2.08,1.82,7.53-3.65,12.88-8.14-1.54,7-5,13.81-1.64,14.72C92.91,334.93,97.68,320.65,99.51,322.35Z"/><path class="cls-3" d="M157.6,347.94c.29-2.22.61-2.87,1-5.79.44-3.5,4.23-3.7,4.77,0,.15,1,.62,2,1.19,5.87l28.27-3.39c-1.05-16.77-1.85-25.67-2.45-34.7-5.6.25-17,3-28.52,2.9-12-.14-24.17-3.22-29.94-3.59-.9,9.9-1.34,16.16-2.17,35Z"/><path class="cls-8" d="M131.57,312.91c-.28,3.23-.51,6.3-.74,9.84,6.64,2,17.27,3.4,29.3,3.48,13.19.09,24.72-1.39,31.15-3.67-.23-3.12-.45-6-.64-8.7C187.69,312.86,134.71,312.06,131.57,312.91Z"/><path class="cls-5" d="M191.17,321.14c-1.88-26.05-2.12-62.46-3-75.69-6.29-1.52-26.91-5.29-26.91-5.29s-20.66,3.49-27,4.92c-1,13.23-1.63,49.62-3.8,75.65,0,0,29.38,2.61,30.31,2.61S191.17,321.14,191.17,321.14Z"/><path class="cls-9" d="M177.38,244.23c0-.36-.07-.7-.1-1.06-7.66-1.49-16-3-16-3s-7.46,1.26-14.76,2.57c0,.43-.13.85-.13,1.29a15.49,15.49,0,1,0,31,.21Z"/><path class="cls-10" d="M175.6,244.63a12.27,12.27,0,0,0-.2-2.11c-7.08-1.22-14.1-2.36-14.1-2.36s-6.23.92-12.87,2a12.57,12.57,0,0,0-.25,2.31,13.72,13.72,0,0,0,27.42.19Z"/><path class="cls-11" d="M173.18,225.72l-.3,19.95c-.07,4.29-5,7.68-11,7.56s-10.88-3.68-10.81-8l.3-20Z"/><path class="cls-12" d="M151.15,236.8c1.75,3.44,6.42,6.14,12,6.53a16,16,0,0,0,9.77-2.22l.11-7.67c-6.73-.49-15.3-.78-21.85-.55Z"/><path class="cls-7" d="M120.71,183.76c6.32-.91,12.21,6.73,13.15,17s-.42,19-6.74,19.88-14.6-6-16.66-16.69C108.52,193.9,112.07,185,120.71,183.76Z"/><path class="cls-13" d="M115,208.33c1.5,4.63,5.69,7.2,9.37,5.73s5.43-6.43,3.93-11.07-5.69-7.2-9.36-5.73S113.5,203.68,115,208.33Z"/><path class="cls-7" d="M203.33,182.84c-5.87-1-11.44,6.82-12.43,17.5s.18,19.76,6.06,20.77,13.66-6,15.7-17.14C214.58,193.54,211.37,184.26,203.33,182.84Z"/><path class="cls-13" d="M209.55,206.49c-1.5,4.64-5.7,7.2-9.37,5.73s-5.43-6.43-3.93-11.07,5.69-7.2,9.36-5.73S211,201.85,209.55,206.49Z"/><path class="cls-6" d="M111.29,159.46c-3.4,39.3,22.11,64.93,51.22,64.5s52.73-29.37,49.33-67.54c-1.9-21.19-21.52-39.84-49.32-39.22C133.41,117.85,113.71,131.52,111.29,159.46Z"/><path class="cls-7" d="M204,154.58c-6.21-19.61-21.43-20-41.37-20.13s-35.17,0-41.6,19.56c-1.94,5.89-.56,54.57,4.83,65.52,4.57,9.24,22.23,18.43,34.58,18.51l3.24,0c12.35.09,30.11-8.85,34.77-18C204,209.15,205.89,160.49,204,154.58Z"/><path class="cls-13" d="M126.38,206.74c-.12,2.27,2.61,4.3,6.12,4.53s6.43-1.42,6.55-3.7-2.62-4.3-6.12-4.53S126.5,204.46,126.38,206.74Z"/><path class="cls-13" d="M184.7,207.77c.16,2.27,3.13,3.85,6.63,3.54s6.19-2.41,6-4.68-3.13-3.86-6.62-3.55S184.53,205.5,184.7,207.77Z"/><path class="cls-14" d="M178.31,210.07c-.64-3.83-5.93-2.87-14.55-3l-2.66,0c-8.62,0-13.9-1-14.58,2.81-1.31,7.36,7,15.49,15.73,15.58h.15C171.17,225.47,179.54,217.46,178.31,210.07Z"/><path class="cls-15" d="M162.4,225.44h-.15a16.63,16.63,0,0,1-8.51-2.63l-.17-.1.14-.14a12.33,12.33,0,0,1,17.27.12l.14.14-.17.09A16.56,16.56,0,0,1,162.4,225.44Z"/><path class="cls-16" d="M162.35,213c-6,0-11-2.08-11.67-4.84l0-.17h23.42l0,.17C173.39,210.87,168.37,213,162.35,213Z"/><path class="cls-13" d="M158.75,203.27a.5.5,0,0,0,.46-.45,3.31,3.31,0,0,1,6.58-.15.47.47,0,0,0,.53.43.52.52,0,0,0,.39-.6,4.22,4.22,0,0,0-4.28-3.79,4.27,4.27,0,0,0-4.15,4,.51.51,0,0,0,.39.59Z"/><path class="cls-6" d="M103,180.47c6-2.38,9.82-6.74,10.16-17.72-3.49-.83-5.15-2-8.51-3.21,13.07-3.69,11.15-24.48,28.21-33.18,28-11.79,53.48-3.12,60.83,1.64,13.54,8.78,15.2,20.61,16.18,33.87,1.87,12,4.27,15.57,9.91,18.3-6.06,2-9.65.2-11.7-2.13.6,7.56,3.75,10,7.24,13.3-9.46.54-14.73-8.27-16.43-15.87C197,167,200,157.71,198.77,154.4c-.69-1.92-6.92-13-9.54-13.06-5.69-.18-11.94,21.86-32.1,21.51,8.14-4.88,12.58-11.79,17.06-21.64a32,32,0,0,0-4.74,3.88c-16.54,16.33-34.23,18.67-48.45,17.31,2.35,12.87,5.8,26.36-12.16,32.51,1.63-2.25,4-9,4.36-14.33C111.27,181.9,107.75,183.07,103,180.47Z"/><path class="cls-6" d="M129.28,169.89a1.4,1.4,0,0,1-1.1-.54,1.78,1.78,0,0,1,.09-2.32c4.37-4.44,12.28-5.75,18.8-3.13A1.69,1.69,0,0,1,148,166a1.44,1.44,0,0,1-1.89,1c-5.47-2.21-12.27-1.15-15.81,2.47A1.44,1.44,0,0,1,129.28,169.89Z"/><path class="cls-6" d="M194.62,169.89a1.4,1.4,0,0,0,1.1-.54,1.78,1.78,0,0,0-.09-2.32c-4.37-4.44-12.28-5.75-18.8-3.13a1.69,1.69,0,0,0-.89,2.1,1.44,1.44,0,0,0,1.89,1c5.47-2.21,12.27-1.15,15.81,2.47A1.44,1.44,0,0,0,194.62,169.89Z"/><path class="cls-17" d="M174.27,186.3c-3,5-2.62,10.54.1,12.61,4.09,3.12,13.72,4,17.27-.64,3.44-4.44,1.69-12.48-4-15.9C182.65,179.38,177.22,181.44,174.27,186.3Z"/><path class="cls-14" d="M192.18,184.77c-4.48-7.72-15.07-5-18,1.7,3-5,8.72-6.59,13.33-3.82a11.9,11.9,0,0,1,5.46,8.21,10.42,10.42,0,0,1-1.52,7.65C193.09,197.3,195.47,190.44,192.18,184.77Z"/><path class="cls-14" d="M187.64,189.52a7.05,7.05,0,0,1-3.39,8.8c-3.11,1.39-6.65-.3-7.89-3.77a7,7,0,0,1,3.39-8.8C182.86,184.36,186.4,186.05,187.64,189.52Z"/><path class="cls-16" d="M180.36,188.92a2,2,0,0,1-.94,2.44,1.62,1.62,0,0,1-2.19-1,1.94,1.94,0,0,1,.94-2.44A1.63,1.63,0,0,1,180.36,188.92Z"/><path class="cls-17" d="M150.43,186.3c3,5,2.61,10.54-.1,12.61-4.09,3.12-13.72,4-17.27-.64-3.44-4.44-1.7-12.48,4-15.9C142,179.38,147.48,181.44,150.43,186.3Z"/><path class="cls-14" d="M132.52,184.77c4.48-7.72,15.07-5,18,1.7-3.05-5-8.73-6.59-13.34-3.82a11.92,11.92,0,0,0-5.45,8.21,10.42,10.42,0,0,0,1.52,7.65C131.6,197.3,129.23,190.44,132.52,184.77Z"/><path class="cls-14" d="M137.64,189.52a7,7,0,0,0,3.38,8.8c3.12,1.39,6.65-.3,7.9-3.77a7.06,7.06,0,0,0-3.39-8.8C142.42,184.36,138.88,186.05,137.64,189.52Z"/><path class="cls-16" d="M138.13,188.92a1.94,1.94,0,0,0,.94,2.44,1.63,1.63,0,0,0,2.19-1,2,2,0,0,0-.94-2.44A1.62,1.62,0,0,0,138.13,188.92Z"/><path class="cls-7" d="M134.07,406.26c1.32-.07,14.24-2,16.76-2.05.23,3.4.33,6.3.92,8.27,2.14,7.22,1.21,13.55-5.28,14.7-2.78.49-6.62.76-10.93,1.46-7.17,1.17-15.76,5.34-21.95,2.65-.86-.37-3.34-2.39-2.61-3.58s6.43-1.81,6.1-2.64c-.23-.57-5.62,1.38-7.56.67-1-.38-1.74-2.61-.3-3,.09,0-.58-1.17-.4-1.72.28-.83,2-1.05,1.94-1.38-.19-2.62,5-3,9.68-5C127.26,411.7,130.62,410.63,134.07,406.26Z"/><path class="cls-7" d="M110.37,424.42a66.77,66.77,0,0,0,6.71-2,.28.28,0,0,0,.15-.34.22.22,0,0,0-.3-.16c-1.52.61-5.91,1.81-6.62,1.95a.27.27,0,0,0-.19.31A.25.25,0,0,0,110.37,424.42Z"/><path class="cls-7" d="M112,421.27a34.86,34.86,0,0,0,4-1.24.27.27,0,0,0,.15-.33.23.23,0,0,0-.3-.16,35.24,35.24,0,0,1-3.88,1.21.26.26,0,0,0-.19.31A.25.25,0,0,0,112,421.27Z"/><text class="cls-18" transform="translate(86.63 53.98) scale(1.18 1)">K<tspan class="cls-19" x="22.85" y="0">r</tspan><tspan class="cls-20" x="35.35" y="0">opsdele - Body pa</tspan><tspan class="cls-21" x="325.34" y="0">r</tspan><tspan class="cls-20" x="339.35" y="0">ts</tspan></text><text class="cls-22" transform="translate(122.92 98.62) scale(0.99 1)">pande<tspan class="cls-23"><tspan x="-5.35" y="10.86">fo</tspan><tspan class="cls-24" x="2.72" y="10.86">r</tspan><tspan x="5.68" y="10.86">ehead</tspan></tspan></text><text class="cls-25" transform="translate(365.95 105) scale(0.99 1)">hår<tspan class="cls-23"><tspan x="0.68" y="10.86">hair</tspan></tspan></text><text class="cls-22" transform="translate(325.38 197.72) scale(0.99 1)"><tspan class="cls-26">o</tspan><tspan class="cls-27" x="6.11" y="0">v</tspan><tspan x="11.31" y="0">e</tspan><tspan class="cls-28" x="17.06" y="0">r</tspan><tspan x="20.52" y="0">arm</tspan><tspan class="cls-23"><tspan x="-1.21" y="10.86">upper arm</tspan></tspan></text><text class="cls-22" transform="translate(315.65 268.08) scale(0.99 1)">unde<tspan class="cls-28" x="23.86" y="0">r</tspan><tspan x="27.32" y="0">arm</tspan><tspan class="cls-23"><tspan x="6.67" y="10.86">lower arm</tspan></tspan></text><text class="cls-22" transform="translate(332.88 234.82) scale(0.99 1)">albue<tspan class="cls-23"><tspan x="2.77" y="10.86">elbow</tspan></tspan></text><text class="cls-22" transform="translate(335.23 305.38) scale(0.99 1)">hånd<tspan class="cls-23"><tspan x="4.19" y="10.86">hand</tspan></tspan></text><text class="cls-22" transform="translate(333.99 349.14) scale(0.99 1)">finger<tspan class="cls-23"><tspan x="5.18" y="10.86">finger</tspan></tspan></text><text class="cls-22" transform="translate(358.33 392.38) scale(0.99 1)">armhule<tspan class="cls-23"><tspan x="13.59" y="10.86">armpit</tspan></tspan></text><text class="cls-22" transform="translate(330.12 145.67) scale(0.99 1)">h<tspan class="cls-26" x="5.98" y="0">o</tspan><tspan class="cls-27" x="12.1" y="0">v</tspan><tspan x="17.29" y="0">ed</tspan><tspan class="cls-23"><tspan x="9.65" y="10.86">head</tspan></tspan></text><text class="cls-22" transform="translate(254.21 145.03) scale(0.99 1)">tænder<tspan class="cls-23"><tspan x="0" y="10.86">teeth</tspan></tspan></text><text class="cls-22" transform="translate(234 111.87) scale(0.99 1)">tinding<tspan class="cls-23"><tspan x="0" y="10.86">temple</tspan></tspan></text><text class="cls-22" transform="translate(191.03 99.64) scale(0.99 1)">ansigt<tspan class="cls-23"><tspan x="0" y="10.86">face</tspan></tspan></text><text class="cls-22" transform="translate(532.4 117.88) scale(0.99 1)">h<tspan class="cls-26" x="5.98" y="0">o</tspan><tspan class="cls-29" x="12.1" y="0">v</tspan><tspan class="cls-30" x="17.29" y="0">edskal</tspan><tspan class="cls-23"><tspan x="0" y="10.86">skull</tspan></tspan></text><text class="cls-22" transform="translate(553.03 194.84) scale(0.99 1)">hals<tspan class="cls-23"><tspan x="0" y="10.86">neck</tspan></tspan></text><text class="cls-22" transform="translate(555.34 304.66) scale(0.99 1)">talje<tspan class="cls-23"><tspan x="0" y="10.86">waist</tspan></tspan></text><text class="cls-31" transform="translate(553.03 340.51) scale(0.99 1)">bund<tspan class="cls-32"><tspan x="0" y="10.86">bot</tspan><tspan class="cls-33" x="12.99" y="10.86">t</tspan><tspan x="15.81" y="10.86">om</tspan></tspan></text><text class="cls-22" transform="translate(530.59 365.55) scale(0.99 1)">ben<tspan class="cls-23"><tspan x="0" y="10.86">leg</tspan></tspan></text><text class="cls-22" transform="translate(522.59 396.36) scale(0.99 1)">an<tspan class="cls-34" x="11.9" y="0">k</tspan><tspan x="17.3" y="0">el</tspan><tspan class="cls-23"><tspan x="0" y="10.86">ankle</tspan></tspan></text><text class="cls-22" transform="translate(527.73 424.74) scale(0.99 1)">hæl<tspan class="cls-23"><tspan x="0" y="10.86">heel</tspan></tspan></text><text class="cls-22" transform="translate(539.19 233.25) scale(0.99 1)">skulder<tspan class="cls-23"><tspan x="0" y="10.86">shoulder</tspan></tspan></text><text class="cls-22" transform="translate(539.19 268.17) scale(0.99 1)"><tspan class="cls-35">r<tspan class="cls-27" x="3.77" y="0">y</tspan><tspan class="cls-36" x="8.84" y="0">g</tspan></tspan><tspan class="cls-23"><tspan x="0" y="10.86">back</tspan></tspan></text><text class="cls-22" transform="translate(254.21 273.89) scale(0.99 1)">b<tspan class="cls-35" x="6.09" y="0">r</tspan><tspan x="9.86" y="0">yst</tspan><tspan class="cls-23"><tspan x="0" y="10.86">chest</tspan></tspan></text><text class="cls-22" transform="translate(254.21 304.95) scale(0.99 1)">b<tspan class="cls-37" x="6.09" y="0">r</tspan><tspan x="9.86" y="0">yst</tspan><tspan class="cls-38" x="24.15" y="0">v</tspan><tspan x="29.33" y="0">o</tspan><tspan class="cls-39" x="35.52" y="0">r</tspan><tspan x="39.46" y="0">te</tspan><tspan class="cls-23"><tspan x="0" y="10.86">nipple</tspan></tspan></text><text class="cls-22" transform="translate(246.57 335.55) scale(0.99 1)">m<tspan class="cls-38" x="9.52" y="0">a</tspan><tspan class="cls-27" x="15.35" y="0">v</tspan><tspan x="20.54" y="0">e</tspan><tspan class="cls-23"><tspan x="0" y="10.86">s</tspan><tspan class="cls-40" x="4.58" y="10.86">t</tspan><tspan x="7.4" y="10.86">omach</tspan></tspan></text><text class="cls-22" transform="translate(228.12 363.07) scale(0.99 1)">n<tspan class="cls-38" x="5.99" y="0">a</tspan><tspan x="11.82" y="0">vle</tspan><tspan class="cls-23"><tspan x="0" y="10.86">n</tspan><tspan class="cls-41" x="4.97" y="10.86">a</tspan><tspan class="cls-42" x="9.75" y="10.86">v</tspan><tspan x="14.05" y="10.86">el</tspan></tspan></text><text class="cls-22" transform="translate(214.66 390.32) scale(0.99 1)">undeliv<tspan class="cls-23"><tspan x="0" y="10.86">abdomen</tspan></tspan></text><text class="cls-22" transform="translate(255.48 177.95) scale(0.99 1)">læbe<tspan class="cls-23"><tspan x="0" y="10.86">lip</tspan></tspan></text><text class="cls-22" transform="translate(255.48 209.8) scale(0.99 1)">mund<tspan class="cls-23"><tspan x="0" y="10.86">mouth</tspan></tspan></text><text class="cls-22" transform="translate(254.21 239.27) scale(0.99 1)">tunge<tspan class="cls-23"><tspan class="cls-40" x="0" y="10.86">t</tspan><tspan x="2.82" y="10.86">ongue</tspan></tspan></text><text class="cls-22" transform="translate(64.79 106.76) scale(0.99 1)">øjenb<tspan class="cls-35" x="26.58" y="0">r</tspan><tspan x="30.35" y="0">yn</tspan><tspan class="cls-23"><tspan class="cls-42" x="8.09" y="10.86">ey</tspan><tspan x="16.95" y="10.86">eb</tspan><tspan class="cls-43" x="26.64" y="10.86">r</tspan><tspan x="29.59" y="10.86">ow</tspan></tspan></text><text class="cls-22" transform="translate(19.15 131.53) scale(0.99 1)">øjenvipper<tspan class="cls-23"><tspan class="cls-42" x="20.04" y="10.86">ey</tspan><tspan x="28.9" y="10.86">elash</tspan></tspan></text><text class="cls-22" transform="translate(45.87 161.66) scale(0.99 1)">øje<tspan class="cls-23"><tspan class="cls-42" x="0.96" y="10.86">ey</tspan><tspan x="9.82" y="10.86">e</tspan></tspan></text><text class="cls-22" transform="translate(35.44 192.03) scale(0.99 1)">næse<tspan class="cls-23"><tspan x="7.22" y="10.86">nose</tspan></tspan></text><text class="cls-22" transform="translate(44.89 218.85) scale(0.99 1)">ø<tspan class="cls-44" x="6.15" y="0">r</tspan><tspan x="9.73" y="0">e</tspan><tspan class="cls-23"><tspan x="2.91" y="10.86">ear</tspan></tspan></text><text class="cls-22" transform="translate(42.54 247.89) scale(0.99 1)">kind<tspan class="cls-23"><tspan x="-3.16" y="10.86">cheek</tspan></tspan></text><text class="cls-22" transform="translate(39.09 278.7) scale(0.99 1)">hage<tspan class="cls-23"><tspan x="7.11" y="10.86">chin</tspan></tspan></text><text class="cls-22" transform="translate(36.69 311.57) scale(0.99 1)">hofte<tspan class="cls-23"><tspan x="13.24" y="10.86">hip</tspan></tspan></text><text class="cls-22" transform="translate(50.51 346.33) scale(0.99 1)">lår<tspan class="cls-23"><tspan x="-7.67" y="10.86">thigh</tspan></tspan></text><text class="cls-22" transform="translate(63.14 375.13) scale(0.99 1)">knæ<tspan class="cls-23"><tspan x="1.91" y="10.86">knee</tspan></tspan></text><text class="cls-22" transform="translate(71.27 404.36) scale(0.99 1)">fod<tspan class="cls-23"><tspan x="0.05" y="10.86">foot</tspan></tspan></text><text class="cls-22" transform="translate(158.58 427.04) scale(0.99 1)">tå<tspan class="cls-23"><tspan class="cls-40" x="-3.11" y="10.86">t</tspan><tspan x="-0.29" y="10.86">oe</tspan></tspan></text><line class="cls-45" x1="95.49" y1="120.44" x2="95.8" y2="120.84"/><line class="cls-46" x1="96.43" y1="121.64" x2="129.92" y2="164.41"/><line class="cls-45" x1="130.24" y1="164.81" x2="130.54" y2="165.21"/><line class="cls-47" x1="70.46" y1="132.88" x2="138.01" y2="180.98"/><line class="cls-47" x1="65.25" y1="164.33" x2="130.07" y2="184.49"/><line class="cls-47" x1="65.25" y1="194.91" x2="157.3" y2="201.48"/><line class="cls-47" x1="77.71" y1="216.22" x2="117.6" y2="206.47"/><line class="cls-47" x1="65.25" y1="245.31" x2="134.81" y2="212.95"/><line class="cls-47" x1="67.06" y1="269.12" x2="154.54" y2="228.92"/><line class="cls-47" x1="251.66" y1="149.65" x2="169.89" y2="210.71"/><line class="cls-47" x1="252.84" y1="180.3" x2="181.47" y2="215.19"/><line class="cls-47" x1="250.28" y1="210.71" x2="170.32" y2="218.85"/><line class="cls-47" x1="250.28" y1="240.16" x2="163.77" y2="224.5"/><line class="cls-47" x1="64.94" y1="314.26" x2="132.13" y2="326.84"/><line class="cls-47" x1="66.01" y1="346.33" x2="136.43" y2="352.42"/><line class="cls-47" x1="87.22" y1="375.13" x2="136.17" y2="376.93"/><line class="cls-47" x1="94.86" y1="407.62" x2="127.82" y2="415.75"/><line class="cls-47" x1="208.09" y1="428.29" x2="170" y2="429.08"/><line class="cls-47" x1="250.28" y1="275.54" x2="165.9" y2="265.36"/><line class="cls-47" x1="247.63" y1="307.81" x2="174.06" y2="275.17"/><line class="cls-47" x1="241.9" y1="336.24" x2="168.73" y2="294.54"/><line class="cls-47" x1="231.93" y1="354.69" x2="160.04" y2="303.6"/><line class="cls-47" x1="213.93" y1="387.23" x2="164.04" y2="315.65"/><line class="cls-47" x1="388.22" y1="106.77" x2="440.89" y2="140.5"/><line class="cls-47" x1="364.66" y1="145.67" x2="446.39" y2="174.93"/><line class="cls-47" x1="364.66" y1="236.12" x2="413.65" y2="286.46"/><line class="cls-47" x1="370.74" y1="204.22" x2="430.24" y2="260.69"/><line class="cls-47" x1="463.43" y1="240.87" x2="548.49" y2="201.68"/><line class="cls-47" x1="474.72" y1="255.73" x2="534.01" y2="243.31"/><line class="cls-47" x1="460.01" y1="278.35" x2="535.9" y2="270.57"/><line class="cls-47" x1="480.06" y1="310.62" x2="553.03" y2="310.62"/><line class="cls-47" x1="473.51" y1="339.05" x2="548.84" y2="340.37"/><line class="cls-47" x1="473.51" y1="370.78" x2="527.73" y2="365.33"/><line class="cls-47" x1="480.06" y1="414.23" x2="519.47" y2="398.63"/><line class="cls-47" x1="473.51" y1="425.99" x2="524.76" y2="429.85"/><line class="cls-47" x1="238.19" y1="125.28" x2="197.36" y2="180.98"/><line class="cls-47" x1="530.59" y1="122.04" x2="488.24" y2="143.05"/><line class="cls-47" x1="199.39" y1="113.72" x2="190.59" y2="150.14"/><line class="cls-47" x1="143.73" y1="110.96" x2="157.3" y2="158.84"/><line class="cls-47" x1="365.8" y1="271.92" x2="403.26" y2="296.5"/><line class="cls-47" x1="364.66" y1="306.4" x2="395.54" y2="308.15"/><line class="cls-47" x1="361.68" y1="352.18" x2="389.16" y2="334.11"/><line class="cls-47" x1="391.26" y1="381.09" x2="427.33" y2="290.29"/><polygon class="cls-48" points="149.82 473.97 149.82 555.44 133.34 571.99 25.1 571.99 25.1 473.97 149.82 473.97"/><text class="cls-49" transform="translate(38.38 515.92) scale(0.99 1)">Børst <tspan class="cls-50" x="31.99" y="0">tænderne </tspan><tspan x="0" y="14.67">inden du går i seng.</tspan><tspan class="cls-51"><tspan x="0" y="26.89">Brush </tspan><tspan class="cls-52" x="28.49" y="26.89">y</tspan><tspan x="33.25" y="26.89">our teeth </tspan><tspan x="0" y="39.11">befo</tspan><tspan class="cls-53" x="19.98" y="39.11">r</tspan><tspan class="cls-54" x="23.32" y="39.11">e going </tspan><tspan class="cls-55" x="58.41" y="39.11">t</tspan><tspan x="61.59" y="39.11">o bed.</tspan></tspan></text><g class="cls-56"><path class="cls-57" d="M28.84,465.53A6.36,6.36,0,0,1,36,470.92l.37,3-2.26.05-.25-2.75a4.18,4.18,0,0,0-4.73-3.55c-2.28.32-2.87,2.82-2.55,5.1l3.55,25.13a4.19,4.19,0,1,0,8.29-1.16l-2-13.88,2.14-.3,2,13.87A6.35,6.35,0,1,1,28,498.21l-3.55-25.14C24,469.61,25.38,466,28.84,465.53Z"/></g><path class="cls-58" d="M29.57,464.48a6.35,6.35,0,0,1,7.17,5.39l.64,4.55H35.2l-.6-4.25a4.18,4.18,0,0,0-4.73-3.55c-2.28.32-2.86,2.82-2.54,5.1l3.54,25.13a4.19,4.19,0,1,0,8.29-1.17l-2-13.87,2.14-.3,2,13.87a6.35,6.35,0,1,1-12.57,1.78L25.19,472C24.7,468.56,26.11,465,29.57,464.48Z"/><polygon class="cls-59" points="291.56 473.97 291.56 555.44 275.08 571.99 166.83 571.99 166.83 473.97 291.56 473.97"/><text class="cls-49" transform="translate(171.7 512.07) scale(0.99 1)">Mit <tspan class="cls-60" x="20.66" y="0">h</tspan><tspan class="cls-61" x="27.39" y="0">o</tspan><tspan class="cls-62" x="34.27" y="0">v</tspan><tspan class="cls-50" x="40.11" y="0">ed </tspan><tspan x="56.51" y="0">er ondt. </tspan><tspan x="0" y="14.67">Jeg har en h</tspan><tspan class="cls-63" x="66.62" y="14.67">o</tspan><tspan class="cls-64" x="73.5" y="14.67">v</tspan><tspan x="79.35" y="14.67">edpine.</tspan><tspan class="cls-51"><tspan x="0" y="26.89">My head aches. </tspan><tspan x="0" y="39.11">I h</tspan><tspan class="cls-52" x="10.78" y="39.11">a</tspan><tspan class="cls-65" x="16.16" y="39.11">v</tspan><tspan class="cls-54" x="20.99" y="39.11">e a headache.</tspan></tspan></text><g class="cls-66"><path class="cls-67" d="M260.28,479.22v-.05a2,2,0,0,0-.17-.63,1.79,1.79,0,0,0-1.33-1,1.4,1.4,0,0,0-.41,0,1.76,1.76,0,0,0,1.62-1.91,1.27,1.27,0,1,1-.7-2.24,1.75,1.75,0,0,0,.41-1.28,1.78,1.78,0,0,0-1.77-1.63h0a1.76,1.76,0,0,0-.41-3.5l-54,4.43a1.72,1.72,0,0,0-1.2.62,1.74,1.74,0,0,0-.42,1.29,1.27,1.27,0,1,1,.71,2.23,1.76,1.76,0,0,0-.42,1.29,1.78,1.78,0,0,0,1.91,1.62,1.78,1.78,0,0,0-1.62,1.9,1.78,1.78,0,0,0,1.91,1.62,1.78,1.78,0,0,0-1.62,1.91,0,0,0,0,0,0,0v0a.13.13,0,0,0,0,.06.68.68,0,0,0,0,.14,1.77,1.77,0,0,0,1.87,1.41l54-4.43.12,0a1.75,1.75,0,0,0,1.08-.6A1.78,1.78,0,0,0,260.28,479.22Z"/></g><path class="cls-5" d="M260.48,470.52a1.78,1.78,0,0,0-1.77-1.63h0a1.7,1.7,0,0,0,1.07-.6,1.74,1.74,0,0,0,.42-1.29,1.77,1.77,0,0,0-1.91-1.61l-54,4.43a1.74,1.74,0,0,0-1.2.62,1.77,1.77,0,0,1,.29,3.52,1.79,1.79,0,0,0-.41,1.29,1.77,1.77,0,0,0,1.9,1.62,1.76,1.76,0,0,0-1.61,1.9,1.77,1.77,0,0,0,1.9,1.62,1.74,1.74,0,0,0-1.2.62,1.76,1.76,0,0,0-.41,1.29v0s0,0,0,.06l0,.14a1.76,1.76,0,0,0,1.87,1.41l54-4.43.13,0a1.73,1.73,0,0,0,1.08-.6,1.78,1.78,0,0,0,.41-1.29v0s0,0,0,0a1.75,1.75,0,0,0-.18-.63,1.78,1.78,0,0,0-1.32-1,1.41,1.41,0,0,0-.41,0,1.78,1.78,0,0,0,1.2-.62,1.76,1.76,0,0,0,.42-1.29,1.78,1.78,0,0,0-1.91-1.62,1.74,1.74,0,0,0,1.2-.62A1.72,1.72,0,0,0,260.48,470.52Z"/><path class="cls-5" d="M207.15,471.84a.84.84,0,1,1-.9-.76A.83.83,0,0,1,207.15,471.84Z"/><path class="cls-5" d="M205.64,478.18a.84.84,0,0,1-1.67.14.84.84,0,1,1,1.67-.14Z"/><path class="cls-5" d="M217.65,480.9a.84.84,0,1,1-.9-.77A.84.84,0,0,1,217.65,480.9Z"/><path class="cls-5" d="M213.46,477.54a.84.84,0,1,1-1.67.13.83.83,0,0,1,.76-.9A.85.85,0,0,1,213.46,477.54Z"/><path class="cls-5" d="M219.07,471.17a.83.83,0,0,1-.76.9.83.83,0,1,1-.14-1.66A.83.83,0,0,1,219.07,471.17Z"/><path class="cls-5" d="M226,476.2a.84.84,0,0,1-.77.9.83.83,0,0,1-.14-1.66A.84.84,0,0,1,226,476.2Z"/><path class="cls-5" d="M231.28,469.86a.84.84,0,0,1-.77.9.83.83,0,0,1-.14-1.66A.84.84,0,0,1,231.28,469.86Z"/><path class="cls-5" d="M235.17,474.91a.84.84,0,1,1-1.67.14.84.84,0,0,1,1.67-.14Z"/><path class="cls-5" d="M238.53,478.6a.84.84,0,1,1-1.11,1.25.85.85,0,0,1-.07-1.18A.83.83,0,0,1,238.53,478.6Z"/><path class="cls-5" d="M243.62,475a.84.84,0,0,1,.06,1.18.83.83,0,1,1-1.24-1.11A.85.85,0,0,1,243.62,475Z"/><path class="cls-5" d="M240.67,468.82a.85.85,0,0,1,.07,1.18.84.84,0,1,1-.07-1.18Z"/><path class="cls-5" d="M251.31,467.64a.85.85,0,0,1,.07,1.18.86.86,0,0,1-1.19.07.84.84,0,0,1-.06-1.18A.83.83,0,0,1,251.31,467.64Z"/><path class="cls-5" d="M254.92,472.71a.84.84,0,1,1-1.11,1.25.84.84,0,0,1,1.11-1.25Z"/><path class="cls-5" d="M250.17,477.65a.84.84,0,1,1-1.18.06A.84.84,0,0,1,250.17,477.65Z"/><path class="cls-5" d="M260.88,476.93a.62.62,0,0,1-.12.19.84.84,0,0,1-1.25-1.11l.05-.05A1.78,1.78,0,0,1,260.88,476.93Z"/><path class="cls-5" d="M258.63,469.9a.83.83,0,0,1-1.18.07.84.84,0,0,1-.22-1,1.07,1.07,0,0,1,.15-.22.83.83,0,0,1,1.18-.07,1.07,1.07,0,0,1,.14.16h0A.84.84,0,0,1,258.63,469.9Z"/><path class="cls-5" d="M229.86,479.89a.84.84,0,0,1-.76.91.85.85,0,0,1-.91-.77.85.85,0,0,1,.77-.9A.83.83,0,0,1,229.86,479.89Z"/><polygon class="cls-68" points="580.28 473.97 580.28 555.44 563.8 571.99 455.55 571.99 455.55 473.97 580.28 473.97"/><text class="cls-69" transform="translate(465.45 503.92) scale(0.99 1)">Den gamle kvinde <tspan x="0" y="14.67">kyssede barnets </tspan><tspan class="cls-70"><tspan x="0" y="29.33">kinde</tspan><tspan class="cls-71" x="29.27" y="29.33">r</tspan><tspan class="cls-72" x="32.68" y="29.33">.</tspan></tspan><tspan class="cls-73"><tspan x="0" y="41.56">The old woman kissed </tspan><tspan x="0" y="53.78">the ba</tspan><tspan class="cls-74" x="27.7" y="53.78">b</tspan><tspan class="cls-75" x="33.29" y="53.78">y</tspan><tspan class="cls-76" x="38.21" y="53.78">’</tspan><tspan x="39.46" y="53.78">s cheeks.</tspan></tspan></text><g class="cls-66"><path class="cls-77" d="M545.72,483.87v0s0,0,0,0a1.71,1.71,0,0,0-.07-.64,1.74,1.74,0,0,0-1.15-1.18,1,1,0,1,1,.89-.5,1.77,1.77,0,1,1,.29-3.52,1.76,1.76,0,0,0-.86-3.09v0a1.74,1.74,0,0,0,1.16-.42,1.76,1.76,0,0,0-1-3.1l-54-4.44a1.72,1.72,0,0,0-1.28.42,1.74,1.74,0,0,0-.62,1.2,1.27,1.27,0,1,1,.33,2.32,1.74,1.74,0,0,0-.62,1.2A1.77,1.77,0,0,0,490.4,474a1.78,1.78,0,0,0-1.9,1.62,1.77,1.77,0,0,0,1.61,1.9,1.78,1.78,0,0,0-1.9,1.62v0s0,0,0,.06v.15a1.77,1.77,0,0,0,1.61,1.7l54,4.43H544a1.7,1.7,0,0,0,1.15-.42A1.72,1.72,0,0,0,545.72,483.87Z"/></g><path class="cls-5" d="M547.33,475.32a1.78,1.78,0,0,0-1.48-1.9h0A1.7,1.7,0,0,0,547,473a1.74,1.74,0,0,0,.62-1.2,1.78,1.78,0,0,0-1.61-1.91l-54-4.43a1.74,1.74,0,0,0-1.29.42,1.76,1.76,0,0,0,1,3.1,1.74,1.74,0,0,0-1.29.42,1.77,1.77,0,1,1-.29,3.52,1.77,1.77,0,0,0,1,3.11,1.78,1.78,0,0,0-1.9,1.62v.11a.61.61,0,0,0,0,.14,1.75,1.75,0,0,0,1.61,1.7l54,4.44H545a1.73,1.73,0,0,0,1.16-.42,1.74,1.74,0,0,0,.62-1.2v0a0,0,0,0,1,0,0,2,2,0,0,0-.07-.65,1.84,1.84,0,0,0-1.55-1.26,1.79,1.79,0,0,0,1.29-.41,1.73,1.73,0,0,0,.61-1.2,1.27,1.27,0,1,1-.33-2.32A1.77,1.77,0,0,0,547.33,475.32Z"/><path class="cls-5" d="M494.51,467.92a.85.85,0,0,1-.91.77.84.84,0,0,1,.14-1.67A.85.85,0,0,1,494.51,467.92Z"/><path class="cls-5" d="M492,473.93a.83.83,0,0,1-.9.76.83.83,0,1,1,.14-1.66A.83.83,0,0,1,492,473.93Z"/><path class="cls-5" d="M503.39,478.57a.83.83,0,0,1-.91.76.83.83,0,1,1,.91-.76Z"/><path class="cls-5" d="M499.8,474.57a.84.84,0,1,1-1.67-.14.84.84,0,0,1,1.67.14Z"/><path class="cls-5" d="M506.38,469.21a.84.84,0,0,1-.91.76.83.83,0,0,1-.76-.9.85.85,0,0,1,.9-.77A.85.85,0,0,1,506.38,469.21Z"/><path class="cls-5" d="M512.37,475.3a.84.84,0,1,1-.77-.91A.84.84,0,0,1,512.37,475.3Z"/><path class="cls-5" d="M518.63,469.91a.83.83,0,0,1-.9.76.84.84,0,1,1,.14-1.67A.83.83,0,0,1,518.63,469.91Z"/><path class="cls-5" d="M521.65,475.52a.84.84,0,1,1-.77-.9A.83.83,0,0,1,521.65,475.52Z"/><path class="cls-5" d="M524.37,479.71a.84.84,0,1,1-1.31,1.05.83.83,0,0,1,.13-1.17A.84.84,0,0,1,524.37,479.71Z"/><path class="cls-5" d="M530,477a.84.84,0,1,1-1.18-.13A.84.84,0,0,1,530,477Z"/><path class="cls-5" d="M528.07,470.41a.84.84,0,0,1-.13,1.18.83.83,0,0,1-1.17-.13.84.84,0,1,1,1.3-1Z"/><path class="cls-5" d="M538.76,471a.84.84,0,1,1-1.18-.13A.84.84,0,0,1,538.76,471Z"/><path class="cls-5" d="M541.5,476.58a.84.84,0,0,1-1.3,1.05.84.84,0,1,1,1.3-1.05Z"/><path class="cls-5" d="M536,480.67a.84.84,0,1,1-1.18-.13A.84.84,0,0,1,536,480.67Z"/><path class="cls-5" d="M546.69,481.71a.85.85,0,0,1-.16.17.84.84,0,0,1-1-1.3l.06,0A1.77,1.77,0,0,1,546.69,481.71Z"/><path class="cls-5" d="M545.61,474.41a.84.84,0,0,1-1.23-1.11,1.12,1.12,0,0,1,.18-.2.84.84,0,0,1,1.18.13,1.74,1.74,0,0,1,.11.18h0A.84.84,0,0,1,545.61,474.41Z"/><path class="cls-5" d="M515.6,479.57a.84.84,0,1,1-1.67-.14.84.84,0,0,1,1.67.14Z"/><polygon class="cls-68" points="149.82 592.18 149.82 673.65 149.58 673.89 133.34 690.2 25.1 690.2 25.1 592.18 149.82 592.18"/><polygon class="cls-68" points="435.78 592.18 435.78 673.65 419.3 690.2 311.05 690.2 311.05 592.18 435.78 592.18"/><polygon class="cls-78" points="291.56 592.18 291.56 673.89 275.32 690.2 166.83 690.2 166.83 592.18 291.56 592.18"/><g class="cls-66"><path class="cls-57" d="M260.28,595.43v0a1.9,1.9,0,0,0-.17-.63,1.77,1.77,0,0,0-1.33-1,1.85,1.85,0,0,0-.41,0,1.75,1.75,0,0,0,1.62-1.9,1.27,1.27,0,1,1-.7-2.24,1.75,1.75,0,0,0,.41-1.28,1.78,1.78,0,0,0-1.77-1.63h0a1.77,1.77,0,0,0,1.08-.6,1.79,1.79,0,0,0,.41-1.29,1.77,1.77,0,0,0-1.9-1.62l-54,4.44a1.72,1.72,0,0,0-1.2.62,1.74,1.74,0,0,0-.42,1.29,1.77,1.77,0,0,0,1.91,1.61,1.72,1.72,0,0,0-1.2.62,1.74,1.74,0,0,0-.42,1.29,1.78,1.78,0,0,0,1.91,1.62,1.78,1.78,0,0,0-1.62,1.9,1.78,1.78,0,0,0,1.91,1.62,1.78,1.78,0,0,0-1.62,1.91,0,0,0,0,0,0,0v0a.13.13,0,0,0,0,.06.78.78,0,0,0,0,.14,1.77,1.77,0,0,0,1.87,1.41l54-4.43.12,0a1.75,1.75,0,0,0,1.49-1.89Z"/></g><path class="cls-13" d="M260.48,586.73a1.78,1.78,0,0,0-1.77-1.63h0a1.77,1.77,0,0,0,1.49-1.89,1.78,1.78,0,0,0-1.91-1.62l-54,4.44a1.74,1.74,0,0,0-1.2.62,1.77,1.77,0,0,1,.29,3.52,1.77,1.77,0,0,0,1.49,2.91,1.76,1.76,0,0,0-1.61,1.9,1.77,1.77,0,0,0,1.9,1.62,1.74,1.74,0,0,0-1.2.62,1.76,1.76,0,0,0-.41,1.29v0s0,0,0,.06l0,.14a1.76,1.76,0,0,0,1.87,1.41l54-4.43.13,0a1.77,1.77,0,0,0,1.08-.6,1.79,1.79,0,0,0,.41-1.29v0s0,0,0,0a1.7,1.7,0,0,0-.18-.63,1.75,1.75,0,0,0-1.32-1,1.88,1.88,0,0,0-.41,0,1.77,1.77,0,0,0,1.2-.61,1.76,1.76,0,0,0,.42-1.29,1.78,1.78,0,0,0-1.91-1.62,1.74,1.74,0,0,0,1.2-.62A1.72,1.72,0,0,0,260.48,586.73Z"/><path class="cls-13" d="M207.15,588.05a.84.84,0,1,1-.9-.76A.83.83,0,0,1,207.15,588.05Z"/><path class="cls-13" d="M205.64,594.39a.84.84,0,0,1-1.67.14.84.84,0,1,1,1.67-.14Z"/><path class="cls-13" d="M217.65,597.11a.84.84,0,1,1-.9-.77A.84.84,0,0,1,217.65,597.11Z"/><path class="cls-13" d="M213.46,593.75a.84.84,0,1,1-1.67.13.83.83,0,0,1,.76-.9A.85.85,0,0,1,213.46,593.75Z"/><path class="cls-13" d="M219.07,587.38a.83.83,0,0,1-.76.9.83.83,0,1,1-.14-1.66A.83.83,0,0,1,219.07,587.38Z"/><path class="cls-13" d="M226,592.41a.84.84,0,0,1-.77.9.83.83,0,1,1-.14-1.66A.84.84,0,0,1,226,592.41Z"/><path class="cls-13" d="M231.28,586.07a.84.84,0,0,1-.77.9.83.83,0,0,1-.14-1.66A.84.84,0,0,1,231.28,586.07Z"/><path class="cls-13" d="M235.17,591.12a.84.84,0,1,1-1.67.14.84.84,0,0,1,1.67-.14Z"/><path class="cls-13" d="M238.53,594.81a.84.84,0,1,1-1.11,1.25.85.85,0,0,1-.07-1.18A.83.83,0,0,1,238.53,594.81Z"/><path class="cls-13" d="M243.62,591.22a.84.84,0,0,1,.06,1.18.83.83,0,0,1-1.18.07.84.84,0,0,1,1.12-1.25Z"/><path class="cls-13" d="M240.67,585a.85.85,0,0,1,.07,1.18.84.84,0,0,1-1.18.07.84.84,0,0,1,1.11-1.25Z"/><path class="cls-13" d="M251.31,583.85a.85.85,0,0,1,.07,1.18.86.86,0,0,1-1.19.07.85.85,0,0,1-.06-1.19A.84.84,0,0,1,251.31,583.85Z"/><path class="cls-13" d="M254.92,588.92a.84.84,0,1,1-1.11,1.25.85.85,0,0,1-.07-1.18A.83.83,0,0,1,254.92,588.92Z"/><path class="cls-13" d="M250.17,593.86a.85.85,0,0,1,.07,1.18.84.84,0,0,1-1.18.06.83.83,0,1,1,1.11-1.24Z"/><path class="cls-13" d="M260.88,593.14a.76.76,0,0,1-.12.19.84.84,0,0,1-1.25-1.11l.05-.05A1.75,1.75,0,0,1,260.88,593.14Z"/><path class="cls-13" d="M258.63,586.11a.83.83,0,0,1-1.18.07.84.84,0,0,1-.22-1,1.07,1.07,0,0,1,.15-.22.83.83,0,0,1,1.18-.07,1.07,1.07,0,0,1,.14.16h0A.84.84,0,0,1,258.63,586.11Z"/><path class="cls-13" d="M229.86,596.1a.83.83,0,0,1-.76.9.83.83,0,1,1-.14-1.66A.83.83,0,0,1,229.86,596.1Z"/><polygon class="cls-78" points="580.28 592.18 580.28 673.65 563.8 690.2 455.55 690.2 455.55 592.18 580.28 592.18"/><g class="cls-66"><path class="cls-77" d="M545.72,603.08V603a1.78,1.78,0,0,0-.07-.65,1.75,1.75,0,0,0-1.15-1.17,1.35,1.35,0,0,0-.4-.08,1.83,1.83,0,0,0,1.29-.42,1.77,1.77,0,1,1,.29-3.52,1.81,1.81,0,0,0,.62-1.2,1.78,1.78,0,0,0-1.48-1.89v0a1.74,1.74,0,0,0,1.16-.42,1.78,1.78,0,0,0,.62-1.2,1.76,1.76,0,0,0-1.62-1.9l-54-4.44a1.78,1.78,0,0,0-1.9,1.62,1.76,1.76,0,0,0,1.61,1.9,1.72,1.72,0,0,0-1.28.42,1.74,1.74,0,0,0-.62,1.2,1.27,1.27,0,1,1,.33,2.32,1.75,1.75,0,0,0-.62,1.21,1.77,1.77,0,0,0,1.61,1.9,1.78,1.78,0,0,0-1.9,1.62v.05s0,0,0,.06v.14a1.75,1.75,0,0,0,1.61,1.7l54,4.44H544a1.7,1.7,0,0,0,1.15-.42A1.74,1.74,0,0,0,545.72,603.08Z"/></g><path class="cls-13" d="M547.33,594.52a1.77,1.77,0,0,0-1.48-1.89h0a1.7,1.7,0,0,0,1.15-.42,1.74,1.74,0,0,0,.62-1.2,1.78,1.78,0,0,0-1.61-1.91l-54-4.43a1.78,1.78,0,0,0-1.29.41,1.81,1.81,0,0,0-.62,1.21,1.77,1.77,0,0,0,1.62,1.9,1.74,1.74,0,0,0-1.29.42,1.77,1.77,0,1,1-.29,3.52,1.77,1.77,0,0,0,1,3.11,1.76,1.76,0,0,0-1.9,1.62V597a.61.61,0,0,0,0,.14,1.76,1.76,0,0,0,1.61,1.7l54,4.44H545a1.73,1.73,0,0,0,1.16-.42,1.74,1.74,0,0,0,.62-1.2v0a2,2,0,0,0-.07-.65,1.84,1.84,0,0,0-1.55-1.26,1.79,1.79,0,0,0,1.29-.41,1.77,1.77,0,1,1,.28-3.52A1.77,1.77,0,0,0,547.33,594.52Z"/><path class="cls-13" d="M494.51,587.13a.85.85,0,0,1-.91.77.84.84,0,0,1,.14-1.67A.85.85,0,0,1,494.51,587.13Z"/><path class="cls-13" d="M492,593.14a.83.83,0,0,1-.9.76.83.83,0,1,1,.14-1.66A.83.83,0,0,1,492,593.14Z"/><path class="cls-13" d="M503.39,597.78a.84.84,0,0,1-1.67-.14.84.84,0,1,1,1.67.14Z"/><path class="cls-13" d="M499.8,593.78a.84.84,0,1,1-.77-.9A.83.83,0,0,1,499.8,593.78Z"/><path class="cls-13" d="M506.38,588.42a.84.84,0,0,1-.91.76.83.83,0,0,1-.76-.9.85.85,0,0,1,.9-.77A.85.85,0,0,1,506.38,588.42Z"/><path class="cls-13" d="M512.37,594.5a.84.84,0,1,1-.77-.9A.84.84,0,0,1,512.37,594.5Z"/><path class="cls-13" d="M518.63,589.11A.84.84,0,0,1,517,589a.85.85,0,0,1,.91-.77A.83.83,0,0,1,518.63,589.11Z"/><path class="cls-13" d="M521.65,594.73a.84.84,0,1,1-.77-.9A.84.84,0,0,1,521.65,594.73Z"/><path class="cls-13" d="M524.37,598.92a.84.84,0,1,1-1.31,1.05.83.83,0,0,1,.13-1.17A.84.84,0,0,1,524.37,598.92Z"/><path class="cls-13" d="M530,596.21a.84.84,0,1,1-1.18-.13A.84.84,0,0,1,530,596.21Z"/><path class="cls-13" d="M528.07,589.62a.84.84,0,0,1-1.3,1,.84.84,0,1,1,1.3-1Z"/><path class="cls-13" d="M538.76,590.19a.83.83,0,0,1-.13,1.17.84.84,0,1,1,.13-1.17Z"/><path class="cls-13" d="M541.5,595.78a.84.84,0,0,1-.13,1.18.83.83,0,0,1-1.17-.12.84.84,0,0,1,1.3-1.06Z"/><path class="cls-13" d="M536,599.88a.84.84,0,1,1-1.18-.13A.84.84,0,0,1,536,599.88Z"/><path class="cls-13" d="M546.69,600.92a.85.85,0,0,1-.16.17.84.84,0,0,1-1-1.3l.06,0A1.77,1.77,0,0,1,546.69,600.92Z"/><path class="cls-13" d="M545.61,593.61a.83.83,0,0,1-1.18-.12.84.84,0,0,1,0-1,1.12,1.12,0,0,1,.18-.2.84.84,0,0,1,1.18.13,1.74,1.74,0,0,1,.11.18h0A.82.82,0,0,1,545.61,593.61Z"/><path class="cls-13" d="M515.6,598.78a.84.84,0,1,1-1.67-.14.84.84,0,0,1,1.67.14Z"/><polygon class="cls-48" points="149.82 712.42 149.82 793.89 149.58 794.13 133.34 810.44 25.1 810.44 25.1 712.42 149.82 712.42"/><polygon class="cls-78" points="435.78 712.42 435.78 793.89 435.54 794.13 419.3 810.44 311.05 810.44 311.05 712.42 435.78 712.42"/><polygon class="cls-68" points="291.56 712.42 291.56 793.89 291.32 794.13 275.08 810.44 166.83 810.44 166.83 712.42 291.56 712.42"/><g class="cls-66"><path class="cls-77" d="M260.28,715.67v0a1.9,1.9,0,0,0-.17-.63,1.77,1.77,0,0,0-1.33-1,1.85,1.85,0,0,0-.41,0,2.3,2.3,0,0,1,.92-4.14,1.75,1.75,0,0,0,.41-1.28,1.78,1.78,0,0,0-1.77-1.63h0a1.82,1.82,0,0,0,1.08-.6,1.79,1.79,0,0,0,.41-1.29,1.77,1.77,0,0,0-1.9-1.62l-54,4.44a1.78,1.78,0,0,0-1.62,1.9,1.77,1.77,0,0,0,1.91,1.62,1.72,1.72,0,0,0-1.2.62,1.74,1.74,0,0,0-.42,1.29,1.78,1.78,0,0,0,1.91,1.62,1.78,1.78,0,0,0-1.62,1.9,1.78,1.78,0,0,0,1.91,1.62,1.78,1.78,0,0,0-1.62,1.9s0,0,0,0h0a.17.17,0,0,0,0,.07.78.78,0,0,0,0,.14,1.78,1.78,0,0,0,1.87,1.41l54-4.43.12,0a1.75,1.75,0,0,0,1.49-1.89Z"/></g><path class="cls-5" d="M260.48,707a1.78,1.78,0,0,0-1.77-1.63h0a1.8,1.8,0,0,0,1.07-.6,1.76,1.76,0,0,0,.42-1.29,1.78,1.78,0,0,0-1.91-1.62l-54,4.44a2.3,2.3,0,0,1-.91,4.14,1.77,1.77,0,0,0,1.49,2.91,1.76,1.76,0,0,0-1.61,1.9,1.77,1.77,0,0,0,1.9,1.62,1.76,1.76,0,0,0-1.61,1.9v0h0s0,.05,0,.07l0,.14a1.76,1.76,0,0,0,1.87,1.41l54-4.43.13,0a1.82,1.82,0,0,0,1.08-.6,1.79,1.79,0,0,0,.41-1.29v0s0,0,0,0a1.7,1.7,0,0,0-.18-.63,1.75,1.75,0,0,0-1.32-1,1.88,1.88,0,0,0-.41,0,1.74,1.74,0,0,0,1.2-.62,1.72,1.72,0,0,0,.42-1.28,1.78,1.78,0,0,0-1.91-1.62,1.74,1.74,0,0,0,1.2-.62A1.72,1.72,0,0,0,260.48,707Z"/><path class="cls-5" d="M207.15,708.29a.84.84,0,1,1-.9-.76A.83.83,0,0,1,207.15,708.29Z"/><path class="cls-5" d="M205.64,714.63a.84.84,0,1,1-.9-.77A.83.83,0,0,1,205.64,714.63Z"/><path class="cls-5" d="M217.65,717.34a.84.84,0,1,1-1.67.14.84.84,0,0,1,1.67-.14Z"/><path class="cls-5" d="M213.46,714a.84.84,0,1,1-1.67.13.83.83,0,0,1,.76-.9A.84.84,0,0,1,213.46,714Z"/><path class="cls-5" d="M219.07,707.62a.83.83,0,0,1-.76.9.84.84,0,0,1-.91-.76.85.85,0,0,1,.77-.91A.85.85,0,0,1,219.07,707.62Z"/><path class="cls-5" d="M226,712.65a.85.85,0,0,1-.77.9.83.83,0,0,1-.9-.76.84.84,0,0,1,.76-.91A.85.85,0,0,1,226,712.65Z"/><path class="cls-5" d="M231.28,706.31a.85.85,0,0,1-.77.9.83.83,0,0,1-.9-.76.84.84,0,0,1,.76-.91A.85.85,0,0,1,231.28,706.31Z"/><path class="cls-5" d="M235.17,711.36a.84.84,0,1,1-.9-.76A.83.83,0,0,1,235.17,711.36Z"/><path class="cls-5" d="M238.53,715.05a.84.84,0,1,1-1.11,1.25.85.85,0,0,1-.07-1.18A.83.83,0,0,1,238.53,715.05Z"/><path class="cls-5" d="M243.62,711.46a.84.84,0,0,1,.06,1.18.83.83,0,0,1-1.18.07.84.84,0,0,1-.06-1.18A.83.83,0,0,1,243.62,711.46Z"/><path class="cls-5" d="M240.67,705.27a.84.84,0,1,1-1.11,1.25.84.84,0,0,1,1.11-1.25Z"/><path class="cls-5" d="M251.31,704.09a.84.84,0,1,1-1.12,1.24.84.84,0,0,1,1.12-1.24Z"/><path class="cls-5" d="M254.92,709.16a.84.84,0,1,1-1.11,1.25.85.85,0,0,1-.07-1.18A.83.83,0,0,1,254.92,709.16Z"/><path class="cls-5" d="M250.17,714.09a.86.86,0,0,1,.07,1.19.84.84,0,0,1-1.18.06.83.83,0,0,1-.07-1.18A.85.85,0,0,1,250.17,714.09Z"/><path class="cls-5" d="M260.88,713.38a.76.76,0,0,1-.12.19.84.84,0,0,1-1.25-1.11l.05-.05A1.75,1.75,0,0,1,260.88,713.38Z"/><path class="cls-5" d="M258.63,706.35a.83.83,0,0,1-1.18.07.84.84,0,0,1-.22-1,.86.86,0,0,1,.15-.22.83.83,0,0,1,1.18-.07,1.07,1.07,0,0,1,.14.16h0A.84.84,0,0,1,258.63,706.35Z"/><path class="cls-5" d="M229.86,716.34a.83.83,0,0,1-.76.9.83.83,0,1,1-.14-1.66A.83.83,0,0,1,229.86,716.34Z"/><text class="cls-69" transform="translate(33.23 633.28) scale(0.99 1)">Vi lægger <tspan class="cls-60" x="54.41" y="0">albuerne </tspan><tspan x="0" y="14.67">på </tspan><tspan class="cls-70" x="16.53" y="14.67">knæene</tspan><tspan x="59.49" y="14.67">.</tspan><tspan class="cls-79"><tspan x="0" y="26.89">W</tspan><tspan class="cls-54" x="8.98" y="26.89">e put our elbows on </tspan></tspan><tspan class="cls-73"><tspan x="0" y="39.11">our knees.</tspan></tspan></text><text class="cls-49" transform="translate(171.7 630.28) scale(0.99 1)">Bruden h<tspan class="cls-63" x="48.35" y="0">a</tspan><tspan class="cls-80" x="54.91" y="0">v</tspan><tspan x="60.76" y="0">de en </tspan><tspan x="0" y="14.67">guldkæde om </tspan><tspan class="cls-70" x="77.07" y="14.67">halsen</tspan><tspan x="112.94" y="14.67">.</tspan><tspan class="cls-51"><tspan x="0" y="26.89">The bride wo</tspan><tspan class="cls-53" x="57.55" y="26.89">r</tspan><tspan x="60.88" y="26.89">e a gold </tspan><tspan x="0" y="39.11">necklace a</tspan><tspan class="cls-55" x="47.27" y="39.11">r</tspan><tspan x="50.6" y="39.11">ound her neck.</tspan></tspan></text><text class="cls-69" transform="translate(319.75 630.28) scale(0.99 1)">Løft dine <tspan class="cls-70" x="50.87" y="0">arme </tspan><tspan class="cls-81" x="81.87" y="0">og </tspan><tspan class="cls-63" x="0" y="14.67">o</tspan><tspan class="cls-64" x="6.88" y="14.67">v</tspan><tspan x="12.72" y="14.67">e</tspan><tspan class="cls-82" x="19.2" y="14.67">r</tspan><tspan x="23.22" y="14.67">giv dig.</tspan><tspan class="cls-73"><tspan x="0" y="26.89">Raise </tspan><tspan class="cls-52" x="27.1" y="26.89">y</tspan><tspan x="31.87" y="26.89">our arms and </tspan><tspan x="0" y="39.11">sur</tspan><tspan class="cls-53" x="14.18" y="39.11">r</tspan><tspan class="cls-54" x="17.51" y="39.11">ende</tspan><tspan class="cls-83" x="39.29" y="39.11">r</tspan><tspan x="42.11" y="39.11">.</tspan></tspan></text><text class="cls-69" transform="translate(461.36 630.28) scale(0.99 1)"><tspan class="cls-84">V</tspan><tspan x="7.5" y="0">ask dine beskidte </tspan><tspan class="cls-70"><tspan x="0" y="14.67">hænde</tspan><tspan class="cls-71" x="37.16" y="14.67">r</tspan><tspan class="cls-72" x="40.57" y="14.67">.</tspan></tspan><tspan class="cls-73"><tspan class="cls-85" x="0" y="26.89">W</tspan><tspan x="8.97" y="26.89">ash </tspan><tspan class="cls-86" x="27.65" y="26.89">y</tspan><tspan x="32.41" y="26.89">our di</tspan><tspan class="cls-87" x="57.56" y="26.89">r</tspan><tspan class="cls-54" x="61.23" y="26.89">ty hands.</tspan></tspan></text><text class="cls-69" transform="translate(32.97 752.7) scale(0.99 1)"><tspan class="cls-88">P<tspan class="cls-89" x="7.64" y="0">atienten har en </tspan></tspan><tspan x="0" y="14.67">al</tspan><tspan class="cls-63" x="9.61" y="14.67">v</tspan><tspan x="15.45" y="14.67">orlig </tspan><tspan class="cls-60" x="42.37" y="14.67">an</tspan><tspan class="cls-90" x="55.76" y="14.67">k</tspan><tspan class="cls-50" x="61.84" y="14.67">elskade</tspan><tspan x="103.79" y="14.67">.</tspan><tspan class="cls-73"><tspan x="0" y="26.89">The patient has a serious </tspan><tspan x="0" y="39.11">ankle inju</tspan><tspan class="cls-91" x="41.86" y="39.11">r</tspan><tspan class="cls-92" x="45.37" y="39.11">y</tspan><tspan x="49.68" y="39.11">.</tspan></tspan></text><text class="cls-69" transform="translate(173.93 750.7) scale(0.99 1)">Glasstyk<tspan class="cls-93" x="46.52" y="0">k</tspan><tspan x="52.59" y="0">et t</tspan><tspan class="cls-94" x="70.08" y="0">r</tspan><tspan x="73.98" y="0">ådte </tspan><tspan x="0" y="14.67">ind i min </tspan><tspan class="cls-70" x="49.07" y="14.67">hæl</tspan><tspan x="69.09" y="14.67">.</tspan><tspan class="cls-73"><tspan x="0" y="26.89">The piece of glass </tspan><tspan x="0" y="39.11">ente</tspan><tspan class="cls-53" x="19.39" y="39.11">r</tspan><tspan x="22.72" y="39.11">ed in</tspan><tspan class="cls-95" x="44" y="39.11">t</tspan><tspan x="47.17" y="39.11">o my heel.</tspan></tspan></text><text class="cls-49" transform="translate(319.75 752.95) scale(0.99 1)">Min <tspan class="cls-70" x="23.41" y="0">m</tspan><tspan class="cls-96" x="34.12" y="0">a</tspan><tspan class="cls-62" x="40.68" y="0">v</tspan><tspan class="cls-50" x="46.52" y="0">e </tspan><tspan x="56.02" y="0">begynder </tspan><tspan x="0" y="14.67">at rumle.</tspan><tspan class="cls-51"><tspan x="0" y="26.89">My s</tspan><tspan class="cls-95" x="21.29" y="26.89">t</tspan><tspan x="24.46" y="26.89">omach is sta</tspan><tspan class="cls-97" x="81.77" y="26.89">r</tspan><tspan x="85.44" y="26.89">tng </tspan><tspan class="cls-55" x="0" y="39.11">t</tspan><tspan x="3.17" y="39.11">o rumbling.</tspan></tspan></text><polygon class="cls-68" points="580.28 712.42 580.28 793.89 580.04 794.13 563.8 810.44 455.55 810.44 455.55 712.42 580.28 712.42"/><g class="cls-66"><path class="cls-77" d="M545.72,720.32v-.05a1.78,1.78,0,0,0-.07-.65,1.73,1.73,0,0,0-1.15-1.17,1,1,0,1,1,.89-.5,1.77,1.77,0,1,1,.29-3.52,1.77,1.77,0,0,0-.86-3.1h0a1.74,1.74,0,0,0,1.16-.42,1.77,1.77,0,0,0-1-3.11l-54-4.43a1.78,1.78,0,0,0-1.9,1.62,1.76,1.76,0,0,0,1.61,1.9,1.72,1.72,0,0,0-1.28.42,1.74,1.74,0,0,0-.62,1.2,1.27,1.27,0,1,1,.33,2.32,1.74,1.74,0,0,0-.62,1.2,1.77,1.77,0,0,0,1.61,1.91,1.78,1.78,0,0,0-1.9,1.62v.05s0,0,0,.06v.14a1.75,1.75,0,0,0,1.61,1.7l54,4.44H544a1.7,1.7,0,0,0,1.15-.42A1.74,1.74,0,0,0,545.72,720.32Z"/></g><path class="cls-5" d="M547.33,711.76a1.77,1.77,0,0,0-1.48-1.89h0a1.77,1.77,0,0,0,1.77-1.62,1.78,1.78,0,0,0-1.61-1.91l-54-4.43a1.78,1.78,0,0,0-1.29.41,1.81,1.81,0,0,0-.62,1.21,1.77,1.77,0,0,0,1.62,1.9,1.74,1.74,0,0,0-1.29.42,1.76,1.76,0,0,0-.62,1.2,1.27,1.27,0,1,1,.33,2.32,1.77,1.77,0,0,0,1,3.11,1.76,1.76,0,0,0-1.9,1.62v.11a.66.66,0,0,0,0,.14,1.76,1.76,0,0,0,1.61,1.7l54,4.43H545a1.78,1.78,0,0,0,1.16-.42,1.74,1.74,0,0,0,.62-1.2v-.05a2,2,0,0,0-.07-.65,1.77,1.77,0,0,0-1.15-1.17,1.37,1.37,0,0,0-.4-.09,1.79,1.79,0,0,0,1.29-.41,1.77,1.77,0,1,1,.28-3.52A1.77,1.77,0,0,0,547.33,711.76Z"/><path class="cls-5" d="M494.51,704.37a.85.85,0,0,1-.91.77.84.84,0,0,1,.14-1.67A.85.85,0,0,1,494.51,704.37Z"/><path class="cls-5" d="M492,710.38a.83.83,0,0,1-.9.76.85.85,0,0,1-.77-.9.85.85,0,0,1,.91-.77A.84.84,0,0,1,492,710.38Z"/><path class="cls-5" d="M503.39,715a.84.84,0,0,1-1.67-.14.84.84,0,1,1,1.67.14Z"/><path class="cls-5" d="M499.8,711a.84.84,0,1,1-.77-.9A.83.83,0,0,1,499.8,711Z"/><path class="cls-5" d="M506.38,705.65a.84.84,0,0,1-.91.77.84.84,0,0,1,.14-1.67A.85.85,0,0,1,506.38,705.65Z"/><path class="cls-5" d="M512.37,711.74a.84.84,0,1,1-.77-.9A.84.84,0,0,1,512.37,711.74Z"/><path class="cls-5" d="M518.63,706.35a.84.84,0,0,1-1.67-.13.85.85,0,0,1,.91-.77A.83.83,0,0,1,518.63,706.35Z"/><path class="cls-5" d="M521.65,712a.84.84,0,1,1-.77-.9A.84.84,0,0,1,521.65,712Z"/><path class="cls-5" d="M524.37,716.16a.84.84,0,1,1-1.18-.13A.84.84,0,0,1,524.37,716.16Z"/><path class="cls-5" d="M530,713.45a.84.84,0,0,1-1.31,1,.84.84,0,0,1,1.31-1Z"/><path class="cls-5" d="M528.07,706.86a.84.84,0,0,1-1.3,1,.84.84,0,1,1,1.3-1Z"/><path class="cls-5" d="M538.76,707.43a.83.83,0,0,1-.13,1.17.84.84,0,1,1,.13-1.17Z"/><path class="cls-5" d="M541.5,713a.84.84,0,0,1-.13,1.18.84.84,0,0,1-1-1.3A.84.84,0,0,1,541.5,713Z"/><path class="cls-5" d="M536,717.12a.84.84,0,1,1-1.18-.13A.84.84,0,0,1,536,717.12Z"/><path class="cls-5" d="M546.69,718.16a.85.85,0,0,1-.16.17.83.83,0,0,1-1.17-.13.84.84,0,0,1,.12-1.18l.06,0A1.77,1.77,0,0,1,546.69,718.16Z"/><path class="cls-5" d="M545.61,710.85a.83.83,0,0,1-1.18-.12.86.86,0,0,1,0-1,1.07,1.07,0,0,1,.18-.19.84.84,0,0,1,1.18.13,1.74,1.74,0,0,1,.11.18h0A.82.82,0,0,1,545.61,710.85Z"/><path class="cls-5" d="M515.6,716a.84.84,0,1,1-.77-.9A.83.83,0,0,1,515.6,716Z"/><text class="cls-49" transform="translate(465.45 750.69) scale(0.99 1)">Hun har smuk<tspan class="cls-98" x="75.71" y="0">k</tspan><tspan x="81.79" y="0">e</tspan><tspan x="0" y="14.67">og s</tspan><tspan class="cls-98" x="23.16" y="14.67">t</tspan><tspan x="27.03" y="14.67">o</tspan><tspan class="cls-82" x="34" y="14.67">r</tspan><tspan class="cls-81" x="38.02" y="14.67">e </tspan><tspan class="cls-70" x="47.53" y="14.67">øjne</tspan><tspan x="70.59" y="14.67">.</tspan><tspan class="cls-51"><tspan x="0" y="26.89">She has beautiful and </tspan><tspan x="0" y="39.11">big </tspan><tspan class="cls-99" x="16.05" y="39.11">ey</tspan><tspan x="26.03" y="39.11">es.</tspan></tspan></text><polygon class="cls-48" points="435.75 473.46 435.75 554.93 419.26 571.48 311.01 571.48 311.01 473.46 435.75 473.46"/><text class="cls-69" transform="translate(317.1 512.73) scale(0.99 1)">Jeg bæ<tspan class="cls-82" x="40.28" y="0">r</tspan><tspan x="44.3" y="0">er denne</tspan><tspan x="0" y="14.67">tas</tspan><tspan class="cls-98" x="16.94" y="14.67">k</tspan><tspan x="23.02" y="14.67">e </tspan><tspan class="cls-63" x="32.52" y="14.67">o</tspan><tspan class="cls-64" x="39.4" y="14.67">v</tspan><tspan x="45.25" y="14.67">er </tspan><tspan class="cls-70" x="58.88" y="14.67">skulde</tspan><tspan class="cls-100" x="94.45" y="14.67">r</tspan><tspan class="cls-50" x="98.48" y="14.67">en</tspan><tspan x="111.7" y="14.67">.</tspan><tspan class="cls-73"><tspan x="0" y="26.89">I will t</tspan><tspan class="cls-91" x="25.46" y="26.89">r</tspan><tspan class="cls-101" x="28.98" y="26.89">y </tspan><tspan class="cls-55" x="36.3" y="26.89">t</tspan><tspan x="39.47" y="26.89">o car</tspan><tspan class="cls-91" x="61.78" y="26.89">r</tspan><tspan x="65.3" y="26.89">y this bag </tspan><tspan class="cls-52" x="0" y="39.11">o</tspan><tspan class="cls-65" x="5.63" y="39.11">v</tspan><tspan class="cls-54" x="10.46" y="39.11">er my shoulde</tspan><tspan class="cls-83" x="73.23" y="39.11">r</tspan><tspan x="76.04" y="39.11">.</tspan></tspan></text><g class="cls-66"><path class="cls-57" d="M420.93,464.11a6.35,6.35,0,0,0-7.17,5.39l-.56,4h2.07l.63-3.66a4.19,4.19,0,0,1,4.73-3.56c2.28.33,2.87,2.83,2.54,5.1l-3.54,25.14a4.19,4.19,0,1,1-8.29-1.17l2-13.87-2.14-.3-2,13.87a6.35,6.35,0,1,0,12.57,1.77l3.54-25.13C425.8,468.19,424.39,464.59,420.93,464.11Z"/></g><path class="cls-58" d="M421.81,463.86a6.36,6.36,0,0,0-7.17,5.39L414,473.8h2.18l.6-4.24a4.19,4.19,0,0,1,4.73-3.56c2.28.32,2.87,2.82,2.54,5.1l-3.54,25.14a4.19,4.19,0,0,1-8.29-1.17l2-13.87-2.14-.31-2,13.88a6.35,6.35,0,0,0,12.57,1.77l3.54-25.14C426.68,468,425.27,464.35,421.81,463.86Z"/><g class="cls-66"><path class="cls-57" d="M420.49,582.8a6.36,6.36,0,0,0-7.17,5.4l-.56,4h2.07l.63-3.66a4.19,4.19,0,0,1,4.73-3.56c2.28.32,2.87,2.83,2.54,5.1l-3.54,25.14A4.19,4.19,0,1,1,410.9,614l2-13.87-2.14-.3-2,13.87a6.35,6.35,0,1,0,12.57,1.77l3.54-25.13C425.36,586.89,424,583.29,420.49,582.8Z"/></g><path class="cls-58" d="M421.37,582.56A6.36,6.36,0,0,0,414.2,588l-.64,4.55h2.18l.6-4.25a4.19,4.19,0,0,1,4.73-3.55c2.28.32,2.87,2.82,2.54,5.1l-3.54,25.14a4.19,4.19,0,0,1-8.29-1.17l2-13.88-2.14-.3-2,13.88a6.35,6.35,0,1,0,12.57,1.77l3.54-25.14C426.24,586.65,424.83,583.05,421.37,582.56Z"/><g class="cls-66"><path class="cls-57" d="M420.49,703.1a6.35,6.35,0,0,0-7.17,5.39l-.56,4h2.07l.63-3.66a4.18,4.18,0,0,1,4.73-3.55c2.28.32,2.87,2.82,2.54,5.1l-3.54,25.13a4.19,4.19,0,1,1-8.29-1.17l2-13.87-2.14-.3-2,13.87a6.35,6.35,0,1,0,12.57,1.78l3.54-25.14C425.36,707.18,424,703.58,420.49,703.1Z"/></g><path class="cls-58" d="M421.37,702.85a6.36,6.36,0,0,0-7.17,5.4l-.64,4.54h2.18l.6-4.24a4.19,4.19,0,0,1,4.73-3.56c2.28.33,2.87,2.83,2.54,5.1l-3.54,25.14a4.19,4.19,0,1,1-8.29-1.17l2-13.87-2.14-.3-2,13.87a6.35,6.35,0,1,0,12.57,1.77l3.54-25.13C426.24,706.94,424.83,703.34,421.37,702.85Z"/><g class="cls-56"><path class="cls-57" d="M29.94,583.65A6.37,6.37,0,0,1,37.12,589l.37,3-2.26.06L35,589.35a4.19,4.19,0,0,0-4.73-3.56c-2.28.32-2.87,2.82-2.55,5.1L31.25,616a4.19,4.19,0,1,0,8.29-1.17l-2-13.87,2.14-.31,2,13.88a6.35,6.35,0,0,1-12.57,1.77l-3.55-25.14C25.08,587.74,26.49,584.14,29.94,583.65Z"/></g><path class="cls-58" d="M30.68,582.6A6.36,6.36,0,0,1,37.85,588l.64,4.55H36.31l-.6-4.24A4.19,4.19,0,0,0,31,584.74c-2.28.32-2.87,2.82-2.54,5.1L32,615a4.19,4.19,0,0,0,8.29-1.17l-2-13.87,2.14-.31,2,13.88a6.35,6.35,0,1,1-12.57,1.77L26.3,590.14C25.81,586.69,27.22,583.09,30.68,582.6Z"/><g class="cls-56"><path class="cls-57" d="M29.94,703.9a6.36,6.36,0,0,1,7.18,5.39l.37,3-2.26.06L35,709.59A4.18,4.18,0,0,0,30.25,706c-2.28.32-2.87,2.82-2.55,5.1l3.55,25.13a4.19,4.19,0,1,0,8.29-1.17l-2-13.87,2.14-.3,2,13.87a6.35,6.35,0,1,1-12.57,1.77l-3.55-25.13C25.08,708,26.49,704.38,29.94,703.9Z"/></g><path class="cls-58" d="M30.68,702.85a6.35,6.35,0,0,1,7.17,5.39l.64,4.54H36.31l-.6-4.24A4.19,4.19,0,0,0,31,705c-2.28.33-2.87,2.83-2.54,5.1L32,735.22a4.19,4.19,0,1,0,8.29-1.17l-2-13.87,2.14-.3,2,13.87a6.35,6.35,0,1,1-12.57,1.77L26.3,710.39C25.81,706.93,27.22,703.33,30.68,702.85Z"/><polygon class="cls-102" points="149.82 555.44 133.34 571.99 133.34 555.44 149.82 555.44"/><polygon class="cls-102" points="291.56 555.44 275.08 571.99 275.08 555.44 291.56 555.44"/><polygon class="cls-102" points="435.78 673.65 419.3 690.2 419.3 673.65 435.78 673.65"/><polygon class="cls-102" points="291.8 673.65 291.56 673.89 275.32 690.2 275.32 673.65 291.8 673.65"/><polygon class="cls-102" points="149.82 673.65 149.58 673.89 133.34 690.2 133.34 673.65 149.82 673.65"/><polygon class="cls-102" points="149.82 793.89 149.58 794.13 133.34 810.44 133.34 793.89 149.82 793.89"/><polygon class="cls-102" points="291.56 793.89 291.32 794.13 275.08 810.44 275.08 793.89 291.56 793.89"/><polygon class="cls-102" points="435.78 793.89 435.54 794.13 419.3 810.44 419.3 793.89 435.78 793.89"/><polygon class="cls-102" points="580.28 793.89 580.04 794.13 563.8 810.44 563.8 793.89 580.28 793.89"/><polygon class="cls-102" points="580.28 673.65 563.8 690.2 563.8 673.65 580.28 673.65"/><polygon class="cls-102" points="435.78 554.93 419.3 571.48 419.3 554.93 435.78 554.93"/><polygon class="cls-102" points="580.28 555.44 563.8 571.99 563.8 555.44 580.28 555.44"/></g></g></svg>