<svg xmlns="http://www.w3.org/2000/svg" viewBox="0 0 841.89 1259.56"><defs><style>.cls-1{fill:#dcefe6;}.cls-2{fill:#a9dac8;}.cls-3{fill:#94d2bb;}.cls-4{fill:#91bcdc;}.cls-5{fill:#85d1d7;}.cls-6{fill:#79c9ad;}.cls-7{fill:#88ca92;}.cls-8{fill:#76b0d6;}.cls-9{fill:#9cd090;}.cls-10{font-size:36px;font-family:Roboto-Bold, Roboto;font-weight:700;}.cls-10,.cls-13{fill:#231f20;}.cls-11{letter-spacing:-0.02em;}.cls-12{letter-spacing:0.01em;}.cls-13,.cls-17{font-size:18px;font-family:Roboto-Regular, Roboto;}.cls-14{letter-spacing:-0.01em;}.cls-15{letter-spacing:-0.01em;}.cls-16{letter-spacing:-0.01em;}.cls-18{letter-spacing:0.01em;}.cls-19{letter-spacing:-0.01em;}.cls-20{letter-spacing:-0.01em;}.cls-21{letter-spacing:-0.04em;}.cls-22{letter-spacing:-0.03em;}.cls-23{letter-spacing:-0.05em;}</style></defs><title>Asset 1</title><g id="Layer_2" data-name="Layer 2"><g id="Layer_1-2" data-name="Layer 1"><rect class="cls-1" y="91" width="841.89" height="1168.56"/><rect class="cls-2" width="841.89" height="91"/><rect class="cls-3" x="63.99" y="131.19" width="334.27" height="73.41" rx="12"/><rect class="cls-3" x="442.01" y="131.19" width="334.27" height="73.41" rx="12" transform="translate(1218.28 335.78) rotate(-180)"/><rect class="cls-4" x="63.99" y="244.6" width="334.27" height="73.41" rx="12"/><rect class="cls-5" x="63.99" y="356.45" width="334.27" height="73.41" rx="12"/><rect class="cls-6" x="63.99" y="468.3" width="334.27" height="73.41" rx="12"/><rect class="cls-7" x="62.1" y="580.15" width="334.27" height="73.41" rx="12"/><rect class="cls-8" x="62.1" y="692.01" width="334.27" height="73.41" rx="12"/><rect class="cls-5" x="63.99" y="803.86" width="334.27" height="73.41" rx="12"/><rect class="cls-3" x="63.99" y="915.71" width="334.27" height="73.41" rx="12"/><rect class="cls-9" x="63.99" y="1027.57" width="334.27" height="73.41" rx="12"/><rect class="cls-4" x="63.99" y="1139.42" width="334.27" height="73.41" rx="12"/><rect class="cls-5" x="442.01" y="803.86" width="334.27" height="73.41" rx="12" transform="translate(1218.28 1681.13) rotate(-180)"/><rect class="cls-8" x="442.01" y="692.01" width="334.27" height="73.41" rx="12" transform="translate(1218.28 1457.43) rotate(-180)"/><rect class="cls-7" x="442.01" y="580.15" width="334.27" height="73.41" rx="12" transform="translate(1218.28 1233.72) rotate(-180)"/><rect class="cls-6" x="442.01" y="468.3" width="334.27" height="73.41" rx="12" transform="translate(1218.28 1010.01) rotate(-180)"/><rect class="cls-5" x="440.65" y="350.72" width="334.27" height="73.41" rx="12" transform="translate(1215.57 774.85) rotate(-180)"/><rect class="cls-4" x="442.01" y="244.6" width="334.27" height="73.41" rx="12" transform="translate(1218.28 562.6) rotate(-180)"/><rect class="cls-4" x="442.01" y="1139.42" width="334.27" height="73.41" rx="12" transform="translate(1218.28 2352.25) rotate(-180)"/><rect class="cls-9" x="442.01" y="1027.57" width="334.27" height="73.41" rx="12" transform="translate(1218.28 2128.54) rotate(-180)"/><rect class="cls-3" x="442.01" y="915.71" width="334.27" height="73.41" rx="12" transform="translate(1218.28 1904.84) rotate(-180)"/><text class="cls-10" transform="translate(256 54.25)"><tspan class="cls-11">F</tspan><tspan x="19.13" y="0">aste udt</tspan><tspan class="cls-12" x="150.12" y="0">r</tspan><tspan x="163.56" y="0">yk på dansk</tspan></text><text class="cls-13" transform="translate(144.78 157.5)">Jeg har et spø<tspan class="cls-14" x="113.72" y="0">r</tspan><tspan x="119.65" y="0">gsmal.</tspan><tspan x="16.89" y="21.6">I h</tspan><tspan class="cls-15" x="36.15" y="21.6">a</tspan><tspan class="cls-16" x="45.81" y="21.6">v</tspan><tspan x="54.42" y="21.6">e a question.</tspan></text><text class="cls-13" transform="translate(534.89 156.14)">Vil du hjælpe mig?<tspan x="3.52" y="21.6">Will </tspan><tspan class="cls-15" x="37.05" y="21.6">y</tspan><tspan x="45.44" y="21.6">ou help me?</tspan></text><text class="cls-17" transform="translate(561.26 269.55)">Sel<tspan class="cls-18" x="24.58" y="0">v</tspan><tspan x="33.42" y="0">følgelig</tspan><tspan x="7.55" y="21.6">Of course</tspan></text><text class="cls-17" transform="translate(142.17 271.28)">H<tspan class="cls-15" x="12.83" y="0">v</tspan><tspan x="21.42" y="0">odan udaler du det?</tspan><tspan x="-14.27" y="21.6">How do </tspan><tspan class="cls-15" x="51.68" y="21.6">y</tspan><tspan x="60.06" y="21.6">ou p</tspan><tspan class="cls-19" x="94.81" y="21.6">r</tspan><tspan x="100.72" y="21.6">onounce it?</tspan></text><text class="cls-17" transform="translate(122.73 382.46)">H<tspan class="cls-15" x="12.83" y="0">v</tspan><tspan x="21.42" y="0">ad er fors</tspan><tspan class="cls-19" x="97.79" y="0">k</tspan><tspan x="106.73" y="0">ellen mellem?</tspan><tspan x="-19.4" y="21.6">What is the dif</tspan><tspan class="cls-20" x="95.27" y="21.6">f</tspan><tspan x="101.31" y="21.6">e</tspan><tspan class="cls-14" x="110.84" y="21.6">r</tspan><tspan x="116.77" y="21.6">ence between?</tspan></text><text class="cls-17" transform="translate(547.69 384.05)">Jeg forstår det<tspan x="1.49" y="21.6">I understand it</tspan></text><text class="cls-17" transform="translate(528.1 496.05)">Vil du sige det igen?<tspan x="-12.74" y="21.6">Will </tspan><tspan class="cls-15" x="20.79" y="21.6">y</tspan><tspan x="29.18" y="21.6">ou s</tspan><tspan class="cls-15" x="63.1" y="21.6">a</tspan><tspan x="72.76" y="21.6">y this again?</tspan></text><text class="cls-17" transform="translate(152.95 493.26)">Vil du gentage det?<tspan x="-3.58" y="21.6">Will </tspan><tspan class="cls-15" x="29.95" y="21.6">y</tspan><tspan x="38.34" y="21.6">ou </tspan><tspan class="cls-14" x="62.98" y="21.6">r</tspan><tspan x="68.91" y="21.6">epeat this?</tspan></text><text class="cls-17" transform="translate(115.23 605.11)">Må jeg spø<tspan class="cls-14" x="87.93" y="0">r</tspan><tspan x="93.85" y="0">ge på englesk?</tspan><tspan x="23.78" y="21.6">M</tspan><tspan class="cls-15" x="39.49" y="21.6">a</tspan><tspan x="49.15" y="21.6">y I ask in english?</tspan></text><text class="cls-17" transform="translate(525.23 608.05)">H<tspan class="cls-15" x="12.83" y="0">v</tspan><tspan x="21.42" y="0">ad bet</tspan><tspan class="cls-16" x="71.33" y="0">y</tspan><tspan x="79.73" y="0">der det?</tspan><tspan x="-6.95" y="21.6">What does it mean?</tspan></text><text class="cls-17" transform="translate(503.06 720.05)">Vil du taler langsomme<tspan class="cls-14" x="184.12" y="0">r</tspan><tspan x="190.05" y="0">e?</tspan><tspan x="18.04" y="21.6">Will </tspan><tspan class="cls-15" x="51.57" y="21.6">y</tspan><tspan x="59.95" y="21.6">ou s</tspan><tspan class="cls-15" x="93.88" y="21.6">a</tspan><tspan x="103.54" y="21.6">y it slowly?</tspan></text><text class="cls-17" transform="translate(168.68 716.74)">H<tspan class="cls-15" x="12.83" y="0">v</tspan><tspan x="21.42" y="0">ad sige du?</tspan><tspan x="-28.49" y="21.6">What a</tspan><tspan class="cls-14" x="27.32" y="21.6">r</tspan><tspan x="33.24" y="21.6">e </tspan><tspan class="cls-15" x="47.23" y="21.6">y</tspan><tspan x="55.62" y="21.6">ou s</tspan><tspan class="cls-15" x="89.54" y="21.6">a</tspan><tspan x="99.2" y="21.6">ying?</tspan></text><text class="cls-17" transform="translate(168.36 834.82)">Det <tspan class="cls-16" x="31.68" y="0">v</tspan><tspan x="40.28" y="0">ed jeg ik</tspan><tspan class="cls-19" x="106.3" y="0">k</tspan><tspan x="115.25" y="0">e</tspan><tspan x="14.51" y="21.6">I do</tspan><tspan class="cls-21" x="44.27" y="21.6">n</tspan><tspan x="53.5" y="21.6">’t know</tspan></text><text class="cls-17" transform="translate(495.04 832.82)">Må jeg snak<tspan class="cls-19" x="96.48" y="0">k</tspan><tspan x="105.42" y="0">e på englesk?</tspan><tspan x="24.03" y="21.6">M</tspan><tspan class="cls-15" x="39.75" y="21.6">a</tspan><tspan x="49.41" y="21.6">y I talk in english?</tspan></text><text class="cls-17" transform="translate(468.84 940.85)">Må jeg stille spø<tspan class="cls-14" x="130.18" y="0">r</tspan><tspan x="136.11" y="0">gsmal på englesk?</tspan><tspan x="15.69" y="21.6">M</tspan><tspan class="cls-15" x="31.4" y="21.6">a</tspan><tspan x="41.06" y="21.6">y I ask a question in english?</tspan></text><text class="cls-17" transform="translate(124.24 943.05)">Kan jeg sige det på englesk?<tspan x="15.26" y="21.6">Can I s</tspan><tspan class="cls-15" x="69.79" y="21.6">a</tspan><tspan x="79.45" y="21.6">y this in english?</tspan></text><text class="cls-17" transform="translate(150.14 1053.99)">Ja, det vil jeg gerne<tspan class="cls-22" x="3.25" y="21.6">Y</tspan><tspan x="13.49" y="21.6">es, I would li</tspan><tspan class="cls-19" x="111.07" y="21.6">k</tspan><tspan x="120.02" y="21.6">e </tspan><tspan class="cls-19" x="134.01" y="21.6">t</tspan><tspan x="139.72" y="21.6">o</tspan></text><text class="cls-17" transform="translate(537.15 1053.99)">H<tspan class="cls-15" x="12.83" y="0">v</tspan><tspan x="21.42" y="0">odan siger du...?</tspan><tspan x="2.21" y="21.6">How do </tspan><tspan class="cls-15" x="68.16" y="21.6">y</tspan><tspan x="76.55" y="21.6">ou s</tspan><tspan class="cls-15" x="110.47" y="21.6">a</tspan><tspan class="cls-23" x="120.13" y="21.6">y</tspan><tspan x="127.71" y="21.6">...?</tspan></text><text class="cls-17" transform="translate(131.55 1166.82)">H<tspan class="cls-15" x="12.83" y="0">v</tspan><tspan x="21.42" y="0">ad er det modsatte af..?</tspan><tspan x="4.16" y="21.6">What is the opposite of..?</tspan></text><text class="cls-17" transform="translate(568.86 1164.82)">H<tspan class="cls-15" x="12.83" y="0">v</tspan><tspan x="21.42" y="0">ad med?</tspan><tspan x="-5.34" y="21.6">What about?</tspan></text></g></g></svg>