<svg xmlns="http://www.w3.org/2000/svg" xmlns:xlink="http://www.w3.org/1999/xlink" viewBox="0 0 925.56 1380.3"><defs><style>.cls-1,.cls-2,.cls-76{fill:none;}.cls-1{clip-rule:evenodd;}.cls-3{fill:url(#linear-gradient);}.cls-4{fill:#737374;}.cls-5{fill:#9b9b9b;}.cls-6,.cls-7{font-size:12.79px;}.cls-178,.cls-24,.cls-30,.cls-34,.cls-6,.cls-60,.cls-7,.cls-71{fill:#231f20;}.cls-24,.cls-30,.cls-6,.cls-7{font-family:Roboto-Regular, Roboto;}.cls-7{letter-spacing:-0.05em;}.cls-8{letter-spacing:0em;}.cls-9{letter-spacing:-0.01em;}.cls-10{letter-spacing:-0.01em;}.cls-11{letter-spacing:-0.01em;}.cls-12{fill:#ffca06;}.cls-13{fill:url(#linear-gradient-2);}.cls-14{fill:#6d6c6d;}.cls-15{fill:url(#linear-gradient-3);}.cls-16{fill:url(#linear-gradient-4);}.cls-17{fill:url(#linear-gradient-5);}.cls-18{fill:url(#linear-gradient-6);}.cls-19{fill:url(#linear-gradient-7);}.cls-20{fill:url(#linear-gradient-8);}.cls-21{fill:url(#linear-gradient-9);}.cls-22{fill:url(#linear-gradient-10);}.cls-23{fill:url(#linear-gradient-11);}.cls-24{font-size:12.85px;}.cls-25{letter-spacing:-0.01em;}.cls-26{letter-spacing:-0.05em;}.cls-27{letter-spacing:-0.01em;}.cls-28{letter-spacing:0em;}.cls-29{letter-spacing:-0.02em;}.cls-30{font-size:12px;}.cls-31{letter-spacing:-0.01em;}.cls-32{letter-spacing:-0.01em;}.cls-33{letter-spacing:-0.01em;}.cls-34{font-size:36px;}.cls-178,.cls-34{font-family:Roboto-Bold, Roboto;}.cls-178,.cls-34,.cls-86{font-weight:700;}.cls-35{letter-spacing:-0.01em;}.cls-178,.cls-36,.cls-67{font-size:24px;}.cls-37{fill:url(#radial-gradient);}.cls-38{fill:#2b6a52;}.cls-39{fill:#676767;}.cls-40{fill:#603a17;}.cls-41{fill:#ccc;}.cls-42,.cls-59,.cls-65,.cls-66,.cls-67,.cls-72,.cls-74{fill:#fff;}.cls-42{stroke:#8d633a;}.cls-43,.cls-44,.cls-45,.cls-46,.cls-47,.cls-48,.cls-51,.cls-52,.cls-53,.cls-54,.cls-55,.cls-56{stroke:#e6e6e5;stroke-width:0.25px;}.cls-43{fill:url(#linear-gradient-12);}.cls-44{fill:url(#linear-gradient-13);}.cls-45{fill:url(#linear-gradient-14);}.cls-46{fill:url(#linear-gradient-15);}.cls-47{fill:url(#linear-gradient-16);}.cls-48{fill:url(#linear-gradient-17);}.cls-49{fill:#b4b4b4;}.cls-50{fill:url(#radial-gradient-2);}.cls-51{fill:url(#linear-gradient-18);}.cls-52{fill:url(#linear-gradient-19);}.cls-53{fill:url(#linear-gradient-20);}.cls-54{fill:url(#linear-gradient-21);}.cls-55{fill:url(#linear-gradient-22);}.cls-56{fill:url(#linear-gradient-23);}.cls-57{fill:#fae15d;}.cls-58{fill:#de3845;}.cls-59,.cls-62{font-size:26.96px;}.cls-59,.cls-60,.cls-62,.cls-64,.cls-65,.cls-66,.cls-67,.cls-71,.cls-72{font-family:Playbill;}.cls-60{font-size:32px;}.cls-61{fill:#b7d142;}.cls-62,.cls-64{fill:#fffeff;}.cls-63{fill:#109a76;}.cls-64,.cls-65{font-size:21px;}.cls-66,.cls-71{font-size:30px;}.cls-68{fill:#134677;}.cls-69{fill:#f58759;}.cls-70{fill:#b185b7;}.cls-72{font-size:26px;}.cls-73{fill:#f9f9fa;}.cls-73,.cls-74,.cls-75{fill-rule:evenodd;}.cls-75{fill:#f5f6f6;}.cls-76{stroke:#ddd;stroke-linejoin:round;stroke-width:0.26px;}.cls-77{clip-path:url(#clip-path);}.cls-78{clip-path:url(#clip-path-2);}.cls-126,.cls-134,.cls-144,.cls-168,.cls-173,.cls-79,.cls-86{font-size:16.89px;fill:#010101;}.cls-126,.cls-134,.cls-144,.cls-168,.cls-173,.cls-79{font-family:Calibri;}.cls-126,.cls-80{letter-spacing:0em;}.cls-81{letter-spacing:0em;}.cls-82{letter-spacing:-0.01em;}.cls-83{letter-spacing:0em;}.cls-84{clip-path:url(#clip-path-3);}.cls-85{clip-path:url(#clip-path-4);}.cls-86{font-family:Calibri-Bold, Calibri;}.cls-134,.cls-87{letter-spacing:0em;}.cls-88{letter-spacing:0.01em;}.cls-89{clip-path:url(#clip-path-5);}.cls-90{clip-path:url(#clip-path-6);}.cls-91{letter-spacing:-0.01em;}.cls-92{letter-spacing:0em;}.cls-93{clip-path:url(#clip-path-7);}.cls-94{clip-path:url(#clip-path-8);}.cls-95{letter-spacing:-0.02em;}.cls-96{letter-spacing:0em;}.cls-97{letter-spacing:0em;}.cls-98{letter-spacing:0em;}.cls-99{clip-path:url(#clip-path-9);}.cls-100{clip-path:url(#clip-path-10);}.cls-101{clip-path:url(#clip-path-11);}.cls-102{clip-path:url(#clip-path-12);}.cls-103{letter-spacing:0em;}.cls-104{letter-spacing:0em;}.cls-105{clip-path:url(#clip-path-13);}.cls-106{clip-path:url(#clip-path-14);}.cls-107{letter-spacing:-0.01em;}.cls-108{clip-path:url(#clip-path-15);}.cls-109{clip-path:url(#clip-path-16);}.cls-110{letter-spacing:0em;}.cls-111{clip-path:url(#clip-path-17);}.cls-112{clip-path:url(#clip-path-18);}.cls-113{letter-spacing:-0.02em;}.cls-114{clip-path:url(#clip-path-19);}.cls-115{clip-path:url(#clip-path-20);}.cls-116{clip-path:url(#clip-path-21);}.cls-117{clip-path:url(#clip-path-22);}.cls-118{clip-path:url(#clip-path-23);}.cls-119{clip-path:url(#clip-path-24);}.cls-120{clip-path:url(#clip-path-25);}.cls-121{clip-path:url(#clip-path-26);}.cls-122{clip-path:url(#clip-path-27);}.cls-123{clip-path:url(#clip-path-28);}.cls-124{clip-path:url(#clip-path-29);}.cls-125{clip-path:url(#clip-path-30);}.cls-127{letter-spacing:0em;}.cls-128{clip-path:url(#clip-path-31);}.cls-129{clip-path:url(#clip-path-32);}.cls-130{letter-spacing:0.01em;}.cls-131{letter-spacing:-0.01em;}.cls-132{clip-path:url(#clip-path-33);}.cls-133{clip-path:url(#clip-path-34);}.cls-135{letter-spacing:-0.02em;}.cls-136{letter-spacing:0em;}.cls-137{clip-path:url(#clip-path-35);}.cls-138{clip-path:url(#clip-path-36);}.cls-139{letter-spacing:0.01em;}.cls-140{letter-spacing:-0.01em;}.cls-141{letter-spacing:0em;}.cls-142{clip-path:url(#clip-path-37);}.cls-143{clip-path:url(#clip-path-38);}.cls-144{letter-spacing:0em;}.cls-145{letter-spacing:-0.01em;}.cls-146{clip-path:url(#clip-path-39);}.cls-147{clip-path:url(#clip-path-40);}.cls-148{clip-path:url(#clip-path-41);}.cls-149{clip-path:url(#clip-path-42);}.cls-150{letter-spacing:-0.03em;}.cls-151,.cls-173{letter-spacing:0em;}.cls-152{clip-path:url(#clip-path-43);}.cls-153{clip-path:url(#clip-path-44);}.cls-154{letter-spacing:0.01em;}.cls-155{clip-path:url(#clip-path-45);}.cls-156{clip-path:url(#clip-path-46);}.cls-157{letter-spacing:-0.01em;}.cls-158{clip-path:url(#clip-path-47);}.cls-159{clip-path:url(#clip-path-48);}.cls-160{clip-path:url(#clip-path-49);}.cls-161{clip-path:url(#clip-path-50);}.cls-162{letter-spacing:-0.01em;}.cls-163{letter-spacing:0em;}.cls-164{clip-path:url(#clip-path-51);}.cls-165{clip-path:url(#clip-path-52);}.cls-166{clip-path:url(#clip-path-53);}.cls-167{clip-path:url(#clip-path-54);}.cls-168{letter-spacing:-0.03em;}.cls-169{clip-path:url(#clip-path-55);}.cls-170{clip-path:url(#clip-path-56);}.cls-171{clip-path:url(#clip-path-57);}.cls-172{clip-path:url(#clip-path-58);}.cls-174{letter-spacing:-0.01em;}.cls-175{clip-path:url(#clip-path-59);}.cls-176{clip-path:url(#clip-path-60);}.cls-177{fill:#b3aaac;}.cls-179{letter-spacing:-0.06em;}.cls-180{letter-spacing:-0.09em;}.cls-181{letter-spacing:-0.01em;}.cls-182{letter-spacing:-0.06em;}.cls-183{letter-spacing:-0.04em;}.cls-184{letter-spacing:-0.06em;}</style><linearGradient id="linear-gradient" x1="349.32" y1="191.07" x2="349.32" y2="376.36" gradientUnits="userSpaceOnUse"><stop offset="0" stop-color="#fff"/><stop offset="1" stop-color="#d8d9d8"/></linearGradient><linearGradient id="linear-gradient-2" x1="135.28" y1="141.88" x2="135.28" y2="216.64" gradientUnits="userSpaceOnUse"><stop offset="0" stop-color="#6d6d6d"/><stop offset="0.14" stop-color="#fff"/><stop offset="0.41" stop-color="#fff"/><stop offset="1" stop-color="#8f8f8f"/></linearGradient><linearGradient id="linear-gradient-3" x1="176" y1="141.15" x2="176" y2="215.91" xlink:href="#linear-gradient-2"/><linearGradient id="linear-gradient-4" x1="225.85" y1="139.23" x2="225.85" y2="213.98" xlink:href="#linear-gradient-2"/><linearGradient id="linear-gradient-5" x1="273.6" y1="139.92" x2="273.6" y2="214.68" xlink:href="#linear-gradient-2"/><linearGradient id="linear-gradient-6" x1="319.28" y1="139.92" x2="319.28" y2="214.68" xlink:href="#linear-gradient-2"/><linearGradient id="linear-gradient-7" x1="367.05" y1="139.92" x2="367.05" y2="214.68" xlink:href="#linear-gradient-2"/><linearGradient id="linear-gradient-8" x1="412.34" y1="138.54" x2="412.34" y2="213.29" xlink:href="#linear-gradient-2"/><linearGradient id="linear-gradient-9" x1="458.41" y1="142" x2="458.41" y2="216.75" xlink:href="#linear-gradient-2"/><linearGradient id="linear-gradient-10" x1="512.27" y1="139.92" x2="512.27" y2="214.68" xlink:href="#linear-gradient-2"/><linearGradient id="linear-gradient-11" x1="562.77" y1="139.96" x2="562.77" y2="214.71" xlink:href="#linear-gradient-2"/><radialGradient id="radial-gradient" cx="866.25" cy="15.36" r="51.11" gradientTransform="translate(-51.48 -0.18) scale(1.06 1.13)" gradientUnits="userSpaceOnUse"><stop offset="0" stop-color="#fff"/><stop offset="1" stop-color="#c9c9c9"/></radialGradient><linearGradient id="linear-gradient-12" x1="844.34" y1="-0.39" x2="843.96" y2="5.78" gradientUnits="userSpaceOnUse"><stop offset="0.01" stop-color="#b3b3b3"/><stop offset="0.17" stop-color="#dadada"/><stop offset="0.35" stop-color="#fff"/><stop offset="0.42" stop-color="#f8f8f8"/><stop offset="0.72" stop-color="#dbdbdb"/><stop offset="1" stop-color="#828282"/></linearGradient><linearGradient id="linear-gradient-13" x1="854.54" y1="-0.39" x2="854.17" y2="5.78" xlink:href="#linear-gradient-12"/><linearGradient id="linear-gradient-14" x1="864.75" y1="-0.39" x2="864.37" y2="5.78" xlink:href="#linear-gradient-12"/><linearGradient id="linear-gradient-15" x1="874.96" y1="-0.39" x2="874.58" y2="5.78" xlink:href="#linear-gradient-12"/><linearGradient id="linear-gradient-16" x1="885.16" y1="-0.39" x2="884.79" y2="5.78" xlink:href="#linear-gradient-12"/><linearGradient id="linear-gradient-17" x1="895.37" y1="-0.39" x2="895" y2="5.78" xlink:href="#linear-gradient-12"/><radialGradient id="radial-gradient-2" cx="176.22" cy="15.89" r="51.11" xlink:href="#radial-gradient"/><linearGradient id="linear-gradient-18" x1="111.71" y1="0.2" x2="111.33" y2="6.37" xlink:href="#linear-gradient-12"/><linearGradient id="linear-gradient-19" x1="121.91" y1="0.2" x2="121.54" y2="6.37" xlink:href="#linear-gradient-12"/><linearGradient id="linear-gradient-20" x1="132.12" y1="0.2" x2="131.75" y2="6.37" xlink:href="#linear-gradient-12"/><linearGradient id="linear-gradient-21" x1="142.33" y1="0.2" x2="141.95" y2="6.37" xlink:href="#linear-gradient-12"/><linearGradient id="linear-gradient-22" x1="152.54" y1="0.2" x2="152.16" y2="6.37" xlink:href="#linear-gradient-12"/><linearGradient id="linear-gradient-23" x1="162.74" y1="0.2" x2="162.37" y2="6.37" xlink:href="#linear-gradient-12"/><clipPath id="clip-path"><polygon class="cls-1" points="639.07 200.32 771.87 200.32 771.87 113.67 639.07 113.67 639.07 200.32 639.07 200.32"/></clipPath><clipPath id="clip-path-2"><rect class="cls-2" x="639.07" y="113.67" width="132.8" height="86.65"/></clipPath><clipPath id="clip-path-3"><polygon class="cls-1" points="771.55 200.32 904.04 200.32 904.04 113.67 771.55 113.67 771.55 200.32 771.55 200.32"/></clipPath><clipPath id="clip-path-4"><rect class="cls-2" x="771.55" y="113.67" width="132.49" height="86.65"/></clipPath><clipPath id="clip-path-5"><polygon class="cls-1" points="639.07 225.66 771.87 225.66 771.87 113.67 639.07 113.67 639.07 225.66 639.07 225.66"/></clipPath><clipPath id="clip-path-6"><rect class="cls-2" x="639.07" y="113.67" width="132.8" height="111.99"/></clipPath><clipPath id="clip-path-7"><polygon class="cls-1" points="771.55 225.66 904.04 225.66 904.04 113.67 771.55 113.67 771.55 225.66 771.55 225.66"/></clipPath><clipPath id="clip-path-8"><rect class="cls-2" x="771.55" y="113.67" width="132.49" height="111.99"/></clipPath><clipPath id="clip-path-9"><polygon class="cls-1" points="639.07 250.68 771.87 250.68 771.87 113.67 639.07 113.67 639.07 250.68 639.07 250.68"/></clipPath><clipPath id="clip-path-10"><rect class="cls-2" x="639.07" y="113.67" width="132.8" height="137.02"/></clipPath><clipPath id="clip-path-11"><polygon class="cls-1" points="771.55 250.68 904.04 250.68 904.04 113.67 771.55 113.67 771.55 250.68 771.55 250.68"/></clipPath><clipPath id="clip-path-12"><rect class="cls-2" x="771.55" y="113.67" width="132.49" height="137.02"/></clipPath><clipPath id="clip-path-13"><polygon class="cls-1" points="639.07 276.02 771.87 276.02 771.87 134 639.07 134 639.07 276.02 639.07 276.02"/></clipPath><clipPath id="clip-path-14"><rect class="cls-2" x="639.07" y="134" width="132.8" height="142.02"/></clipPath><clipPath id="clip-path-15"><polygon class="cls-1" points="771.55 276.02 904.04 276.02 904.04 134 771.55 134 771.55 276.02 771.55 276.02"/></clipPath><clipPath id="clip-path-16"><rect class="cls-2" x="771.55" y="134" width="132.49" height="142.02"/></clipPath><clipPath id="clip-path-17"><polygon class="cls-1" points="639.07 301.36 771.87 301.36 771.87 159.03 639.07 159.03 639.07 301.36 639.07 301.36"/></clipPath><clipPath id="clip-path-18"><rect class="cls-2" x="639.07" y="159.03" width="132.8" height="142.33"/></clipPath><clipPath id="clip-path-19"><polygon class="cls-1" points="771.55 301.36 904.04 301.36 904.04 159.03 771.55 159.03 771.55 301.36 771.55 301.36"/></clipPath><clipPath id="clip-path-20"><rect class="cls-2" x="771.55" y="159.03" width="132.49" height="142.33"/></clipPath><clipPath id="clip-path-21"><polygon class="cls-1" points="639.07 326.7 771.87 326.7 771.87 184.37 639.07 184.37 639.07 326.7 639.07 326.7"/></clipPath><clipPath id="clip-path-22"><rect class="cls-2" x="639.07" y="184.37" width="132.8" height="142.33"/></clipPath><clipPath id="clip-path-23"><polygon class="cls-1" points="771.55 326.7 904.04 326.7 904.04 184.37 771.55 184.37 771.55 326.7 771.55 326.7"/></clipPath><clipPath id="clip-path-24"><rect class="cls-2" x="771.55" y="184.37" width="132.49" height="142.33"/></clipPath><clipPath id="clip-path-25"><polygon class="cls-1" points="639.07 352.04 771.87 352.04 771.87 209.7 639.07 209.7 639.07 352.04 639.07 352.04"/></clipPath><clipPath id="clip-path-26"><rect class="cls-2" x="639.07" y="209.7" width="132.8" height="142.33"/></clipPath><clipPath id="clip-path-27"><polygon class="cls-1" points="771.55 352.04 904.04 352.04 904.04 209.7 771.55 209.7 771.55 352.04 771.55 352.04"/></clipPath><clipPath id="clip-path-28"><rect class="cls-2" x="771.55" y="209.7" width="132.49" height="142.33"/></clipPath><clipPath id="clip-path-29"><polygon class="cls-1" points="639.07 377.06 771.87 377.06 771.87 235.04 639.07 235.04 639.07 377.06 639.07 377.06"/></clipPath><clipPath id="clip-path-30"><rect class="cls-2" x="639.07" y="235.04" width="132.8" height="142.02"/></clipPath><clipPath id="clip-path-31"><polygon class="cls-1" points="771.55 377.06 904.04 377.06 904.04 235.04 771.55 235.04 771.55 377.06 771.55 377.06"/></clipPath><clipPath id="clip-path-32"><rect class="cls-2" x="771.55" y="235.04" width="132.49" height="142.02"/></clipPath><clipPath id="clip-path-33"><polygon class="cls-1" points="639.07 402.4 771.87 402.4 771.87 260.38 639.07 260.38 639.07 402.4 639.07 402.4"/></clipPath><clipPath id="clip-path-34"><rect class="cls-2" x="639.07" y="260.38" width="132.8" height="142.02"/></clipPath><clipPath id="clip-path-35"><polygon class="cls-1" points="771.55 402.4 904.04 402.4 904.04 260.38 771.55 260.38 771.55 402.4 771.55 402.4"/></clipPath><clipPath id="clip-path-36"><rect class="cls-2" x="771.55" y="260.38" width="132.49" height="142.02"/></clipPath><clipPath id="clip-path-37"><polygon class="cls-1" points="639.07 427.74 771.87 427.74 771.87 285.41 639.07 285.41 639.07 427.74 639.07 427.74"/></clipPath><clipPath id="clip-path-38"><rect class="cls-2" x="639.07" y="285.41" width="132.8" height="142.33"/></clipPath><clipPath id="clip-path-39"><polygon class="cls-1" points="771.55 427.74 904.04 427.74 904.04 285.41 771.55 285.41 771.55 427.74 771.55 427.74"/></clipPath><clipPath id="clip-path-40"><rect class="cls-2" x="771.55" y="285.41" width="132.49" height="142.33"/></clipPath><clipPath id="clip-path-41"><polygon class="cls-1" points="639.07 453.08 771.87 453.08 771.87 310.75 639.07 310.75 639.07 453.08 639.07 453.08"/></clipPath><clipPath id="clip-path-42"><rect class="cls-2" x="639.07" y="310.75" width="132.8" height="142.33"/></clipPath><clipPath id="clip-path-43"><polygon class="cls-1" points="771.55 453.08 904.04 453.08 904.04 310.75 771.55 310.75 771.55 453.08 771.55 453.08"/></clipPath><clipPath id="clip-path-44"><rect class="cls-2" x="771.55" y="310.75" width="132.49" height="142.33"/></clipPath><clipPath id="clip-path-45"><polygon class="cls-1" points="639.07 478.42 771.87 478.42 771.87 336.08 639.07 336.08 639.07 478.42 639.07 478.42"/></clipPath><clipPath id="clip-path-46"><rect class="cls-2" x="639.07" y="336.08" width="132.8" height="142.33"/></clipPath><clipPath id="clip-path-47"><polygon class="cls-1" points="771.55 478.42 904.04 478.42 904.04 336.08 771.55 336.08 771.55 478.42 771.55 478.42"/></clipPath><clipPath id="clip-path-48"><rect class="cls-2" x="771.55" y="336.08" width="132.49" height="142.33"/></clipPath><clipPath id="clip-path-49"><polygon class="cls-1" points="639.07 503.44 771.87 503.44 771.87 361.42 639.07 361.42 639.07 503.44 639.07 503.44"/></clipPath><clipPath id="clip-path-50"><rect class="cls-2" x="639.07" y="361.42" width="132.8" height="142.02"/></clipPath><clipPath id="clip-path-51"><polygon class="cls-1" points="771.55 503.44 904.04 503.44 904.04 361.42 771.55 361.42 771.55 503.44 771.55 503.44"/></clipPath><clipPath id="clip-path-52"><rect class="cls-2" x="771.55" y="361.42" width="132.49" height="142.02"/></clipPath><clipPath id="clip-path-53"><polygon class="cls-1" points="639.07 503.44 771.87 503.44 771.87 386.76 639.07 386.76 639.07 503.44 639.07 503.44"/></clipPath><clipPath id="clip-path-54"><rect class="cls-2" x="639.07" y="386.76" width="132.8" height="116.68"/></clipPath><clipPath id="clip-path-55"><polygon class="cls-1" points="771.55 503.44 904.04 503.44 904.04 386.76 771.55 386.76 771.55 503.44 771.55 503.44"/></clipPath><clipPath id="clip-path-56"><rect class="cls-2" x="771.55" y="386.76" width="132.49" height="116.68"/></clipPath><clipPath id="clip-path-57"><polygon class="cls-1" points="639.07 503.44 771.87 503.44 771.87 411.79 639.07 411.79 639.07 503.44 639.07 503.44"/></clipPath><clipPath id="clip-path-58"><rect class="cls-2" x="639.07" y="411.79" width="132.8" height="91.66"/></clipPath><clipPath id="clip-path-59"><polygon class="cls-1" points="771.55 503.44 904.04 503.44 904.04 411.79 771.55 411.79 771.55 503.44 771.55 503.44"/></clipPath><clipPath id="clip-path-60"><rect class="cls-2" x="771.55" y="411.79" width="132.49" height="91.66"/></clipPath></defs><title>Asset 1</title><g id="Layer_2" data-name="Layer 2"><g id="Layer_1-2" data-name="Layer 1"><path class="cls-3" d="M601.55,369.45c0,3.81-6.19,6.91-13.77,6.91H110.86c-7.55,0-13.76-3.1-13.76-6.91V198c0-3.8,6.21-6.91,13.76-6.91H587.78c7.58,0,13.77,3.11,13.77,6.91Z"/><path class="cls-4" d="M592.52,382.61H106.71c-11.6,0-21-4.79-21-10.67V195.48c0-5.88,9.43-10.66,21-10.66H592.52c11.6,0,21,4.78,21,10.66V371.94C613.55,377.82,604.12,382.61,592.52,382.61ZM106.71,191.92c-3.8,0-7,1.63-7,3.56V371.94c0,2,3.14,3.56,7,3.56H592.52c3.86,0,7-1.6,7-3.56V195.48c0-2-3.15-3.56-7-3.56Z"/><rect class="cls-5" x="180.34" y="244.61" width="6.65" height="99.2"/><rect class="cls-5" x="112.75" y="248.05" width="6.65" height="97.86"/><rect class="cls-5" x="240.69" y="242.51" width="6.65" height="101.3"/><rect class="cls-5" x="324.15" y="244.61" width="6.65" height="95.76"/><rect class="cls-5" x="392.42" y="242.51" width="6.65" height="101.3"/><rect class="cls-5" x="453.6" y="246.33" width="6.65" height="95.76"/><rect class="cls-5" x="519.79" y="243.56" width="6.65" height="97.86"/><rect class="cls-5" x="577.22" y="245.31" width="6.65" height="100.6"/><rect class="cls-5" x="116.07" y="284.88" width="461.16" height="11.07"/><rect class="cls-5" x="116.63" y="334.83" width="460.6" height="11.07"/><rect class="cls-5" x="112.75" y="236.98" width="471.12" height="11.07"/><text class="cls-6" transform="translate(121.91 271.68) scale(1.04 1)">Mandag</text><text class="cls-6" transform="translate(189 271.68) scale(1.04 1)">Tirsdag</text><text class="cls-6" transform="translate(253.03 271.68) scale(1.04 1)">Onsdag</text><text class="cls-7" transform="translate(330.79 273.38) scale(1.04 1)">T<tspan class="cls-8" x="7.01" y="0">orsdag</tspan></text><text class="cls-6" transform="translate(400.17 273.38) scale(1.04 1)"><tspan class="cls-9">F</tspan><tspan class="cls-10" x="6.91" y="0">r</tspan><tspan x="11.12" y="0">edag</tspan></text><text class="cls-6" transform="translate(460.25 273.38) scale(1.04 1)">Lø<tspan class="cls-11" x="14.13" y="0">r</tspan><tspan x="18.33" y="0">dag</tspan></text><text class="cls-6" transform="translate(526.43 273.38) scale(1.04 1)">Søndag</text><rect class="cls-12" x="112.75" y="193.62" width="471.12" height="29.07"/><path class="cls-2" d="M136,159.88c-2.69,0-4.85,9.61-4.85,21.46,0,10.8,1.81,19.65,4.15,21.14V178.57h5.48C140.46,168,138.45,159.88,136,159.88Z"/><path class="cls-2" d="M135.29,202.48a1.41,1.41,0,0,0,.7.31c2.68,0,4.84-9.61,4.84-21.45,0-1,0-1.86-.06-2.77h-5.48Z"/><path class="cls-13" d="M131.14,181.34c0-11.85,2.16-21.46,4.85-21.46,2.46,0,4.47,8.16,4.78,18.69h9.73c-.16-20.31-6.89-36.69-15.21-36.69s-15.22,16.74-15.22,37.38,6.81,37.38,15.22,37.38V202.48C133,201,131.14,192.14,131.14,181.34Z"/><path class="cls-14" d="M136.68,218h-1.39c-9.31,0-16.61-17-16.61-38.76s7.3-38.76,16.61-38.76c9.14,0,16.42,16.71,16.59,38.06V180H139.42l0-1.34c-.32-11.22-2.45-16.92-3.47-17.36-1.12.53-3.39,7.7-3.39,20.09,0,11.57,2,19,3.52,20l.64.41Zm-1.39-74.75c-6.68,0-13.84,14.46-13.84,36,0,20.05,6.21,34,12.46,35.79V203.12c-2.86-3-4.15-12.84-4.15-21.78,0-8.49,1.31-22.84,6.23-22.84s5.87,13.56,6.11,18.68h7C148.65,158.66,142.45,143.27,135.29,143.27Z"/><path class="cls-2" d="M176.7,159.15c-2.68,0-4.84,9.61-4.84,21.46,0,10.8,1.81,19.65,4.15,21.14V177.84h5.47C181.18,167.31,179.17,159.15,176.7,159.15Z"/><path class="cls-2" d="M176,201.75a1.41,1.41,0,0,0,.69.31c2.69,0,4.85-9.61,4.85-21.45,0-1,0-1.86-.07-2.77H176Z"/><path class="cls-15" d="M171.86,180.61c0-11.85,2.16-21.46,4.84-21.46,2.47,0,4.48,8.16,4.78,18.69h9.74c-.16-20.31-6.89-36.69-15.21-36.69s-15.22,16.74-15.22,37.38,6.81,37.38,15.22,37.38V201.75C173.67,200.26,171.86,191.41,171.86,180.61Z"/><path class="cls-14" d="M177.4,217.29H176c-9.31,0-16.61-17-16.61-38.76s7.3-38.76,16.61-38.76c9.14,0,16.42,16.71,16.59,38.06v1.39H180.14l0-1.34c-.32-11.22-2.45-16.92-3.47-17.36-1.12.53-3.39,7.7-3.39,20.09,0,11.57,2,19,3.52,20l.64.41ZM176,142.54c-6.68,0-13.84,14.46-13.84,36,0,20.05,6.21,34,12.46,35.79V202.39c-2.86-3-4.15-12.84-4.15-21.78,0-8.49,1.31-22.84,6.22-22.84s5.88,13.56,6.12,18.68h7C189.37,157.93,183.17,142.54,176,142.54Z"/><path class="cls-2" d="M226.55,157.23c-2.68,0-4.85,9.61-4.85,21.45,0,10.8,1.81,19.65,4.16,21.15V175.92h5.47C231,165.39,229,157.23,226.55,157.23Z"/><path class="cls-2" d="M225.86,199.83a1.34,1.34,0,0,0,.69.31c2.68,0,4.84-9.61,4.84-21.46,0-.94,0-1.85-.06-2.76h-5.47Z"/><path class="cls-16" d="M221.7,178.68c0-11.84,2.17-21.45,4.85-21.45,2.47,0,4.48,8.16,4.78,18.69h9.73c-.16-20.31-6.89-36.69-15.2-36.69S210.63,156,210.63,176.61,217.44,214,225.86,214V199.83C223.51,198.33,221.7,189.48,221.7,178.68Z"/><path class="cls-14" d="M227.24,215.37h-1.38c-9.32,0-16.61-17-16.61-38.76s7.29-38.76,16.61-38.76c9.13,0,16.41,16.71,16.59,38.05v1.4H230l0-1.35c-.33-11.22-2.46-16.92-3.48-17.35-1.12.53-3.38,7.7-3.38,20.08,0,11.58,2,19,3.51,20l.64.42Zm-1.38-74.75c-6.69,0-13.85,14.46-13.85,36,0,20,6.21,34,12.46,35.78V200.47c-2.86-3-4.15-12.84-4.15-21.79,0-8.48,1.31-22.84,6.23-22.84s5.88,13.57,6.11,18.69h7C239.21,156,233,140.62,225.86,140.62Z"/><path class="cls-2" d="M274.31,157.92c-2.69,0-4.85,9.61-4.85,21.46,0,10.8,1.81,19.65,4.15,21.14V176.61h5.48C278.78,166.08,276.77,157.92,274.31,157.92Z"/><path class="cls-2" d="M273.61,200.52a1.41,1.41,0,0,0,.7.31c2.68,0,4.84-9.61,4.84-21.45,0-.95,0-1.86-.06-2.77h-5.48Z"/><path class="cls-17" d="M269.46,179.38c0-11.85,2.16-21.46,4.85-21.46,2.46,0,4.47,8.16,4.78,18.69h9.73c-.16-20.31-6.89-36.69-15.21-36.69s-15.22,16.74-15.22,37.38,6.81,37.38,15.22,37.38V200.52C271.27,199,269.46,190.18,269.46,179.38Z"/><path class="cls-14" d="M275,216.06h-1.39c-9.31,0-16.61-17-16.61-38.76s7.3-38.76,16.61-38.76c9.14,0,16.42,16.71,16.59,38.06l0,1.39H277.74l0-1.34c-.32-11.22-2.45-16.92-3.47-17.36-1.12.53-3.38,7.7-3.38,20.09,0,11.57,2,19,3.51,20l.64.41Zm-1.39-74.75c-6.68,0-13.84,14.46-13.84,36,0,20,6.21,34,12.46,35.79V201.16c-2.86-3-4.15-12.84-4.15-21.78,0-8.49,1.31-22.84,6.23-22.84s5.87,13.56,6.11,18.68h7C287,156.7,280.77,141.31,273.61,141.31Z"/><path class="cls-2" d="M320,157.92c-2.68,0-4.85,9.61-4.85,21.46,0,10.8,1.81,19.65,4.16,21.14V176.61h5.47C324.47,166.08,322.45,157.92,320,157.92Z"/><path class="cls-2" d="M319.3,200.52a1.34,1.34,0,0,0,.69.31c2.68,0,4.84-9.61,4.84-21.45,0-.95,0-1.86-.06-2.77H319.3Z"/><path class="cls-18" d="M315.14,179.38c0-11.85,2.17-21.46,4.85-21.46,2.46,0,4.48,8.16,4.78,18.69h9.73c-.16-20.31-6.89-36.69-15.2-36.69s-15.23,16.74-15.23,37.38,6.81,37.38,15.23,37.38V200.52C317,199,315.14,190.18,315.14,179.38Z"/><path class="cls-14" d="M320.68,216.06H319.3c-9.32,0-16.62-17-16.62-38.76s7.3-38.76,16.62-38.76c9.12,0,16.41,16.71,16.59,38.06V178H323.43l-.05-1.34c-.32-11.22-2.45-16.92-3.47-17.36-1.12.53-3.38,7.7-3.38,20.09,0,11.57,2,19,3.51,20l.64.41Zm-1.38-74.75c-6.69,0-13.85,14.46-13.85,36,0,20,6.21,34,12.46,35.79V201.16c-2.86-3-4.15-12.84-4.15-21.78,0-8.49,1.31-22.84,6.23-22.84s5.87,13.56,6.11,18.68h7C332.65,156.7,326.46,141.31,319.3,141.31Z"/><path class="cls-2" d="M367.75,157.92c-2.68,0-4.84,9.61-4.84,21.46,0,10.8,1.8,19.65,4.15,21.14V176.61h5.47C372.23,166.08,370.22,157.92,367.75,157.92Z"/><path class="cls-2" d="M367.06,200.52a1.38,1.38,0,0,0,.69.31c2.68,0,4.85-9.61,4.85-21.45,0-.95-.05-1.86-.07-2.77h-5.47Z"/><path class="cls-19" d="M362.91,179.38c0-11.85,2.16-21.46,4.84-21.46,2.47,0,4.48,8.16,4.78,18.69h9.73c-.16-20.31-6.89-36.69-15.2-36.69s-15.23,16.74-15.23,37.38,6.81,37.38,15.23,37.38V200.52C364.71,199,362.91,190.18,362.91,179.38Z"/><path class="cls-14" d="M368.44,216.06h-1.38c-9.31,0-16.61-17-16.61-38.76s7.3-38.76,16.61-38.76c9.13,0,16.42,16.71,16.59,38.06V178H371.19l0-1.34c-.33-11.22-2.46-16.92-3.48-17.36-1.12.53-3.38,7.7-3.38,20.09,0,11.57,2,19,3.51,20l.64.41Zm-1.38-74.75c-6.68,0-13.84,14.46-13.84,36,0,20,6.2,34,12.45,35.79V201.16c-2.86-3-4.15-12.84-4.15-21.78,0-8.49,1.31-22.84,6.23-22.84s5.87,13.56,6.11,18.68h7C380.42,156.7,374.22,141.31,367.06,141.31Z"/><path class="cls-2" d="M413,156.54c-2.68,0-4.84,9.6-4.84,21.45,0,10.8,1.81,19.65,4.15,21.15V175.22h5.47C417.52,164.7,415.51,156.54,413,156.54Z"/><path class="cls-2" d="M412.35,199.14a1.41,1.41,0,0,0,.69.31c2.69,0,4.85-9.61,4.85-21.46,0-.94,0-1.85-.07-2.77h-5.47Z"/><path class="cls-20" d="M408.2,178c0-11.85,2.16-21.45,4.84-21.45,2.47,0,4.48,8.16,4.78,18.68h9.74c-.16-20.31-6.89-36.68-15.21-36.68s-15.23,16.74-15.23,37.38,6.82,37.37,15.23,37.37V199.14C410,197.64,408.2,188.79,408.2,178Z"/><path class="cls-14" d="M413.74,214.68h-1.39c-9.31,0-16.61-17-16.61-38.76s7.3-38.76,16.61-38.76c9.13,0,16.42,16.71,16.59,38.05v1.4H416.48l0-1.35C416.12,164,414,158.34,413,157.91c-1.13.53-3.39,7.69-3.39,20.08,0,11.57,2.05,19,3.52,20l.64.41Zm-1.39-74.76c-6.68,0-13.84,14.47-13.84,36,0,20.05,6.21,34,12.46,35.78V199.77c-2.87-3-4.16-12.83-4.16-21.78,0-8.48,1.31-22.84,6.23-22.84s5.88,13.57,6.11,18.69h7C425.71,155.31,419.51,139.92,412.35,139.92Z"/><path class="cls-2" d="M459.11,160c-2.68,0-4.84,9.61-4.84,21.45,0,10.8,1.81,19.65,4.15,21.15V178.69h5.47C463.59,168.16,461.58,160,459.11,160Z"/><path class="cls-2" d="M458.42,202.6a1.41,1.41,0,0,0,.69.31c2.69,0,4.85-9.61,4.85-21.46,0-.94,0-1.85-.07-2.76h-5.47Z"/><path class="cls-21" d="M454.27,181.45c0-11.84,2.16-21.45,4.84-21.45,2.47,0,4.48,8.16,4.78,18.69h9.74c-.16-20.31-6.89-36.69-15.21-36.69s-15.22,16.74-15.22,37.38,6.81,37.37,15.22,37.37V202.6C456.08,201.1,454.27,192.25,454.27,181.45Z"/><path class="cls-14" d="M459.81,218.14h-1.39c-9.31,0-16.61-17-16.61-38.76s7.3-38.76,16.61-38.76c9.13,0,16.42,16.71,16.59,38v1.4H462.55l0-1.35c-.32-11.22-2.45-16.92-3.47-17.35-1.13.53-3.39,7.7-3.39,20.08,0,11.58,2.05,19,3.52,20l.64.42Zm-1.39-74.75c-6.68,0-13.84,14.46-13.84,36,0,20.05,6.21,34,12.46,35.78V203.23c-2.87-3-4.15-12.83-4.15-21.78,0-8.48,1.3-22.84,6.22-22.84s5.88,13.57,6.11,18.69h7C471.78,158.78,465.58,143.39,458.42,143.39Z"/><path class="cls-2" d="M513,157.92c-2.68,0-4.85,9.61-4.85,21.46,0,10.8,1.81,19.65,4.16,21.14V176.61h5.47C517.45,166.08,515.44,157.92,513,157.92Z"/><path class="cls-2" d="M512.28,200.52a1.34,1.34,0,0,0,.69.31c2.68,0,4.84-9.61,4.84-21.45,0-.95,0-1.86-.06-2.77h-5.47Z"/><path class="cls-22" d="M508.12,179.38c0-11.85,2.17-21.46,4.85-21.46,2.47,0,4.48,8.16,4.78,18.69h9.73c-.16-20.31-6.89-36.69-15.2-36.69s-15.23,16.74-15.23,37.38,6.81,37.38,15.23,37.38V200.52C509.93,199,508.12,190.18,508.12,179.38Z"/><path class="cls-14" d="M513.66,216.06h-1.38c-9.31,0-16.61-17-16.61-38.76s7.3-38.76,16.61-38.76c9.12,0,16.41,16.71,16.59,38.06V178H516.41l0-1.34c-.33-11.22-2.46-16.92-3.48-17.36-1.12.53-3.38,7.7-3.38,20.09,0,11.57,2,19,3.51,20l.64.41Zm-1.38-74.75c-6.69,0-13.85,14.46-13.85,36,0,20,6.21,34,12.46,35.79V201.16c-2.86-3-4.15-12.84-4.15-21.78,0-8.49,1.31-22.84,6.23-22.84s5.87,13.56,6.11,18.68h7C525.63,156.7,519.44,141.31,512.28,141.31Z"/><path class="cls-2" d="M563.48,158c-2.69,0-4.85,9.61-4.85,21.45,0,10.8,1.81,19.65,4.15,21.15V176.65h5.48C568,166.12,565.94,158,563.48,158Z"/><path class="cls-2" d="M562.78,200.56a1.41,1.41,0,0,0,.7.31c2.68,0,4.84-9.61,4.84-21.46,0-.94,0-1.85-.06-2.76h-5.48Z"/><path class="cls-23" d="M558.63,179.41c0-11.84,2.16-21.45,4.85-21.45,2.46,0,4.47,8.16,4.78,18.69H578c-.16-20.31-6.89-36.69-15.21-36.69s-15.22,16.74-15.22,37.38,6.81,37.37,15.22,37.37V200.56C560.44,199.06,558.63,190.21,558.63,179.41Z"/><path class="cls-14" d="M564.17,216.1h-1.39c-9.31,0-16.61-17-16.61-38.76s7.3-38.76,16.61-38.76c9.13,0,16.42,16.71,16.59,38.06V178H566.92l0-1.35c-.32-11.22-2.45-16.92-3.47-17.35-1.12.53-3.38,7.7-3.38,20.08,0,11.58,2,19,3.51,20l.64.42Zm-1.39-74.75c-6.68,0-13.84,14.46-13.84,36,0,20,6.21,34,12.46,35.78V201.2c-2.87-3-4.15-12.84-4.15-21.79,0-8.48,1.31-22.84,6.23-22.84s5.87,13.57,6.11,18.69h7C576.14,156.74,569.94,141.35,562.78,141.35Z"/><text class="cls-24" transform="translate(122.05 318.24)">Mond<tspan class="cls-25" x="32.9" y="0">a</tspan><tspan x="39.79" y="0">y</tspan></text><text class="cls-24" transform="translate(186.99 318.24)"><tspan class="cls-26">T</tspan><tspan x="7.07" y="0">uesd</tspan><tspan class="cls-27" x="34.85" y="0">a</tspan><tspan class="cls-28" x="41.75" y="0">y</tspan></text><text class="cls-24" transform="translate(247.33 318.24)"><tspan class="cls-29">W</tspan><tspan class="cls-28" x="11.21" y="0">ednesd</tspan><tspan class="cls-27" x="53.05" y="0">a</tspan><tspan x="59.95" y="0">y</tspan></text><text class="cls-30" transform="translate(330.79 318.24)">Thursd<tspan class="cls-31" x="37.4" y="0">a</tspan><tspan x="43.84" y="0">y</tspan></text><text class="cls-30" transform="translate(403.05 318.24)"><tspan class="cls-32">F</tspan><tspan x="6.48" y="0">rid</tspan><tspan class="cls-31" x="20.22" y="0">a</tspan><tspan x="26.66" y="0">y</tspan></text><rect class="cls-12" x="75.56" y="0.13" width="850" height="84.46"/><text/><text class="cls-30" transform="translate(461.19 318.24)">Satu<tspan class="cls-33" x="24.18" y="0">r</tspan><tspan x="28.13" y="0">d</tspan><tspan class="cls-31" x="34.9" y="0">a</tspan><tspan x="41.34" y="0">y</tspan></text><text class="cls-30" transform="translate(527.48 318.24)">Sund<tspan class="cls-31" x="27.12" y="0">a</tspan><tspan x="33.56" y="0">y</tspan></text><text class="cls-34" transform="translate(309.92 36.44)">Dag og da<tspan class="cls-35" x="161.67" y="0">t</tspan><tspan x="173.3" y="0">o på dansk</tspan><tspan class="cls-36"><tspan x="-309.92" y="28.8" xml:space="preserve">                                                               D</tspan><tspan class="cls-31" x="82.2" y="28.8">a</tspan><tspan x="94.89" y="28.8">y and date in danish</tspan></tspan></text><rect class="cls-37" x="833.75" y="34.29" width="70.31" height="48.21"/><rect class="cls-38" x="833.76" y="10.26" width="70.3" height="24.03"/><path class="cls-39" d="M865.77,52.54a.25.25,0,0,0-.23-.24c-1,0-1.09,0-1.09-.28V43.79a.34.34,0,0,1,.34-.33h8.27a.34.34,0,0,1,.31.33V73a.31.31,0,0,1-.27.33H866a.29.29,0,0,1-.27-.29Z"/><rect class="cls-40" x="833.76" y="5.12" width="70.25" height="5.14"/><rect class="cls-41" x="833.75" y="34.29" width="70.31" height="0.95"/><path class="cls-42" d="M845.19,7A1.11,1.11,0,1,1,843,7a1.11,1.11,0,1,1,2.22,0Z"/><path class="cls-42" d="M855.4,7a1.11,1.11,0,1,1-2.22,0,1.11,1.11,0,1,1,2.22,0Z"/><path class="cls-42" d="M865.61,7a1.11,1.11,0,1,1-2.22,0,1.11,1.11,0,1,1,2.22,0Z"/><path class="cls-42" d="M875.82,7a1.11,1.11,0,1,1-2.22,0,1.11,1.11,0,1,1,2.22,0Z"/><path class="cls-42" d="M886,7a1.11,1.11,0,1,1-2.22,0A1.11,1.11,0,1,1,886,7Z"/><path class="cls-42" d="M896.23,7a1.11,1.11,0,1,1-1.11-1.18A1.15,1.15,0,0,1,896.23,7Z"/><path class="cls-43" d="M844.65,6.53c0,.45-.14.81-.31.81h-.51c-.17,0-.31-.36-.31-.81V.94c0-.45.14-.81.31-.81h.51c.17,0,.31.36.31.81Z"/><path class="cls-44" d="M854.85,6.53c0,.45-.13.81-.3.81H854c-.17,0-.3-.36-.3-.81V.94c0-.45.13-.81.3-.81h.52c.17,0,.3.36.3.81Z"/><path class="cls-45" d="M865.06,6.53c0,.45-.14.81-.3.81h-.52c-.17,0-.3-.36-.3-.81V.94c0-.45.13-.81.3-.81h.52c.16,0,.3.36.3.81Z"/><path class="cls-46" d="M875.27,6.53c0,.45-.14.81-.31.81h-.51c-.17,0-.31-.36-.31-.81V.94c0-.45.14-.81.31-.81H875c.17,0,.31.36.31.81Z"/><path class="cls-47" d="M885.48,6.53c0,.45-.14.81-.31.81h-.51c-.17,0-.31-.36-.31-.81V.94c0-.45.14-.81.31-.81h.51c.17,0,.31.36.31.81Z"/><path class="cls-48" d="M895.68,6.53c0,.45-.13.81-.3.81h-.52c-.17,0-.3-.36-.3-.81V.94c0-.45.13-.81.3-.81h.52c.17,0,.3.36.3.81Z"/><rect class="cls-49" x="833.75" y="82.49" width="70.31" height="0.9"/><rect class="cls-50" x="101.12" y="34.88" width="70.31" height="48.21"/><rect class="cls-38" x="101.13" y="10.86" width="70.3" height="24.03"/><path class="cls-39" d="M133.14,53.14a.24.24,0,0,0-.22-.24c-1,0-1.1,0-1.1-.29V44.38a.34.34,0,0,1,.34-.32h8.28a.33.33,0,0,1,.3.32V73.59a.3.3,0,0,1-.27.32h-7.06a.29.29,0,0,1-.27-.28Z"/><rect class="cls-40" x="101.13" y="5.71" width="70.25" height="5.14"/><rect class="cls-41" x="101.12" y="34.89" width="70.31" height="0.95"/><path class="cls-42" d="M112.57,7.58a1.12,1.12,0,1,1-1.12-1.19A1.15,1.15,0,0,1,112.57,7.58Z"/><path class="cls-42" d="M122.77,7.58a1.11,1.11,0,1,1-1.11-1.19A1.15,1.15,0,0,1,122.77,7.58Z"/><path class="cls-42" d="M133,7.58a1.11,1.11,0,1,1-1.11-1.19A1.15,1.15,0,0,1,133,7.58Z"/><path class="cls-42" d="M143.19,7.58a1.11,1.11,0,1,1-1.11-1.19A1.15,1.15,0,0,1,143.19,7.58Z"/><path class="cls-42" d="M153.4,7.58a1.12,1.12,0,1,1-1.12-1.19A1.15,1.15,0,0,1,153.4,7.58Z"/><path class="cls-42" d="M163.6,7.58a1.11,1.11,0,1,1-1.11-1.19A1.15,1.15,0,0,1,163.6,7.58Z"/><path class="cls-51" d="M112,7.13c0,.45-.14.81-.31.81h-.51c-.17,0-.31-.36-.31-.81V1.53c0-.45.14-.81.31-.81h.51c.17,0,.31.36.31.81Z"/><path class="cls-52" d="M122.22,7.13c0,.45-.13.81-.3.81h-.52c-.16,0-.3-.36-.3-.81V1.53c0-.45.14-.81.3-.81h.52c.17,0,.3.36.3.81Z"/><path class="cls-53" d="M132.43,7.13c0,.45-.13.81-.3.81h-.52c-.17,0-.3-.36-.3-.81V1.53c0-.45.13-.81.3-.81h.52c.17,0,.3.36.3.81Z"/><path class="cls-54" d="M142.64,7.13c0,.45-.14.81-.3.81h-.52c-.17,0-.3-.36-.3-.81V1.53c0-.45.13-.81.3-.81h.52c.16,0,.3.36.3.81Z"/><path class="cls-55" d="M152.85,7.13c0,.45-.14.81-.31.81H152c-.17,0-.31-.36-.31-.81V1.53c0-.45.14-.81.31-.81h.51c.17,0,.31.36.31.81Z"/><path class="cls-56" d="M163.05,7.13c0,.45-.13.81-.3.81h-.51c-.17,0-.31-.36-.31-.81V1.53c0-.45.14-.81.31-.81h.51c.17,0,.3.36.3.81Z"/><rect class="cls-49" x="101.12" y="83.09" width="70.31" height="0.9"/><rect class="cls-57" x="91.3" y="560.32" width="68.11" height="58.54" rx="12"/><ellipse class="cls-58" cx="124.64" cy="577.66" rx="10.08" ry="14.16"/><text class="cls-59" transform="translate(120.62 586.96) scale(0.71 1)">1</text><text class="cls-60" transform="translate(109.26 612.15) scale(0.71 1)">en/et</text><rect class="cls-57" x="92.39" y="700.29" width="68.11" height="58.54" rx="12"/><ellipse class="cls-61" cx="126.45" cy="719.88" rx="10.08" ry="14.16"/><text class="cls-59" transform="translate(118.93 729.56) scale(0.71 1)">11</text><text class="cls-60" transform="translate(112.09 754.64) scale(0.71 1)">elleve</text><rect class="cls-57" x="176.36" y="560.32" width="68.11" height="58.54" rx="12"/><ellipse class="cls-58" cx="207.18" cy="577.66" rx="10.08" ry="14.16"/><text class="cls-59" transform="translate(203.85 585.27) scale(0.71 1)">2</text><text class="cls-60" transform="translate(202.87 616.15) scale(0.71 1)">to</text><rect class="cls-57" x="258.91" y="561.13" width="68.11" height="58.54" rx="12"/><ellipse class="cls-58" cx="292.96" cy="577.66" rx="10.08" ry="14.16"/><text class="cls-59" transform="translate(289.72 586.96) scale(0.71 1)">3</text><text class="cls-60" transform="translate(284.3 616.15) scale(0.71 1)">tre</text><rect class="cls-57" x="342.35" y="561.13" width="68.11" height="58.54" rx="12"/><ellipse class="cls-58" cx="376.41" cy="580.73" rx="10.08" ry="14.16"/><text class="cls-59" transform="translate(373.17 591.59) scale(0.71 1)">4</text><text class="cls-60" transform="translate(365.25 616.15) scale(0.71 1)">fire</text><rect class="cls-57" x="425.8" y="561.13" width="68.11" height="58.54" rx="12"/><ellipse class="cls-58" cx="460.76" cy="583.1" rx="10.08" ry="14.16"/><text class="cls-59" transform="translate(458.04 592.77) scale(0.71 1)">5</text><text class="cls-60" transform="translate(450.19 616.15) scale(0.71 1)">fem</text><rect class="cls-57" x="509.77" y="562.32" width="68.11" height="58.54" rx="12"/><ellipse class="cls-58" cx="543.82" cy="581.91" rx="10.08" ry="14.16"/><text class="cls-62" transform="translate(540.19 592.77) scale(0.71 1)">6</text><text class="cls-60" transform="translate(532.97 616.15) scale(0.71 1)">seks</text><rect class="cls-57" x="593.73" y="561.13" width="68.11" height="58.54" rx="12"/><ellipse class="cls-58" cx="627.79" cy="580.73" rx="10.08" ry="14.16"/><text class="cls-59" transform="translate(624.55 591.59) scale(0.71 1)">7</text><text class="cls-60" transform="translate(619.13 612.15) scale(0.71 1)">syv</text><rect class="cls-57" x="678.08" y="561.13" width="68.11" height="58.54" rx="12"/><ellipse class="cls-58" cx="712.14" cy="580.73" rx="10.08" ry="14.16"/><text class="cls-62" transform="translate(708.9 591.59) scale(0.71 1)">8</text><text class="cls-60" transform="translate(703.48 616.15) scale(0.71 1)">otte</text><rect class="cls-57" x="762.44" y="561.13" width="68.11" height="58.54" rx="12"/><ellipse class="cls-58" cx="796.49" cy="580.73" rx="10.08" ry="14.16"/><text class="cls-59" transform="translate(792.65 590.4) scale(0.71 1)">9</text><text class="cls-60" transform="translate(792.65 616.15) scale(0.71 1)">ni</text><ellipse class="cls-58" cx="101.46" cy="533.47" rx="21.37" ry="27.04"/><ellipse class="cls-61" cx="101.46" cy="670.29" rx="21.37" ry="30"/><ellipse class="cls-63" cx="101.46" cy="811.74" rx="21.37" ry="30"/><rect class="cls-57" x="176.36" y="700.29" width="68.11" height="58.54" rx="12"/><ellipse class="cls-61" cx="210.42" cy="719.88" rx="10.08" ry="14.16"/><text class="cls-59" transform="translate(202.87 729.56) scale(0.71 1)">12</text><text class="cls-60" transform="translate(201.29 754.64) scale(0.71 1)">tolv</text><rect class="cls-57" x="260.33" y="700.29" width="68.11" height="58.54" rx="12"/><ellipse class="cls-61" cx="294.39" cy="719.88" rx="10.08" ry="14.16"/><text class="cls-59" transform="translate(287.91 729.56) scale(0.71 1)">13</text><text class="cls-60" transform="translate(277.74 754.64) scale(0.71 1)">tretten</text><rect class="cls-57" x="343.78" y="700.29" width="68.11" height="58.54" rx="12"/><ellipse class="cls-61" cx="377.83" cy="719.88" rx="10.08" ry="14.16"/><text class="cls-59" transform="translate(370.84 729.56) scale(0.71 1)">14</text><text class="cls-60" transform="translate(359.97 752.14) scale(0.71 1)">fjorten</text><rect class="cls-57" x="423.98" y="701.47" width="68.11" height="58.54" rx="12"/><ellipse class="cls-61" cx="458.04" cy="721.07" rx="10.08" ry="14.16"/><text class="cls-59" transform="translate(451.09 730.74) scale(0.71 1)"><tspan xml:space="preserve">15   </tspan></text><text class="cls-60" transform="translate(441.25 754.64) scale(0.71 1)"><tspan xml:space="preserve">femten  </tspan></text><rect class="cls-57" x="507.95" y="701.47" width="68.11" height="58.54" rx="12"/><ellipse class="cls-61" cx="542" cy="721.07" rx="10.08" ry="14.16"/><text class="cls-59" transform="translate(535.16 730.74) scale(0.71 1)">16</text><text class="cls-60" transform="translate(523.12 756.64) scale(0.71 1)">seksten</text><rect class="cls-57" x="591.92" y="700.29" width="68.11" height="58.54" rx="12"/><ellipse class="cls-61" cx="625.97" cy="719.88" rx="10.08" ry="14.16"/><text class="cls-59" transform="translate(619.13 729.56) scale(0.71 1)">17</text><text class="cls-60" transform="translate(611.61 754.64) scale(0.71 1)">sytten</text><rect class="cls-57" x="679.51" y="701.47" width="68.11" height="58.54" rx="12"/><ellipse class="cls-61" cx="713.56" cy="721.07" rx="10.08" ry="14.16"/><text class="cls-59" transform="translate(707.45 729.56) scale(0.71 1)">18</text><text class="cls-60" transform="translate(701.52 756.64) scale(0.71 1)">atten</text><rect class="cls-57" x="763.86" y="702.66" width="68.11" height="58.54" rx="12"/><ellipse class="cls-61" cx="797.91" cy="722.25" rx="10.08" ry="14.16"/><text class="cls-59" transform="translate(790.75 731.93) scale(0.71 1)">19</text><text class="cls-60" transform="translate(783.86 758.83) scale(0.71 1)">nitten</text><rect class="cls-57" x="92.39" y="842.65" width="68.11" height="58.54" rx="12"/><ellipse class="cls-63" cx="126.45" cy="862.24" rx="10.08" ry="14.16"/><text class="cls-59" transform="translate(120.62 871.92) scale(0.71 1)">30</text><text class="cls-60" transform="translate(109.26 897.42) scale(0.71 1)">tredive</text><rect class="cls-57" x="176.36" y="842.65" width="68.11" height="58.54" rx="12"/><ellipse class="cls-63" cx="210.42" cy="862.24" rx="10.08" ry="14.16"/><text class="cls-59" transform="translate(202.87 871.92) scale(0.71 1)">40</text><text class="cls-60" transform="translate(200.33 895.42) scale(0.71 1)">fyrre</text><rect class="cls-57" x="257.09" y="842.65" width="68.11" height="58.54" rx="12"/><ellipse class="cls-63" cx="291.15" cy="862.24" rx="10.08" ry="14.16"/><text class="cls-59" transform="translate(284.91 870.66) scale(0.71 1)">50</text><text class="cls-60" transform="translate(271.69 897.42) scale(0.71 1)">halvtreds</text><rect class="cls-57" x="343.78" y="843.83" width="68.11" height="58.54" rx="12"/><ellipse class="cls-63" cx="377.83" cy="863.43" rx="10.08" ry="14.16"/><text class="cls-59" transform="translate(370.84 871.92) scale(0.71 1)">60</text><text class="cls-60" transform="translate(367.75 897.42) scale(0.71 1)">tres</text><rect class="cls-57" x="428.13" y="845.02" width="68.11" height="58.54" rx="12"/><ellipse class="cls-63" cx="462.18" cy="864.61" rx="10.08" ry="14.16"/><text class="cls-59" transform="translate(454.95 874.29) scale(0.71 1)">70</text><text class="cls-60" transform="translate(441.25 897.42) scale(0.71 1)">halvfjerds</text><rect class="cls-57" x="511.19" y="842.65" width="68.11" height="58.54" rx="12"/><ellipse class="cls-63" cx="545.24" cy="862.24" rx="10.08" ry="14.16"/><text class="cls-59" transform="translate(538.21 871.92) scale(0.71 1)">80</text><text class="cls-60" transform="translate(538.21 897.42) scale(0.71 1)">firs</text><rect class="cls-57" x="595.16" y="842.65" width="68.11" height="58.54" rx="12"/><ellipse class="cls-63" cx="629.21" cy="862.24" rx="10.08" ry="14.16"/><text class="cls-59" transform="translate(621.98 871.92) scale(0.71 1)">90</text><text class="cls-60" transform="translate(609.47 897.42) scale(0.71 1)">halvfems</text><rect class="cls-57" x="679.51" y="842.65" width="68.11" height="58.54" rx="12"/><ellipse class="cls-63" cx="713.56" cy="862.24" rx="10.08" ry="14.16"/><text class="cls-64" transform="translate(705.38 868.91) scale(0.71 1)">100</text><text class="cls-60" transform="translate(680.93 895.42) scale(0.71 1)">(et)hundred</text><rect class="cls-57" x="763.86" y="842.65" width="68.11" height="58.54" rx="12"/><ellipse class="cls-63" cx="797.91" cy="862.24" rx="10.08" ry="14.16"/><text class="cls-65" transform="translate(790.75 868.91) scale(0.71 1)">200</text><text class="cls-60" transform="translate(768.84 897.42) scale(0.71 1)">to hundred</text><rect class="cls-57" x="844.1" y="561.13" width="68.11" height="58.54" rx="12"/><ellipse class="cls-58" cx="881.39" cy="580.73" rx="10.08" ry="14.16"/><text class="cls-59" transform="translate(874.8 590.4) scale(0.71 1)">10</text><text class="cls-60" transform="translate(878.16 616.15) scale(0.71 1)">ti</text><rect class="cls-57" x="847.34" y="701.47" width="68.11" height="58.54" rx="12"/><ellipse class="cls-61" cx="881.39" cy="721.07" rx="10.08" ry="14.16"/><text class="cls-59" transform="translate(874.8 730.74) scale(0.71 1)">20</text><text class="cls-60" transform="translate(871.31 756.64) scale(0.71 1)">tyve</text><rect class="cls-57" x="844.1" y="843.83" width="68.11" height="58.54" rx="12"/><ellipse class="cls-63" cx="881.39" cy="862.24" rx="10.08" ry="14.16"/><text class="cls-64" transform="translate(870.3 868.91) scale(0.71 1)">1000</text><text/><text class="cls-60" transform="translate(851.64 896.82) scale(0.71 1)">(et)tusind</text><text class="cls-66" transform="translate(88.68 541.26) scale(0.71 1)">1-10</text><text class="cls-66" transform="translate(84.89 679.91) scale(0.71 1)">11-20</text><text class="cls-67" transform="translate(94.29 803.24) scale(0.71 1)">30-<tspan x="-7.07" y="28.8">1000</tspan></text><text class="cls-60" transform="translate(701.35 792.25) scale(0.71 1)">21-enogtyve, 22-toogtyve, 23-treogtyve</text><ellipse class="cls-68" cx="100.98" cy="1006.93" rx="21.37" ry="30"/><rect class="cls-69" x="91.92" y="1036.93" width="68.11" height="58.54" rx="12"/><ellipse class="cls-68" cx="125.98" cy="1056.52" rx="10.08" ry="14.16"/><text class="cls-59" transform="translate(122.35 1064.22) scale(0.71 1)">1</text><text class="cls-60" transform="translate(115.89 1090.47) scale(0.71 1)">første</text><rect class="cls-69" x="175.89" y="1036.93" width="68.11" height="58.54" rx="12"/><ellipse class="cls-68" cx="209.94" cy="1056.52" rx="10.08" ry="14.16"/><text class="cls-59" transform="translate(206.7 1064.22) scale(0.71 1)">2</text><text class="cls-60" transform="translate(200.81 1090.47) scale(0.71 1)">anden</text><rect class="cls-69" x="259.86" y="1036.93" width="68.11" height="58.54" rx="12"/><ellipse class="cls-68" cx="293.91" cy="1056.52" rx="10.08" ry="14.16"/><text class="cls-59" transform="translate(290.67 1066.2) scale(0.71 1)">3</text><text class="cls-60" transform="translate(284.43 1090.47) scale(0.71 1)">tredje</text><rect class="cls-69" x="343.3" y="1036.93" width="68.11" height="58.54" rx="12"/><ellipse class="cls-68" cx="377.36" cy="1056.52" rx="10.08" ry="14.16"/><text class="cls-59" transform="translate(374.12 1066.2) scale(0.71 1)">4</text><text class="cls-60" transform="translate(367.8 1090.47) scale(0.71 1)">fjerde</text><rect class="cls-69" x="425.32" y="1038.11" width="68.11" height="58.54" rx="12"/><ellipse class="cls-68" cx="459.38" cy="1057.71" rx="10.08" ry="14.16"/><text class="cls-59" transform="translate(456.21 1067.38) scale(0.71 1)">5</text><text class="cls-60" transform="translate(449.71 1090.47) scale(0.71 1)">femte</text><rect class="cls-69" x="510.72" y="1039.3" width="68.11" height="58.54" rx="12"/><ellipse class="cls-68" cx="544.77" cy="1058.89" rx="10.08" ry="14.16"/><text class="cls-59" transform="translate(541.53 1068.57) scale(0.71 1)">6</text><text class="cls-60" transform="translate(532.49 1093.13) scale(0.71 1)">sjette</text><rect class="cls-69" x="595.87" y="1040.48" width="68.11" height="58.54" rx="12"/><ellipse class="cls-68" cx="628.74" cy="1058.89" rx="10.08" ry="14.16"/><text class="cls-59" transform="translate(625.5 1069.75) scale(0.71 1)">7</text><text class="cls-60" transform="translate(611.13 1093.13) scale(0.71 1)">syvende</text><rect class="cls-69" x="680.06" y="1041.67" width="68.11" height="58.54" rx="12"/><ellipse class="cls-68" cx="713.09" cy="1062.19" rx="10.08" ry="14.16"/><text class="cls-59" transform="translate(709.85 1070.94) scale(0.71 1)">8</text><text class="cls-60" transform="translate(698.56 1096.65) scale(0.71 1)">ottende</text><rect class="cls-69" x="764.41" y="1040.48" width="68.11" height="58.54" rx="12"/><ellipse class="cls-68" cx="797.44" cy="1062.19" rx="10.08" ry="14.16"/><text class="cls-59" transform="translate(794.63 1070.94) scale(0.71 1)">9</text><text class="cls-60" transform="translate(783.38 1096.65) scale(0.71 1)">niende</text><ellipse class="cls-70" cx="100.98" cy="1154.43" rx="21.37" ry="30"/><rect class="cls-69" x="91.92" y="1185.88" width="68.11" height="58.54" rx="12"/><ellipse class="cls-70" cx="125.98" cy="1205.48" rx="10.08" ry="14.16"/><text class="cls-59" transform="translate(120.14 1215.15) scale(0.71 1)">11</text><text class="cls-60" transform="translate(113.04 1238.37) scale(0.71 1)">elvte</text><rect class="cls-69" x="175.89" y="1187.07" width="68.11" height="58.54" rx="12"/><ellipse class="cls-70" cx="209.94" cy="1206.66" rx="10.08" ry="14.16"/><text class="cls-59" transform="translate(202.4 1216.34) scale(0.71 1)">12</text><text class="cls-60" transform="translate(196.18 1240.95) scale(0.71 1)">tolvte</text><rect class="cls-69" x="259.86" y="1185.88" width="68.11" height="58.54" rx="12"/><ellipse class="cls-70" cx="293.91" cy="1205.48" rx="10.08" ry="14.16"/><text class="cls-59" transform="translate(287.44 1215.15) scale(0.71 1)">13</text><text class="cls-60" transform="translate(277.27 1238.37) scale(0.71 1)">trettende</text><rect class="cls-69" x="343.3" y="1185.88" width="68.11" height="58.54" rx="12"/><ellipse class="cls-70" cx="377.36" cy="1205.48" rx="10.08" ry="14.16"/><text class="cls-59" transform="translate(370.36 1216.34) scale(0.71 1)">14</text><text class="cls-60" transform="translate(359.5 1238.37) scale(0.71 1)">fjortende</text><rect class="cls-69" x="426.75" y="1187.07" width="68.11" height="58.54" rx="12"/><ellipse class="cls-70" cx="460.8" cy="1206.66" rx="10.08" ry="14.16"/><text class="cls-59" transform="translate(454.48 1216.34) scale(0.71 1)">15</text><text class="cls-60" transform="translate(440.78 1238.37) scale(0.71 1)">femtende</text><rect class="cls-69" x="510.72" y="1185.88" width="68.11" height="58.54" rx="12"/><ellipse class="cls-70" cx="544.77" cy="1205.48" rx="10.08" ry="14.16"/><text class="cls-59" transform="translate(537.73 1215.15) scale(0.71 1)">16</text><text class="cls-60" transform="translate(523.95 1238.37) scale(0.71 1)">sekstende</text><rect class="cls-69" x="594.69" y="1185.88" width="68.11" height="58.54" rx="12"/><ellipse class="cls-70" cx="628.74" cy="1205.48" rx="10.08" ry="14.16"/><text class="cls-59" transform="translate(623.13 1215.15) scale(0.71 1)">17</text><text class="cls-60" transform="translate(611.13 1238.37) scale(0.71 1)">syttende</text><rect class="cls-69" x="679.04" y="1187.07" width="68.11" height="58.54" rx="12"/><ellipse class="cls-70" cx="713.09" cy="1206.66" rx="10.08" ry="14.16"/><text class="cls-59" transform="translate(706.98 1215.15) scale(0.71 1)">18</text><text class="cls-60" transform="translate(696.42 1238.37) scale(0.71 1)">attende</text><rect class="cls-69" x="763.39" y="1187.07" width="68.11" height="58.54" rx="12"/><ellipse class="cls-70" cx="797.44" cy="1206.66" rx="10.08" ry="14.16"/><text class="cls-59" transform="translate(790.28 1215.15) scale(0.71 1)">19</text><text class="cls-60" transform="translate(778.15 1240.95) scale(0.71 1)">nittende</text><rect class="cls-69" x="846.87" y="1041.67" width="68.11" height="58.54" rx="12"/><ellipse class="cls-68" cx="880.92" cy="1062.19" rx="10.08" ry="14.16"/><text class="cls-60" transform="translate(865.85 1096.65) scale(0.71 1)">tiende</text><rect class="cls-69" x="846.87" y="1185.88" width="68.11" height="58.54" rx="12"/><ellipse class="cls-70" cx="880.92" cy="1205.48" rx="10.08" ry="14.16"/><text class="cls-59" transform="translate(874.33 1215.15) scale(0.71 1)">20</text><text class="cls-60" transform="translate(865.85 1238.37) scale(0.71 1)">tyvende</text><text class="cls-66" transform="translate(86.02 1013.37) scale(0.71 1)">1-10</text><text class="cls-66" transform="translate(80.62 1162.43) scale(0.71 1)">11-20</text><rect class="cls-69" x="92.95" y="1321.15" width="68.11" height="58.54" rx="12"/><ellipse class="cls-58" cx="126.62" cy="1338.38" rx="10.08" ry="14.16"/><text class="cls-59" transform="translate(120.86 1347.24) scale(0.71 1)">21</text><text class="cls-71" transform="translate(98.8 1372.8) scale(0.71 1)">enogtyvende</text><rect class="cls-69" x="176.92" y="1319.96" width="68.11" height="58.54" rx="12"/><ellipse class="cls-58" cx="210.97" cy="1339.56" rx="10.08" ry="14.16"/><text class="cls-59" transform="translate(205.28 1349.24) scale(0.71 1)">22</text><text class="cls-71" transform="translate(181.49 1372.8) scale(0.71 1)">toogtyvende</text><rect class="cls-69" x="260.88" y="1321.15" width="68.11" height="58.54" rx="12"/><ellipse class="cls-58" cx="294.94" cy="1340.74" rx="10.08" ry="14.16"/><text class="cls-59" transform="translate(289.25 1350.42) scale(0.71 1)">23</text><text class="cls-71" transform="translate(265.43 1372.8) scale(0.71 1)">treogtyvende</text><rect class="cls-69" x="344.33" y="1318.78" width="68.11" height="58.54" rx="12"/><ellipse class="cls-58" cx="378.38" cy="1338.38" rx="10.08" ry="14.16"/><text class="cls-59" transform="translate(371.27 1347.24) scale(0.71 1)">24</text><text class="cls-71" transform="translate(346.47 1372.8) scale(0.71 1)">fireogtyvende</text><rect class="cls-69" x="427.77" y="1318.78" width="68.11" height="58.54" rx="12"/><ellipse class="cls-58" cx="462.73" cy="1340.74" rx="10.08" ry="14.16"/><text class="cls-59" transform="translate(456.21 1349.24) scale(0.71 1)">25</text><text class="cls-71" transform="translate(430.27 1372.8) scale(0.71 1)">femogtyvende</text><rect class="cls-69" x="511.74" y="1319.96" width="68.11" height="58.54" rx="12"/><ellipse class="cls-58" cx="545.8" cy="1339.56" rx="10.08" ry="14.16"/><text class="cls-62" transform="translate(539.71 1349.23) scale(0.71 1)">26</text><text class="cls-71" transform="translate(511.74 1372.8) scale(0.71 1)">seksogtyvende</text><rect class="cls-69" x="595.71" y="1318.78" width="68.11" height="58.54" rx="12"/><ellipse class="cls-58" cx="629.77" cy="1338.38" rx="10.08" ry="14.16"/><text class="cls-59" transform="translate(624.08 1348.05) scale(0.71 1)">27</text><text class="cls-71" transform="translate(597.6 1369.8) scale(0.71 1)">syvogtyvende</text><rect class="cls-69" x="680.06" y="1318.78" width="68.11" height="58.54" rx="12"/><ellipse class="cls-58" cx="714.12" cy="1338.38" rx="10.08" ry="14.16"/><text class="cls-62" transform="translate(708.43 1348.05) scale(0.71 1)">28</text><text class="cls-71" transform="translate(683.66 1369.8) scale(0.71 1)">otteogtyvende</text><rect class="cls-69" x="764.41" y="1318.78" width="68.11" height="58.54" rx="12"/><ellipse class="cls-58" cx="798.47" cy="1338.38" rx="10.08" ry="14.16"/><text class="cls-59" transform="translate(792.18 1348.05) scale(0.71 1)">29</text><text class="cls-71" transform="translate(770.29 1369.8) scale(0.71 1)">niogtyvende</text><ellipse class="cls-58" cx="103.43" cy="1293.24" rx="21.37" ry="27.04"/><rect class="cls-69" x="846.08" y="1318.78" width="68.11" height="58.54" rx="12"/><ellipse class="cls-58" cx="883.37" cy="1338.38" rx="10.08" ry="14.16"/><text class="cls-59" transform="translate(876.78 1348.05) scale(0.71 1)">30</text><text class="cls-71" transform="translate(863.71 1372.8) scale(0.71 1)">tredivte</text><text class="cls-72" transform="translate(874.31 1070.94) scale(0.71 1)">10</text><text class="cls-66" transform="translate(86.86 1301.1) scale(0.71 1)">21-30</text><polygon class="cls-73" points="639.21 116.51 771.55 116.51 771.55 141.78 639.21 141.78 639.21 116.51 639.21 116.51"/><polygon class="cls-73" points="771.55 116.51 903.9 116.51 903.9 141.78 771.55 141.78 771.55 116.51 771.55 116.51"/><polygon class="cls-74" points="639.21 141.78 771.55 141.78 771.55 167.06 639.21 167.06 639.21 141.78 639.21 141.78"/><polygon class="cls-74" points="771.55 141.78 903.9 141.78 903.9 167.06 771.55 167.06 771.55 141.78 771.55 141.78"/><polygon class="cls-73" points="639.21 167.06 771.55 167.06 771.55 192.34 639.21 192.34 639.21 167.06 639.21 167.06"/><polygon class="cls-73" points="771.55 167.06 903.9 167.06 903.9 192.34 771.55 192.34 771.55 167.06 771.55 167.06"/><polygon class="cls-74" points="639.21 192.34 771.55 192.34 771.55 217.61 639.21 217.61 639.21 192.34 639.21 192.34"/><polygon class="cls-74" points="771.55 192.34 903.9 192.34 903.9 217.61 771.55 217.61 771.55 192.34 771.55 192.34"/><polygon class="cls-75" points="639.21 217.61 771.55 217.61 771.55 242.89 639.21 242.89 639.21 217.61 639.21 217.61"/><polygon class="cls-75" points="771.55 217.61 903.9 217.61 903.9 242.89 771.55 242.89 771.55 217.61 771.55 217.61"/><polygon class="cls-74" points="639.21 242.89 771.55 242.89 771.55 268.16 639.21 268.16 639.21 242.89 639.21 242.89"/><polygon class="cls-74" points="771.55 242.89 903.9 242.89 903.9 268.16 771.55 268.16 771.55 242.89 771.55 242.89"/><polygon class="cls-73" points="639.21 268.16 771.55 268.16 771.55 293.44 639.21 293.44 639.21 268.16 639.21 268.16"/><polygon class="cls-73" points="771.55 268.16 903.9 268.16 903.9 293.44 771.55 293.44 771.55 268.16 771.55 268.16"/><polygon class="cls-74" points="639.21 293.44 771.55 293.44 771.55 318.71 639.21 318.71 639.21 293.44 639.21 293.44"/><polygon class="cls-74" points="771.55 293.44 903.9 293.44 903.9 318.71 771.55 318.71 771.55 293.44 771.55 293.44"/><polygon class="cls-73" points="639.21 318.71 771.55 318.71 771.55 343.99 639.21 343.99 639.21 318.71 639.21 318.71"/><polygon class="cls-73" points="771.55 318.71 903.9 318.71 903.9 343.99 771.55 343.99 771.55 318.71 771.55 318.71"/><polygon class="cls-74" points="639.21 343.99 771.55 343.99 771.55 369.27 639.21 369.27 639.21 343.99 639.21 343.99"/><polygon class="cls-74" points="771.55 343.99 903.9 343.99 903.9 369.27 771.55 369.27 771.55 343.99 771.55 343.99"/><polygon class="cls-73" points="639.21 369.27 771.55 369.27 771.55 394.54 639.21 394.54 639.21 369.27 639.21 369.27"/><polygon class="cls-73" points="771.55 369.27 903.9 369.27 903.9 394.54 771.55 394.54 771.55 369.27 771.55 369.27"/><polygon class="cls-74" points="639.21 394.54 771.55 394.54 771.55 419.82 639.21 419.82 639.21 394.54 639.21 394.54"/><polygon class="cls-74" points="771.55 394.54 903.9 394.54 903.9 419.82 771.55 419.82 771.55 394.54 771.55 394.54"/><polygon class="cls-73" points="639.21 419.82 771.55 419.82 771.55 445.1 639.21 445.1 639.21 419.82 639.21 419.82"/><polygon class="cls-73" points="771.55 419.82 903.9 419.82 903.9 445.1 771.55 445.1 771.55 419.82 771.55 419.82"/><polygon class="cls-74" points="639.21 445.1 771.55 445.1 771.55 470.37 639.21 470.37 639.21 445.1 639.21 445.1"/><polygon class="cls-74" points="771.55 445.1 903.9 445.1 903.9 470.37 771.55 470.37 771.55 445.1 771.55 445.1"/><polygon class="cls-73" points="639.21 470.37 771.55 470.37 771.55 495.65 639.21 495.65 639.21 470.37 639.21 470.37"/><polygon class="cls-73" points="771.55 470.37 903.9 470.37 903.9 495.65 771.55 495.65 771.55 470.37 771.55 470.37"/><line class="cls-76" x1="771.55" y1="116.35" x2="771.55" y2="495.8"/><line class="cls-76" x1="639.05" y1="141.78" x2="904.06" y2="141.78"/><line class="cls-76" x1="639.05" y1="167.06" x2="904.06" y2="167.06"/><line class="cls-76" x1="639.05" y1="192.33" x2="904.06" y2="192.33"/><line class="cls-76" x1="639.05" y1="217.61" x2="904.06" y2="217.61"/><line class="cls-76" x1="639.05" y1="242.89" x2="904.06" y2="242.89"/><line class="cls-76" x1="639.05" y1="268.16" x2="904.06" y2="268.16"/><line class="cls-76" x1="639.05" y1="293.44" x2="904.06" y2="293.44"/><line class="cls-76" x1="639.05" y1="318.72" x2="904.06" y2="318.72"/><line class="cls-76" x1="639.05" y1="343.99" x2="904.06" y2="343.99"/><line class="cls-76" x1="639.05" y1="369.27" x2="904.06" y2="369.27"/><line class="cls-76" x1="639.05" y1="394.54" x2="904.06" y2="394.54"/><line class="cls-76" x1="639.05" y1="419.82" x2="904.06" y2="419.82"/><line class="cls-76" x1="639.05" y1="445.1" x2="904.06" y2="445.1"/><line class="cls-76" x1="639.05" y1="470.37" x2="904.06" y2="470.37"/><line class="cls-76" x1="639.21" y1="116.35" x2="639.21" y2="495.8"/><line class="cls-76" x1="903.9" y1="116.35" x2="903.9" y2="495.8"/><line class="cls-76" x1="639.05" y1="116.51" x2="904.06" y2="116.51"/><line class="cls-76" x1="639.05" y1="495.65" x2="904.06" y2="495.65"/><g class="cls-77"><g class="cls-78"><text class="cls-79" transform="translate(641.71 134.96)"><tspan class="cls-80">J</tspan><tspan class="cls-81" x="5.32" y="0">a</tspan><tspan class="cls-82" x="13.44" y="0">nu</tspan><tspan class="cls-81" x="30.99" y="0">a</tspan><tspan class="cls-83" x="39.12" y="0">r</tspan><tspan x="45.06" y="0">y</tspan></text></g></g><g class="cls-84"><g class="cls-85"><text class="cls-86" transform="translate(774.05 134.96)"><tspan class="cls-87">j</tspan><tspan class="cls-88" x="4.36" y="0">a</tspan><tspan x="12.8" y="0">nu</tspan><tspan class="cls-88" x="30.93" y="0">a</tspan><tspan x="39.37" y="0">r</tspan></text></g></g><g class="cls-89"><g class="cls-90"><text class="cls-79" transform="translate(641.71 160.24)"><tspan class="cls-91">F</tspan><tspan class="cls-92" x="7.51" y="0">e</tspan><tspan class="cls-82" x="15.95" y="0">b</tspan><tspan class="cls-87" x="24.72" y="0">r</tspan><tspan class="cls-82" x="30.66" y="0">u</tspan><tspan class="cls-81" x="39.43" y="0">a</tspan><tspan class="cls-83" x="47.56" y="0">r</tspan><tspan x="53.5" y="0">y</tspan></text></g></g><g class="cls-93"><g class="cls-94"><text class="cls-86" transform="translate(774.05 160.24)"><tspan class="cls-95">f</tspan><tspan class="cls-96" x="5.01" y="0">e</tspan><tspan class="cls-97" x="13.46" y="0">b</tspan><tspan class="cls-98" x="22.52" y="0">r</tspan><tspan x="28.48" y="0">u</tspan><tspan class="cls-88" x="37.54" y="0">a</tspan><tspan x="45.98" y="0">r</tspan></text></g></g><g class="cls-99"><g class="cls-100"><text class="cls-79" transform="translate(641.71 185.52)"><tspan class="cls-96">M</tspan><tspan class="cls-92" x="14.39" y="0">a</tspan><tspan class="cls-91" x="22.52" y="0">r</tspan><tspan class="cls-87" x="28.15" y="0">c</tspan><tspan x="35.35" y="0">h</tspan></text></g></g><g class="cls-101"><g class="cls-102"><text class="cls-86" transform="translate(774.05 185.52)"><tspan class="cls-103">m</tspan><tspan class="cls-88" x="13.76" y="0">a</tspan><tspan class="cls-98" x="22.2" y="0">r</tspan><tspan class="cls-104" x="28.15" y="0">t</tspan><tspan x="34.09" y="0">s</tspan></text></g></g><g class="cls-105"><g class="cls-106"><text class="cls-79" transform="translate(641.71 210.79)"><tspan class="cls-80">A</tspan><tspan class="cls-82" x="9.71" y="0">p</tspan><tspan class="cls-87" x="18.48" y="0">r</tspan><tspan class="cls-107" x="24.42" y="0">i</tspan><tspan x="28.18" y="0">l</tspan></text></g></g><g class="cls-108"><g class="cls-109"><text class="cls-86" transform="translate(774.05 210.79)"><tspan class="cls-88">a</tspan><tspan x="8.44" y="0">p</tspan><tspan class="cls-98" x="17.51" y="0">r</tspan><tspan class="cls-110" x="23.46" y="0">i</tspan><tspan x="27.54" y="0">l</tspan></text></g></g><g class="cls-111"><g class="cls-112"><text class="cls-79" transform="translate(641.71 236.07)"><tspan class="cls-96">M</tspan><tspan class="cls-113" x="14.39" y="0">a</tspan><tspan x="22.21" y="0">y</tspan></text></g></g><g class="cls-114"><g class="cls-115"><text class="cls-86" transform="translate(774.05 236.07)"><tspan class="cls-103">m</tspan><tspan class="cls-88" x="13.76" y="0">a</tspan><tspan x="22.2" y="0">j</tspan></text></g></g><g class="cls-116"><g class="cls-117"><text class="cls-79" transform="translate(641.71 261.34)"><tspan class="cls-80">J</tspan><tspan class="cls-82" x="5.32" y="0">un</tspan><tspan x="22.87" y="0">e</tspan></text></g></g><g class="cls-118"><g class="cls-119"><text class="cls-86" transform="translate(774.05 261.34)"><tspan class="cls-87">j</tspan><tspan x="4.36" y="0">uni</tspan></text></g></g><g class="cls-120"><g class="cls-121"><text class="cls-79" transform="translate(641.71 286.63)"><tspan class="cls-80">J</tspan><tspan class="cls-82" x="5.32" y="0">u</tspan><tspan class="cls-107" x="14.09" y="0">l</tspan><tspan x="17.85" y="0">y</tspan></text></g></g><g class="cls-122"><g class="cls-123"><text class="cls-86" transform="translate(774.05 286.63)"><tspan class="cls-87">j</tspan><tspan x="4.36" y="0">u</tspan><tspan class="cls-110" x="13.43" y="0">l</tspan><tspan x="17.51" y="0">i</tspan></text></g></g><g class="cls-124"><g class="cls-125"><text class="cls-126" transform="translate(641.71 311.9)">A<tspan class="cls-82" x="9.71" y="0">u</tspan><tspan class="cls-107" x="18.48" y="0">g</tspan><tspan class="cls-82" x="26.31" y="0">u</tspan><tspan class="cls-95" x="35.09" y="0">s</tspan><tspan class="cls-127" x="41.36" y="0">t</tspan></text></g></g><g class="cls-128"><g class="cls-129"><text class="cls-86" transform="translate(774.05 311.9)"><tspan class="cls-88">a</tspan><tspan x="8.44" y="0">u</tspan><tspan class="cls-130" x="17.51" y="0">g</tspan><tspan x="25.63" y="0">u</tspan><tspan class="cls-131" x="34.7" y="0">s</tspan><tspan x="41.27" y="0">t</tspan></text></g></g><g class="cls-132"><g class="cls-133"><text class="cls-134" transform="translate(641.71 337.18)">S<tspan class="cls-92" x="7.81" y="0">e</tspan><tspan class="cls-82" x="16.25" y="0">p</tspan><tspan class="cls-135" x="25.02" y="0">t</tspan><tspan class="cls-81" x="30.35" y="0">e</tspan><tspan class="cls-136" x="38.78" y="0">m</tspan><tspan class="cls-82" x="52.24" y="0">b</tspan><tspan class="cls-81" x="61.02" y="0">e</tspan><tspan class="cls-97" x="69.46" y="0">r</tspan></text></g></g><g class="cls-137"><g class="cls-138"><text class="cls-86" transform="translate(774.05 337.18)"><tspan class="cls-139">s</tspan><tspan class="cls-98" x="6.87" y="0">e</tspan><tspan x="15.33" y="0">p</tspan><tspan class="cls-140" x="24.39" y="0">t</tspan><tspan class="cls-96" x="30.03" y="0">e</tspan><tspan class="cls-141" x="38.48" y="0">m</tspan><tspan x="52.24" y="0">b</tspan><tspan class="cls-98" x="61.31" y="0">e</tspan><tspan x="69.76" y="0">r</tspan></text></g></g><g class="cls-142"><g class="cls-143"><text class="cls-144" transform="translate(641.71 362.45)">O<tspan class="cls-87" x="11.25" y="0">c</tspan><tspan class="cls-135" x="18.45" y="0">t</tspan><tspan class="cls-145" x="23.77" y="0">o</tspan><tspan class="cls-82" x="32.54" y="0">b</tspan><tspan class="cls-81" x="41.31" y="0">e</tspan><tspan class="cls-97" x="49.75" y="0">r</tspan></text></g></g><g class="cls-146"><g class="cls-147"><text class="cls-86" transform="translate(774.05 362.45)">o<tspan class="cls-141" x="9.08" y="0">k</tspan><tspan class="cls-140" x="17.21" y="0">t</tspan><tspan x="22.84" y="0">ob</tspan><tspan class="cls-98" x="40.99" y="0">e</tspan><tspan x="49.44" y="0">r</tspan></text></g></g><g class="cls-148"><g class="cls-149"><text class="cls-79" transform="translate(641.71 387.72)"><tspan class="cls-81">N</tspan><tspan class="cls-145" x="10.94" y="0">o</tspan><tspan class="cls-150" x="19.71" y="0">v</tspan><tspan class="cls-92" x="26.92" y="0">e</tspan><tspan class="cls-151" x="35.36" y="0">m</tspan><tspan class="cls-82" x="48.82" y="0">b</tspan><tspan class="cls-92" x="57.59" y="0">e</tspan><tspan x="66.03" y="0">r</tspan></text></g></g><g class="cls-152"><g class="cls-153"><text class="cls-86" transform="translate(774.05 387.72)">no<tspan class="cls-154" x="18.15" y="0">v</tspan><tspan class="cls-98" x="26.27" y="0">e</tspan><tspan class="cls-103" x="34.73" y="0">m</tspan><tspan class="cls-97" x="48.49" y="0">b</tspan><tspan class="cls-96" x="57.55" y="0">e</tspan><tspan x="66" y="0">r</tspan></text></g></g><g class="cls-155"><g class="cls-156"><text class="cls-79" transform="translate(641.71 413)"><tspan class="cls-80">D</tspan><tspan class="cls-92" x="10.33" y="0">e</tspan><tspan class="cls-87" x="18.76" y="0">c</tspan><tspan class="cls-81" x="25.96" y="0">e</tspan><tspan class="cls-136" x="34.4" y="0">m</tspan><tspan class="cls-157" x="47.86" y="0">b</tspan><tspan class="cls-92" x="56.63" y="0">e</tspan><tspan x="65.07" y="0">r</tspan></text></g></g><g class="cls-158"><g class="cls-159"><text class="cls-86" transform="translate(774.05 413)">d<tspan class="cls-98" x="9.07" y="0">e</tspan><tspan class="cls-130" x="17.52" y="0">c</tspan><tspan class="cls-98" x="24.7" y="0">e</tspan><tspan class="cls-103" x="33.16" y="0">m</tspan><tspan x="46.92" y="0">b</tspan><tspan class="cls-98" x="55.98" y="0">e</tspan><tspan x="64.43" y="0">r</tspan></text></g></g><g class="cls-160"><g class="cls-161"><text class="cls-79" transform="translate(641.71 438.28)"><tspan class="cls-151">m</tspan><tspan class="cls-162" x="13.46" y="0">o</tspan><tspan class="cls-82" x="22.23" y="0">n</tspan><tspan class="cls-163" x="31.01" y="0">t</tspan><tspan x="36.65" y="0">h</tspan></text></g></g><g class="cls-164"><g class="cls-165"><text class="cls-86" transform="translate(774.05 438.28)"><tspan class="cls-103">m</tspan><tspan class="cls-88" x="13.76" y="0">å</tspan><tspan class="cls-97" x="22.2" y="0">n</tspan><tspan class="cls-96" x="31.26" y="0">e</tspan><tspan x="39.72" y="0">d</tspan></text></g></g><g class="cls-166"><g class="cls-167"><text class="cls-168" transform="translate(641.71 463.55)">y<tspan class="cls-81" x="7.21" y="0">ea</tspan><tspan class="cls-97" x="23.77" y="0">r</tspan></text></g></g><g class="cls-169"><g class="cls-170"><text class="cls-86" transform="translate(774.05 463.55)"><tspan class="cls-88">å</tspan><tspan x="8.44" y="0">r</tspan></text></g></g><g class="cls-171"><g class="cls-172"><text class="cls-173" transform="translate(641.71 488.82)">m<tspan class="cls-162" x="13.46" y="0">o</tspan><tspan class="cls-82" x="22.23" y="0">n</tspan><tspan class="cls-163" x="31.01" y="0">t</tspan><tspan class="cls-82" x="36.65" y="0">h</tspan><tspan class="cls-174" x="45.42" y="0">l</tspan><tspan class="cls-97" x="49.18" y="0">y</tspan></text></g></g><g class="cls-175"><g class="cls-176"><text class="cls-86" transform="translate(774.05 488.82)"><tspan class="cls-103">m</tspan><tspan class="cls-88" x="13.76" y="0">å</tspan><tspan class="cls-97" x="22.2" y="0">n</tspan><tspan class="cls-96" x="31.26" y="0">e</tspan><tspan x="39.72" y="0">d</tspan><tspan class="cls-110" x="48.78" y="0">li</tspan><tspan x="56.94" y="0">g</tspan></text></g></g><rect class="cls-177" x="124.86" y="520.33" width="790.59" height="26.28"/><rect class="cls-177" x="123.15" y="993.79" width="790.59" height="26.28"/><text class="cls-178" transform="translate(409.5 1017.93) scale(0.71 1)"><tspan class="cls-179">T</tspan><tspan x="13.44" y="0">AL </tspan><tspan class="cls-180" x="48.56" y="0">P</tspan><tspan x="61.96" y="0">Å </tspan><tspan class="cls-181" x="84.08" y="0">D</tspan><tspan x="99.43" y="0">ANSK - ORDENS</tspan><tspan class="cls-182" x="276.46" y="0">T</tspan><tspan x="289.9" y="0">AL</tspan></text><text class="cls-178" transform="translate(403.46 540.76) scale(0.71 1)"><tspan class="cls-179">T</tspan><tspan x="13.44" y="0">AL </tspan><tspan class="cls-180" x="48.56" y="0">P</tspan><tspan x="61.96" y="0">Å </tspan><tspan class="cls-181" x="84.08" y="0">D</tspan><tspan x="99.43" y="0">ANSK - GRUN</tspan><tspan class="cls-183" x="248.18" y="0">D</tspan><tspan class="cls-184" x="262.78" y="0">T</tspan><tspan x="276.22" y="0">AL</tspan></text><text class="cls-178" transform="translate(107.58 431.97)">H<tspan class="cls-31" x="16.96" y="0">v</tspan><tspan x="28.91" y="0">ad dag og da</tspan><tspan class="cls-35" x="166.98" y="0">t</tspan><tspan x="174.74" y="0">o er det i dag?</tspan><tspan x="0" y="28.8">I dag er det Mandag den 15 Januar 2017.</tspan></text></g></g></svg>