<svg xmlns="http://www.w3.org/2000/svg" xmlns:xlink="http://www.w3.org/1999/xlink" viewBox="0 0 850 1404.5"><defs><style>.cls-1,.cls-2,.cls-77{fill:none;}.cls-1{clip-rule:evenodd;}.cls-3{fill:#ffe6a7;}.cls-32,.cls-4,.cls-41,.cls-57,.cls-60,.cls-74,.cls-76{fill:#fff;}.cls-5{fill:#737374;}.cls-6{fill:#9b9b9b;}.cls-7,.cls-8{font-size:12.79px;}.cls-15,.cls-178,.cls-21,.cls-25,.cls-42,.cls-64,.cls-7,.cls-8{fill:#231f20;}.cls-15,.cls-21,.cls-42,.cls-64,.cls-7,.cls-8{font-family:Roboto-Regular, Roboto;}.cls-8{letter-spacing:-0.05em;}.cls-9{letter-spacing:0em;}.cls-10{letter-spacing:-0.01em;}.cls-11{letter-spacing:-0.01em;}.cls-12{letter-spacing:-0.01em;}.cls-13{fill:#ffd34f;}.cls-14{fill:#6d6c6d;}.cls-15{font-size:12.85px;}.cls-16{letter-spacing:-0.01em;}.cls-17{letter-spacing:-0.05em;}.cls-18{letter-spacing:-0.01em;}.cls-19{letter-spacing:0em;}.cls-20{letter-spacing:-0.02em;}.cls-21{font-size:12px;}.cls-22{letter-spacing:-0.01em;}.cls-23{letter-spacing:-0.01em;}.cls-24{letter-spacing:-0.01em;}.cls-25{font-size:36px;}.cls-178,.cls-25{font-family:Roboto-Bold, Roboto;}.cls-178,.cls-25,.cls-87{font-weight:700;}.cls-26{letter-spacing:-0.01em;}.cls-178,.cls-27{font-size:24px;}.cls-28{fill:#109a76;}.cls-29{fill:#676767;}.cls-30{fill:#603a17;}.cls-31{fill:#ccc;}.cls-32{stroke:#8d633a;}.cls-33,.cls-34,.cls-35,.cls-36,.cls-37,.cls-38{stroke:#e6e6e5;stroke-width:0.25px;}.cls-33{fill:url(#linear-gradient);}.cls-34{fill:url(#linear-gradient-2);}.cls-35{fill:url(#linear-gradient-3);}.cls-36{fill:url(#linear-gradient-4);}.cls-37{fill:url(#linear-gradient-5);}.cls-38{fill:url(#linear-gradient-6);}.cls-39{fill:#b4b4b4;}.cls-40{fill:#de3845;}.cls-41,.cls-71{font-size:26.96px;}.cls-41,.cls-56,.cls-57,.cls-60,.cls-71,.cls-74{font-family:Playbill;}.cls-42{font-size:18px;}.cls-43{fill:#b7d142;}.cls-44{letter-spacing:-0.01em;}.cls-45{letter-spacing:-0.01em;}.cls-46{letter-spacing:-0.01em;}.cls-47{letter-spacing:-0.01em;}.cls-48{letter-spacing:0em;}.cls-49{letter-spacing:-0.01em;}.cls-50{letter-spacing:0.02em;}.cls-51{letter-spacing:-0.01em;}.cls-52{letter-spacing:0.01em;}.cls-53{letter-spacing:0em;}.cls-54{letter-spacing:0.01em;}.cls-55{letter-spacing:0em;}.cls-56,.cls-57{font-size:21px;}.cls-56,.cls-71{fill:#fffeff;}.cls-58{letter-spacing:-0.01em;}.cls-59{letter-spacing:0em;}.cls-60{font-size:28px;}.cls-61{letter-spacing:-0.01em;}.cls-62{fill:#134677;}.cls-63{fill:#b185b7;}.cls-64{font-size:14px;}.cls-65{letter-spacing:-0.01em;}.cls-66{letter-spacing:-0.01em;}.cls-67{letter-spacing:-0.01em;}.cls-68{letter-spacing:-0.01em;}.cls-69{letter-spacing:-0.01em;}.cls-70{letter-spacing:0em;}.cls-72{letter-spacing:-0.01em;}.cls-73{letter-spacing:-0.01em;}.cls-74{font-size:26px;}.cls-75{fill:#fff1d0;}.cls-75,.cls-76{fill-rule:evenodd;}.cls-77{stroke:#ddd;stroke-linejoin:round;stroke-width:0.26px;}.cls-78{clip-path:url(#clip-path);}.cls-79{clip-path:url(#clip-path-2);}.cls-127,.cls-135,.cls-145,.cls-169,.cls-174,.cls-80,.cls-87{font-size:16.89px;fill:#010101;}.cls-127,.cls-135,.cls-145,.cls-169,.cls-174,.cls-80{font-family:Calibri;}.cls-127,.cls-81{letter-spacing:0em;}.cls-82{letter-spacing:0em;}.cls-83{letter-spacing:-0.01em;}.cls-84{letter-spacing:0em;}.cls-85{clip-path:url(#clip-path-3);}.cls-86{clip-path:url(#clip-path-4);}.cls-87{font-family:Calibri-Bold, Calibri;}.cls-135,.cls-88{letter-spacing:0em;}.cls-89{letter-spacing:0.01em;}.cls-90{clip-path:url(#clip-path-5);}.cls-91{clip-path:url(#clip-path-6);}.cls-92{letter-spacing:-0.01em;}.cls-93{letter-spacing:0em;}.cls-94{clip-path:url(#clip-path-7);}.cls-95{clip-path:url(#clip-path-8);}.cls-96{letter-spacing:-0.02em;}.cls-97{letter-spacing:0em;}.cls-98{letter-spacing:0em;}.cls-99{letter-spacing:0em;}.cls-100{clip-path:url(#clip-path-9);}.cls-101{clip-path:url(#clip-path-10);}.cls-102{clip-path:url(#clip-path-11);}.cls-103{clip-path:url(#clip-path-12);}.cls-104{letter-spacing:0em;}.cls-105{letter-spacing:0em;}.cls-106{clip-path:url(#clip-path-13);}.cls-107{clip-path:url(#clip-path-14);}.cls-108{letter-spacing:-0.01em;}.cls-109{clip-path:url(#clip-path-15);}.cls-110{clip-path:url(#clip-path-16);}.cls-111{letter-spacing:0em;}.cls-112{clip-path:url(#clip-path-17);}.cls-113{clip-path:url(#clip-path-18);}.cls-114{letter-spacing:-0.02em;}.cls-115{clip-path:url(#clip-path-19);}.cls-116{clip-path:url(#clip-path-20);}.cls-117{clip-path:url(#clip-path-21);}.cls-118{clip-path:url(#clip-path-22);}.cls-119{clip-path:url(#clip-path-23);}.cls-120{clip-path:url(#clip-path-24);}.cls-121{clip-path:url(#clip-path-25);}.cls-122{clip-path:url(#clip-path-26);}.cls-123{clip-path:url(#clip-path-27);}.cls-124{clip-path:url(#clip-path-28);}.cls-125{clip-path:url(#clip-path-29);}.cls-126{clip-path:url(#clip-path-30);}.cls-128{letter-spacing:0em;}.cls-129{clip-path:url(#clip-path-31);}.cls-130{clip-path:url(#clip-path-32);}.cls-131{letter-spacing:0.01em;}.cls-132{letter-spacing:-0.01em;}.cls-133{clip-path:url(#clip-path-33);}.cls-134{clip-path:url(#clip-path-34);}.cls-136{letter-spacing:-0.02em;}.cls-137{letter-spacing:0em;}.cls-138{clip-path:url(#clip-path-35);}.cls-139{clip-path:url(#clip-path-36);}.cls-140{letter-spacing:0.01em;}.cls-141{letter-spacing:-0.01em;}.cls-142{letter-spacing:0em;}.cls-143{clip-path:url(#clip-path-37);}.cls-144{clip-path:url(#clip-path-38);}.cls-145{letter-spacing:0em;}.cls-146{letter-spacing:-0.01em;}.cls-147{clip-path:url(#clip-path-39);}.cls-148{clip-path:url(#clip-path-40);}.cls-149{clip-path:url(#clip-path-41);}.cls-150{clip-path:url(#clip-path-42);}.cls-151{letter-spacing:-0.03em;}.cls-152,.cls-174{letter-spacing:0em;}.cls-153{clip-path:url(#clip-path-43);}.cls-154{clip-path:url(#clip-path-44);}.cls-155{letter-spacing:0.01em;}.cls-156{clip-path:url(#clip-path-45);}.cls-157{clip-path:url(#clip-path-46);}.cls-158{letter-spacing:-0.01em;}.cls-159{clip-path:url(#clip-path-47);}.cls-160{clip-path:url(#clip-path-48);}.cls-161{clip-path:url(#clip-path-49);}.cls-162{clip-path:url(#clip-path-50);}.cls-163{letter-spacing:-0.01em;}.cls-164{letter-spacing:0em;}.cls-165{clip-path:url(#clip-path-51);}.cls-166{clip-path:url(#clip-path-52);}.cls-167{clip-path:url(#clip-path-53);}.cls-168{clip-path:url(#clip-path-54);}.cls-169{letter-spacing:-0.03em;}.cls-170{clip-path:url(#clip-path-55);}.cls-171{clip-path:url(#clip-path-56);}.cls-172{clip-path:url(#clip-path-57);}.cls-173{clip-path:url(#clip-path-58);}.cls-175{letter-spacing:-0.01em;}.cls-176{clip-path:url(#clip-path-59);}.cls-177{clip-path:url(#clip-path-60);}.cls-179{letter-spacing:-0.06em;}.cls-180{letter-spacing:-0.09em;}.cls-181{letter-spacing:-0.01em;}.cls-182{letter-spacing:-0.06em;}.cls-183{letter-spacing:-0.04em;}.cls-184{letter-spacing:-0.06em;}</style><linearGradient id="linear-gradient" x1="769.36" y1="1.82" x2="769.01" y2="7.59" gradientUnits="userSpaceOnUse"><stop offset="0.01" stop-color="#b3b3b3"/><stop offset="0.17" stop-color="#dadada"/><stop offset="0.35" stop-color="#fff"/><stop offset="0.42" stop-color="#f8f8f8"/><stop offset="0.72" stop-color="#dbdbdb"/><stop offset="1" stop-color="#828282"/></linearGradient><linearGradient id="linear-gradient-2" x1="778.9" y1="1.82" x2="778.55" y2="7.59" xlink:href="#linear-gradient"/><linearGradient id="linear-gradient-3" x1="788.45" y1="1.82" x2="788.1" y2="7.59" xlink:href="#linear-gradient"/><linearGradient id="linear-gradient-4" x1="797.99" y1="1.82" x2="797.64" y2="7.59" xlink:href="#linear-gradient"/><linearGradient id="linear-gradient-5" x1="807.53" y1="1.82" x2="807.18" y2="7.59" xlink:href="#linear-gradient"/><linearGradient id="linear-gradient-6" x1="817.08" y1="1.82" x2="816.73" y2="7.59" xlink:href="#linear-gradient"/><clipPath id="clip-path"><polygon class="cls-1" points="563.5 200.19 696.3 200.19 696.3 113.54 563.5 113.54 563.5 200.19 563.5 200.19"/></clipPath><clipPath id="clip-path-2"><rect class="cls-2" x="563.51" y="113.54" width="132.8" height="86.65"/></clipPath><clipPath id="clip-path-3"><polygon class="cls-1" points="695.99 200.19 828.48 200.19 828.48 113.54 695.99 113.54 695.99 200.19 695.99 200.19"/></clipPath><clipPath id="clip-path-4"><rect class="cls-2" x="695.99" y="113.54" width="132.49" height="86.65"/></clipPath><clipPath id="clip-path-5"><polygon class="cls-1" points="563.5 225.53 696.3 225.53 696.3 113.54 563.5 113.54 563.5 225.53 563.5 225.53"/></clipPath><clipPath id="clip-path-6"><rect class="cls-2" x="563.51" y="113.54" width="132.8" height="111.99"/></clipPath><clipPath id="clip-path-7"><polygon class="cls-1" points="695.99 225.53 828.48 225.53 828.48 113.54 695.99 113.54 695.99 225.53 695.99 225.53"/></clipPath><clipPath id="clip-path-8"><rect class="cls-2" x="695.99" y="113.54" width="132.49" height="111.99"/></clipPath><clipPath id="clip-path-9"><polygon class="cls-1" points="563.5 250.56 696.3 250.56 696.3 113.54 563.5 113.54 563.5 250.56 563.5 250.56"/></clipPath><clipPath id="clip-path-10"><rect class="cls-2" x="563.51" y="113.54" width="132.8" height="137.02"/></clipPath><clipPath id="clip-path-11"><polygon class="cls-1" points="695.99 250.56 828.48 250.56 828.48 113.54 695.99 113.54 695.99 250.56 695.99 250.56"/></clipPath><clipPath id="clip-path-12"><rect class="cls-2" x="695.99" y="113.54" width="132.49" height="137.02"/></clipPath><clipPath id="clip-path-13"><polygon class="cls-1" points="563.5 275.9 696.3 275.9 696.3 133.88 563.5 133.88 563.5 275.9 563.5 275.9"/></clipPath><clipPath id="clip-path-14"><rect class="cls-2" x="563.51" y="133.88" width="132.8" height="142.02"/></clipPath><clipPath id="clip-path-15"><polygon class="cls-1" points="695.99 275.9 828.48 275.9 828.48 133.88 695.99 133.88 695.99 275.9 695.99 275.9"/></clipPath><clipPath id="clip-path-16"><rect class="cls-2" x="695.99" y="133.88" width="132.49" height="142.02"/></clipPath><clipPath id="clip-path-17"><polygon class="cls-1" points="563.5 301.24 696.3 301.24 696.3 158.9 563.5 158.9 563.5 301.24 563.5 301.24"/></clipPath><clipPath id="clip-path-18"><rect class="cls-2" x="563.51" y="158.9" width="132.8" height="142.33"/></clipPath><clipPath id="clip-path-19"><polygon class="cls-1" points="695.99 301.24 828.48 301.24 828.48 158.9 695.99 158.9 695.99 301.24 695.99 301.24"/></clipPath><clipPath id="clip-path-20"><rect class="cls-2" x="695.99" y="158.9" width="132.49" height="142.33"/></clipPath><clipPath id="clip-path-21"><polygon class="cls-1" points="563.5 326.57 696.3 326.57 696.3 184.24 563.5 184.24 563.5 326.57 563.5 326.57"/></clipPath><clipPath id="clip-path-22"><rect class="cls-2" x="563.51" y="184.24" width="132.8" height="142.33"/></clipPath><clipPath id="clip-path-23"><polygon class="cls-1" points="695.99 326.57 828.48 326.57 828.48 184.24 695.99 184.24 695.99 326.57 695.99 326.57"/></clipPath><clipPath id="clip-path-24"><rect class="cls-2" x="695.99" y="184.24" width="132.49" height="142.33"/></clipPath><clipPath id="clip-path-25"><polygon class="cls-1" points="563.5 351.91 696.3 351.91 696.3 209.58 563.5 209.58 563.5 351.91 563.5 351.91"/></clipPath><clipPath id="clip-path-26"><rect class="cls-2" x="563.51" y="209.58" width="132.8" height="142.33"/></clipPath><clipPath id="clip-path-27"><polygon class="cls-1" points="695.99 351.91 828.48 351.91 828.48 209.58 695.99 209.58 695.99 351.91 695.99 351.91"/></clipPath><clipPath id="clip-path-28"><rect class="cls-2" x="695.99" y="209.58" width="132.49" height="142.33"/></clipPath><clipPath id="clip-path-29"><polygon class="cls-1" points="563.5 376.94 696.3 376.94 696.3 234.92 563.5 234.92 563.5 376.94 563.5 376.94"/></clipPath><clipPath id="clip-path-30"><rect class="cls-2" x="563.51" y="234.92" width="132.8" height="142.02"/></clipPath><clipPath id="clip-path-31"><polygon class="cls-1" points="695.99 376.94 828.48 376.94 828.48 234.92 695.99 234.92 695.99 376.94 695.99 376.94"/></clipPath><clipPath id="clip-path-32"><rect class="cls-2" x="695.99" y="234.92" width="132.49" height="142.02"/></clipPath><clipPath id="clip-path-33"><polygon class="cls-1" points="563.5 402.28 696.3 402.28 696.3 260.26 563.5 260.26 563.5 402.28 563.5 402.28"/></clipPath><clipPath id="clip-path-34"><rect class="cls-2" x="563.51" y="260.26" width="132.8" height="142.02"/></clipPath><clipPath id="clip-path-35"><polygon class="cls-1" points="695.99 402.28 828.48 402.28 828.48 260.26 695.99 260.26 695.99 402.28 695.99 402.28"/></clipPath><clipPath id="clip-path-36"><rect class="cls-2" x="695.99" y="260.26" width="132.49" height="142.02"/></clipPath><clipPath id="clip-path-37"><polygon class="cls-1" points="563.5 427.62 696.3 427.62 696.3 285.28 563.5 285.28 563.5 427.62 563.5 427.62"/></clipPath><clipPath id="clip-path-38"><rect class="cls-2" x="563.51" y="285.28" width="132.8" height="142.33"/></clipPath><clipPath id="clip-path-39"><polygon class="cls-1" points="695.99 427.62 828.48 427.62 828.48 285.28 695.99 285.28 695.99 427.62 695.99 427.62"/></clipPath><clipPath id="clip-path-40"><rect class="cls-2" x="695.99" y="285.28" width="132.49" height="142.33"/></clipPath><clipPath id="clip-path-41"><polygon class="cls-1" points="563.5 452.96 696.3 452.96 696.3 310.62 563.5 310.62 563.5 452.96 563.5 452.96"/></clipPath><clipPath id="clip-path-42"><rect class="cls-2" x="563.51" y="310.62" width="132.8" height="142.33"/></clipPath><clipPath id="clip-path-43"><polygon class="cls-1" points="695.99 452.96 828.48 452.96 828.48 310.62 695.99 310.62 695.99 452.96 695.99 452.96"/></clipPath><clipPath id="clip-path-44"><rect class="cls-2" x="695.99" y="310.62" width="132.49" height="142.33"/></clipPath><clipPath id="clip-path-45"><polygon class="cls-1" points="563.5 478.29 696.3 478.29 696.3 335.96 563.5 335.96 563.5 478.29 563.5 478.29"/></clipPath><clipPath id="clip-path-46"><rect class="cls-2" x="563.51" y="335.96" width="132.8" height="142.33"/></clipPath><clipPath id="clip-path-47"><polygon class="cls-1" points="695.99 478.29 828.48 478.29 828.48 335.96 695.99 335.96 695.99 478.29 695.99 478.29"/></clipPath><clipPath id="clip-path-48"><rect class="cls-2" x="695.99" y="335.96" width="132.49" height="142.33"/></clipPath><clipPath id="clip-path-49"><polygon class="cls-1" points="563.5 503.32 696.3 503.32 696.3 361.3 563.5 361.3 563.5 503.32 563.5 503.32"/></clipPath><clipPath id="clip-path-50"><rect class="cls-2" x="563.51" y="361.3" width="132.8" height="142.02"/></clipPath><clipPath id="clip-path-51"><polygon class="cls-1" points="695.99 503.32 828.48 503.32 828.48 361.3 695.99 361.3 695.99 503.32 695.99 503.32"/></clipPath><clipPath id="clip-path-52"><rect class="cls-2" x="695.99" y="361.3" width="132.49" height="142.02"/></clipPath><clipPath id="clip-path-53"><polygon class="cls-1" points="563.5 503.32 696.3 503.32 696.3 386.64 563.5 386.64 563.5 503.32 563.5 503.32"/></clipPath><clipPath id="clip-path-54"><rect class="cls-2" x="563.51" y="386.64" width="132.8" height="116.68"/></clipPath><clipPath id="clip-path-55"><polygon class="cls-1" points="695.99 503.32 828.48 503.32 828.48 386.64 695.99 386.64 695.99 503.32 695.99 503.32"/></clipPath><clipPath id="clip-path-56"><rect class="cls-2" x="695.99" y="386.64" width="132.49" height="116.68"/></clipPath><clipPath id="clip-path-57"><polygon class="cls-1" points="563.5 503.32 696.3 503.32 696.3 411.66 563.5 411.66 563.5 503.32 563.5 503.32"/></clipPath><clipPath id="clip-path-58"><rect class="cls-2" x="563.51" y="411.66" width="132.8" height="91.66"/></clipPath><clipPath id="clip-path-59"><polygon class="cls-1" points="695.99 503.32 828.48 503.32 828.48 411.66 695.99 411.66 695.99 503.32 695.99 503.32"/></clipPath><clipPath id="clip-path-60"><rect class="cls-2" x="695.99" y="411.66" width="132.49" height="91.66"/></clipPath></defs><title>Asset 2</title><g id="Layer_2" data-name="Layer 2"><g id="Layer_2-2" data-name="Layer 2"><rect class="cls-3" width="850" height="1404.5"/></g><g id="Layer_1-2" data-name="Layer 1"><path class="cls-4" d="M526,369.33c0,3.8-6.18,6.91-13.76,6.91H35.3c-7.55,0-13.76-3.11-13.76-6.91V197.85c0-3.79,6.21-6.9,13.76-6.9H512.22c7.58,0,13.76,3.11,13.76,6.9Z"/><path class="cls-5" d="M517,382.48H31.15c-11.6,0-21-4.78-21-10.66V195.35c0-5.88,9.43-10.66,21-10.66H517c11.59,0,21,4.78,21,10.66V371.82C538,377.7,528.55,382.48,517,382.48ZM31.15,191.8c-3.8,0-7,1.63-7,3.55V371.82c0,2,3.14,3.55,7,3.55H517c3.86,0,7-1.59,7-3.55V195.35c0-2-3.15-3.55-7-3.55Z"/><rect class="cls-6" x="104.78" y="244.49" width="6.65" height="99.2"/><rect class="cls-6" x="37.18" y="247.93" width="6.65" height="97.86"/><rect class="cls-6" x="165.13" y="242.39" width="6.65" height="101.3"/><rect class="cls-6" x="248.59" y="244.49" width="6.65" height="95.76"/><rect class="cls-6" x="316.86" y="242.39" width="6.65" height="101.3"/><rect class="cls-6" x="378.04" y="246.21" width="6.65" height="95.76"/><rect class="cls-6" x="444.22" y="243.44" width="6.65" height="97.86"/><rect class="cls-6" x="501.66" y="245.18" width="6.65" height="100.6"/><rect class="cls-6" x="40.51" y="284.76" width="461.16" height="11.07"/><rect class="cls-6" x="41.06" y="334.71" width="460.6" height="11.07"/><rect class="cls-6" x="37.18" y="236.85" width="471.12" height="11.07"/><text class="cls-7" transform="translate(46.35 271.55) scale(1.04 1)">Mandag</text><text class="cls-7" transform="translate(113.44 271.55) scale(1.04 1)">Tirsdag</text><text class="cls-7" transform="translate(177.47 271.55) scale(1.04 1)">Onsdag</text><text class="cls-8" transform="translate(255.23 273.26) scale(1.04 1)">T<tspan class="cls-9" x="7.01" y="0">orsdag</tspan></text><text class="cls-7" transform="translate(324.61 273.26) scale(1.04 1)"><tspan class="cls-10">F</tspan><tspan class="cls-11" x="6.91" y="0">r</tspan><tspan x="11.12" y="0">edag</tspan></text><text class="cls-7" transform="translate(387.69 273.26) scale(1.04 1)">Lø<tspan class="cls-12" x="14.13" y="0">r</tspan><tspan x="18.33" y="0">dag</tspan></text><text class="cls-7" transform="translate(450.87 273.26) scale(1.04 1)">Søndag</text><rect class="cls-13" x="37.18" y="193.5" width="471.12" height="29.07"/><path class="cls-2" d="M60.42,159.76c-2.68,0-4.84,9.6-4.84,21.45,0,10.8,1.8,19.65,4.15,21.15V178.44H65.2C64.9,167.92,62.89,159.76,60.42,159.76Z"/><path class="cls-2" d="M59.73,202.36a1.41,1.41,0,0,0,.69.31c2.69,0,4.85-9.61,4.85-21.46,0-.94,0-1.85-.07-2.77H59.73Z"/><path class="cls-4" d="M55.58,181.21c0-11.85,2.16-21.45,4.84-21.45,2.47,0,4.48,8.16,4.78,18.68h9.74c-.17-20.31-6.89-36.68-15.21-36.68S44.5,158.5,44.5,179.14s6.82,37.37,15.23,37.37V202.36C57.38,200.86,55.58,192,55.58,181.21Z"/><path class="cls-14" d="M61.12,217.9H59.73c-9.32,0-16.61-17-16.61-38.76s7.29-38.76,16.61-38.76c9.13,0,16.42,16.71,16.59,38.05v1.4H63.86l0-1.35c-.33-11.22-2.46-16.92-3.47-17.35-1.12.53-3.39,7.69-3.39,20.08,0,11.57,2,19,3.52,20l.64.41Zm-1.39-74.76c-6.68,0-13.84,14.47-13.84,36,0,20.05,6.21,34,12.46,35.78V203c-2.86-3-4.16-12.83-4.16-21.78,0-8.48,1.32-22.84,6.23-22.84s5.88,13.57,6.11,18.69h7C73.09,158.53,66.89,143.14,59.73,143.14Z"/><path class="cls-2" d="M101.14,159c-2.68,0-4.84,9.6-4.84,21.45,0,10.8,1.8,19.65,4.15,21.15V177.71h5.47C105.62,167.18,103.61,159,101.14,159Z"/><path class="cls-2" d="M100.45,201.63a1.38,1.38,0,0,0,.69.31c2.68,0,4.85-9.61,4.85-21.46,0-.94,0-1.85-.07-2.77h-5.47Z"/><path class="cls-4" d="M96.3,180.48c0-11.85,2.16-21.45,4.84-21.45,2.47,0,4.48,8.15,4.78,18.68h9.74c-.17-20.31-6.89-36.68-15.21-36.68s-15.23,16.74-15.23,37.38,6.82,37.37,15.23,37.37V201.63C98.1,200.13,96.3,191.28,96.3,180.48Z"/><path class="cls-14" d="M101.83,217.16h-1.38c-9.32,0-16.61-17-16.61-38.75s7.29-38.76,16.61-38.76c9.13,0,16.42,16.71,16.59,38v1.4H104.58l0-1.35c-.33-11.22-2.46-16.92-3.47-17.35-1.12.53-3.39,7.69-3.39,20.08,0,11.57,2,19,3.52,20l.63.41Zm-1.38-74.75c-6.68,0-13.84,14.47-13.84,36,0,20.05,6.21,34,12.46,35.78V202.26c-2.86-3-4.16-12.83-4.16-21.78,0-8.48,1.32-22.84,6.23-22.84s5.88,13.57,6.11,18.69h7C113.81,157.8,107.61,142.41,100.45,142.41Z"/><path class="cls-2" d="M151,157.1c-2.68,0-4.85,9.61-4.85,21.46,0,10.8,1.81,19.65,4.16,21.15V175.79h5.47C155.46,165.26,153.45,157.1,151,157.1Z"/><path class="cls-2" d="M150.3,199.71a1.43,1.43,0,0,0,.69.31c2.68,0,4.84-9.61,4.84-21.46,0-.95,0-1.86-.06-2.77H150.3Z"/><path class="cls-4" d="M146.14,178.56c0-11.85,2.17-21.46,4.85-21.46,2.46,0,4.47,8.16,4.78,18.69h9.73c-.16-20.31-6.89-36.68-15.2-36.68s-15.23,16.73-15.23,37.37,6.81,37.38,15.23,37.38V199.71C148,198.21,146.14,189.36,146.14,178.56Z"/><path class="cls-14" d="M151.68,215.24H150.3c-9.32,0-16.62-17-16.62-38.76s7.3-38.76,16.62-38.76c9.13,0,16.41,16.72,16.59,38.06v1.39H154.42l0-1.34c-.32-11.22-2.45-16.92-3.47-17.35-1.12.53-3.38,7.69-3.38,20.08,0,11.57,2,19,3.51,20l.64.41Zm-1.38-74.75c-6.69,0-13.85,14.47-13.85,36,0,20.05,6.21,34,12.46,35.79V200.34c-2.86-3-4.15-12.84-4.15-21.78,0-8.48,1.31-22.84,6.23-22.84s5.88,13.57,6.11,18.69h7C163.65,155.88,157.45,140.49,150.3,140.49Z"/><path class="cls-2" d="M198.75,157.8c-2.69,0-4.85,9.6-4.85,21.45,0,10.8,1.81,19.65,4.15,21.15V176.48h5.48C203.22,166,201.21,157.8,198.75,157.8Z"/><path class="cls-2" d="M198.05,200.4a1.41,1.41,0,0,0,.7.31c2.68,0,4.84-9.61,4.84-21.46,0-.94,0-1.85-.06-2.77h-5.48Z"/><path class="cls-4" d="M193.9,179.25c0-11.85,2.16-21.45,4.85-21.45,2.46,0,4.47,8.15,4.78,18.68h9.73c-.16-20.31-6.89-36.68-15.21-36.68s-15.22,16.74-15.22,37.38,6.81,37.37,15.22,37.37V200.4C195.71,198.9,193.9,190.05,193.9,179.25Z"/><path class="cls-14" d="M199.44,215.93h-1.39c-9.31,0-16.61-17-16.61-38.75s7.3-38.76,16.61-38.76c9.14,0,16.42,16.71,16.59,38.05v1.4H202.18l0-1.35c-.32-11.22-2.45-16.92-3.47-17.35-1.12.53-3.39,7.69-3.39,20.08,0,11.57,2,19,3.52,20l.64.41Zm-1.39-74.75c-6.68,0-13.84,14.47-13.84,36,0,20,6.21,34,12.46,35.78V201c-2.86-3-4.15-12.83-4.15-21.78,0-8.48,1.31-22.84,6.23-22.84s5.87,13.57,6.11,18.69h7C211.41,156.57,205.21,141.18,198.05,141.18Z"/><path class="cls-2" d="M244.43,157.8c-2.69,0-4.85,9.6-4.85,21.45,0,10.8,1.81,19.65,4.15,21.15V176.48h5.48C248.9,166,246.89,157.8,244.43,157.8Z"/><path class="cls-2" d="M243.73,200.4a1.41,1.41,0,0,0,.7.31c2.68,0,4.84-9.61,4.84-21.46,0-.94,0-1.85-.06-2.77h-5.48Z"/><path class="cls-4" d="M239.58,179.25c0-11.85,2.16-21.45,4.85-21.45,2.46,0,4.47,8.15,4.78,18.68h9.73c-.16-20.31-6.89-36.68-15.21-36.68s-15.22,16.74-15.22,37.38,6.81,37.37,15.22,37.37V200.4C241.39,198.9,239.58,190.05,239.58,179.25Z"/><path class="cls-14" d="M245.12,215.93h-1.39c-9.31,0-16.61-17-16.61-38.75s7.3-38.76,16.61-38.76c9.13,0,16.42,16.71,16.59,38.05v1.4H247.87l-.05-1.35c-.32-11.22-2.45-16.92-3.47-17.35-1.12.53-3.38,7.69-3.38,20.08,0,11.57,2,19,3.51,20l.64.41Zm-1.39-74.75c-6.68,0-13.84,14.47-13.84,36,0,20,6.21,34,12.46,35.78V201c-2.87-3-4.15-12.83-4.15-21.78,0-8.48,1.31-22.84,6.23-22.84s5.87,13.57,6.11,18.69h7C257.09,156.57,250.89,141.18,243.73,141.18Z"/><path class="cls-2" d="M292.19,157.8c-2.68,0-4.85,9.6-4.85,21.45,0,10.8,1.81,19.65,4.16,21.15V176.48H297C296.67,166,294.65,157.8,292.19,157.8Z"/><path class="cls-2" d="M291.5,200.4a1.34,1.34,0,0,0,.69.31c2.68,0,4.84-9.61,4.84-21.46,0-.94,0-1.85-.06-2.77H291.5Z"/><path class="cls-4" d="M287.34,179.25c0-11.85,2.17-21.45,4.85-21.45,2.46,0,4.48,8.15,4.78,18.68h9.73c-.16-20.31-6.89-36.68-15.2-36.68s-15.23,16.74-15.23,37.38,6.81,37.37,15.23,37.37V200.4C289.15,198.9,287.34,190.05,287.34,179.25Z"/><path class="cls-14" d="M292.88,215.93H291.5c-9.31,0-16.61-17-16.61-38.75s7.3-38.76,16.61-38.76c9.12,0,16.41,16.71,16.59,38.05v1.4H295.63l-.05-1.35c-.32-11.22-2.45-16.92-3.47-17.35-1.12.53-3.38,7.69-3.38,20.08,0,11.57,2,19,3.51,20l.64.41Zm-1.38-74.75c-6.69,0-13.85,14.47-13.85,36,0,20,6.21,34,12.46,35.78V201c-2.86-3-4.15-12.83-4.15-21.78,0-8.48,1.31-22.84,6.23-22.84s5.87,13.57,6.11,18.69h7C304.85,156.57,298.66,141.18,291.5,141.18Z"/><path class="cls-2" d="M337.48,156.41c-2.68,0-4.84,9.61-4.84,21.46,0,10.8,1.8,19.65,4.15,21.14V175.1h5.47C342,164.57,340,156.41,337.48,156.41Z"/><path class="cls-2" d="M336.79,199a1.38,1.38,0,0,0,.69.31c2.68,0,4.85-9.61,4.85-21.45,0-1-.05-1.86-.07-2.77h-5.47Z"/><path class="cls-4" d="M332.64,177.87c0-11.85,2.16-21.46,4.84-21.46,2.47,0,4.48,8.16,4.78,18.69H352c-.17-20.31-6.89-36.69-15.21-36.69s-15.23,16.74-15.23,37.38,6.82,37.38,15.23,37.38V199C334.44,197.52,332.64,188.67,332.64,177.87Z"/><path class="cls-14" d="M338.17,214.55h-1.38c-9.31,0-16.61-17-16.61-38.76S327.48,137,336.79,137c9.13,0,16.42,16.71,16.59,38.06v1.39H340.92l0-1.34c-.33-11.22-2.46-16.92-3.47-17.36-1.13.53-3.39,7.7-3.39,20.09,0,11.57,2.05,19,3.52,20l.63.41Zm-1.38-74.75c-6.68,0-13.84,14.46-13.84,36,0,20.05,6.2,34,12.46,35.79V199.65c-2.87-3-4.16-12.84-4.16-21.78,0-8.49,1.31-22.84,6.23-22.84s5.87,13.56,6.11,18.68h7C350.15,155.19,344,139.8,336.79,139.8Z"/><path class="cls-2" d="M383.55,159.87c-2.68,0-4.84,9.61-4.84,21.46,0,10.8,1.8,19.65,4.15,21.15V178.56h5.47C388,168,386,159.87,383.55,159.87Z"/><path class="cls-2" d="M382.86,202.48a1.47,1.47,0,0,0,.69.31c2.68,0,4.85-9.61,4.85-21.46,0-1,0-1.86-.07-2.77h-5.47Z"/><path class="cls-4" d="M378.71,181.33c0-11.85,2.16-21.46,4.84-21.46,2.47,0,4.48,8.16,4.78,18.69h9.74c-.17-20.31-6.89-36.68-15.21-36.68s-15.23,16.73-15.23,37.37,6.82,37.38,15.23,37.38V202.48C380.51,201,378.71,192.13,378.71,181.33Z"/><path class="cls-14" d="M384.24,218h-1.38c-9.31,0-16.61-17-16.61-38.76s7.3-38.76,16.61-38.76c9.13,0,16.42,16.72,16.59,38.06v1.39H387l0-1.34c-.33-11.22-2.46-16.92-3.47-17.35-1.13.53-3.39,7.69-3.39,20.08,0,11.57,2.05,19,3.52,20l.63.41Zm-1.38-74.75c-6.68,0-13.84,14.47-13.84,36,0,20.05,6.2,34,12.46,35.79V203.11c-2.87-3-4.16-12.84-4.16-21.78,0-8.49,1.31-22.84,6.23-22.84s5.87,13.57,6.11,18.69h7C396.22,158.65,390,143.26,382.86,143.26Z"/><path class="cls-2" d="M437.41,157.8c-2.69,0-4.85,9.6-4.85,21.45,0,10.8,1.81,19.65,4.15,21.15V176.48h5.48C441.88,166,439.87,157.8,437.41,157.8Z"/><path class="cls-2" d="M436.71,200.4a1.41,1.41,0,0,0,.7.31c2.68,0,4.84-9.61,4.84-21.46,0-.94,0-1.85-.06-2.77h-5.48Z"/><path class="cls-4" d="M432.56,179.25c0-11.85,2.16-21.45,4.85-21.45,2.46,0,4.47,8.15,4.78,18.68h9.73c-.16-20.31-6.89-36.68-15.21-36.68s-15.22,16.74-15.22,37.38,6.81,37.37,15.22,37.37V200.4C434.37,198.9,432.56,190.05,432.56,179.25Z"/><path class="cls-14" d="M438.1,215.93h-1.39c-9.31,0-16.61-17-16.61-38.75s7.3-38.76,16.61-38.76c9.13,0,16.42,16.71,16.59,38.05l0,1.4H440.85l-.05-1.35c-.32-11.22-2.45-16.92-3.47-17.35-1.12.53-3.38,7.69-3.38,20.08,0,11.57,2,19,3.51,20l.64.41Zm-1.39-74.75c-6.68,0-13.84,14.47-13.84,36,0,20,6.21,34,12.46,35.78V201c-2.86-3-4.15-12.83-4.15-21.78,0-8.48,1.31-22.84,6.23-22.84s5.87,13.57,6.11,18.69h7C450.07,156.57,443.87,141.18,436.71,141.18Z"/><path class="cls-2" d="M487.91,157.83c-2.68,0-4.84,9.61-4.84,21.46,0,10.8,1.81,19.65,4.15,21.15V176.52h5.47C492.39,166,490.38,157.83,487.91,157.83Z"/><path class="cls-2" d="M487.22,200.44a1.51,1.51,0,0,0,.69.31c2.69,0,4.85-9.61,4.85-21.46,0-.95,0-1.86-.07-2.77h-5.47Z"/><path class="cls-4" d="M483.07,179.29c0-11.85,2.16-21.46,4.84-21.46,2.47,0,4.48,8.16,4.78,18.69h9.74c-.16-20.31-6.89-36.68-15.21-36.68S472,156.57,472,177.21s6.82,37.38,15.23,37.38V200.44C484.88,198.94,483.07,190.09,483.07,179.29Z"/><path class="cls-14" d="M488.61,216h-1.39c-9.31,0-16.61-17-16.61-38.76s7.3-38.76,16.61-38.76c9.13,0,16.42,16.72,16.59,38.06v1.4H491.35l0-1.35c-.32-11.22-2.45-16.92-3.47-17.35-1.13.53-3.39,7.69-3.39,20.08,0,11.57,2.05,19,3.52,20l.64.41Zm-1.39-74.75c-6.68,0-13.84,14.47-13.84,36,0,20,6.21,34,12.46,35.79V201.07c-2.87-3-4.16-12.84-4.16-21.78,0-8.48,1.31-22.84,6.23-22.84S493.79,170,494,175.14h7C500.58,156.61,494.38,141.22,487.22,141.22Z"/><text class="cls-15" transform="translate(46.48 318.11)">Mond<tspan class="cls-16" x="32.9" y="0">a</tspan><tspan x="39.79" y="0">y</tspan></text><text class="cls-15" transform="translate(111.43 318.11)"><tspan class="cls-17">T</tspan><tspan x="7.07" y="0">uesd</tspan><tspan class="cls-18" x="34.85" y="0">a</tspan><tspan class="cls-19" x="41.75" y="0">y</tspan></text><text class="cls-15" transform="translate(171.77 318.11)"><tspan class="cls-20">W</tspan><tspan class="cls-19" x="11.21" y="0">ednesd</tspan><tspan class="cls-18" x="53.05" y="0">a</tspan><tspan x="59.95" y="0">y</tspan></text><text class="cls-21" transform="translate(255.23 318.11)">Thursd<tspan class="cls-22" x="37.4" y="0">a</tspan><tspan x="43.84" y="0">y</tspan></text><text class="cls-21" transform="translate(327.49 318.11)"><tspan class="cls-23">F</tspan><tspan x="6.48" y="0">rid</tspan><tspan class="cls-22" x="20.22" y="0">a</tspan><tspan x="26.66" y="0">y</tspan></text><rect class="cls-13" width="850" height="84.46"/><text/><text class="cls-21" transform="translate(385.63 318.11)">Satu<tspan class="cls-24" x="24.18" y="0">r</tspan><tspan x="28.13" y="0">d</tspan><tspan class="cls-22" x="34.9" y="0">a</tspan><tspan x="41.34" y="0">y</tspan></text><text class="cls-21" transform="translate(451.92 318.11)">Sund<tspan class="cls-22" x="27.12" y="0">a</tspan><tspan x="33.56" y="0">y</tspan></text><text class="cls-25" transform="translate(245.78 35.69)">Dag og da<tspan class="cls-26" x="161.67" y="0">t</tspan><tspan x="173.3" y="0">o på dansk</tspan><tspan class="cls-27"><tspan x="52.66" y="28.8">D</tspan><tspan class="cls-22" x="68.26" y="28.8">a</tspan><tspan x="80.95" y="28.8">y and date in danish</tspan></tspan></text><rect class="cls-4" x="759.46" y="34.24" width="65.74" height="45.07"/><rect class="cls-28" x="759.47" y="11.78" width="65.72" height="22.47"/><path class="cls-29" d="M789.4,51.31a.24.24,0,0,0-.21-.23c-.92,0-1,0-1-.26V43.13a.32.32,0,0,1,.31-.31h7.74a.31.31,0,0,1,.28.31v27.3c0,.16-.1.31-.24.31h-6.61a.28.28,0,0,1-.25-.27Z"/><rect class="cls-30" x="759.47" y="6.97" width="65.68" height="4.81"/><rect class="cls-31" x="759.46" y="34.25" width="65.74" height="0.89"/><path class="cls-32" d="M770.16,8.72a1,1,0,1,1-1-1.11A1.07,1.07,0,0,1,770.16,8.72Z"/><path class="cls-32" d="M779.71,8.72a1,1,0,1,1-1-1.11A1.07,1.07,0,0,1,779.71,8.72Z"/><path class="cls-32" d="M789.25,8.72a1,1,0,1,1-1-1.11A1.07,1.07,0,0,1,789.25,8.72Z"/><path class="cls-32" d="M798.79,8.72a1,1,0,1,1-1-1.11A1.06,1.06,0,0,1,798.79,8.72Z"/><path class="cls-32" d="M808.34,8.72a1,1,0,1,1-1-1.11A1.07,1.07,0,0,1,808.34,8.72Z"/><path class="cls-32" d="M817.88,8.72a1,1,0,1,1-1-1.11A1.07,1.07,0,0,1,817.88,8.72Z"/><path class="cls-33" d="M769.65,8.3c0,.41-.13.75-.28.75h-.49c-.15,0-.28-.34-.28-.75V3.06c0-.42.13-.76.28-.76h.49c.15,0,.28.34.28.76Z"/><path class="cls-34" d="M779.19,8.3c0,.41-.12.75-.28.75h-.48c-.16,0-.29-.34-.29-.75V3.06c0-.42.13-.76.29-.76h.48c.16,0,.28.34.28.76Z"/><path class="cls-35" d="M788.74,8.3c0,.41-.13.75-.29.75H788c-.16,0-.28-.34-.28-.75V3.06c0-.42.12-.76.28-.76h.48c.16,0,.29.34.29.76Z"/><path class="cls-36" d="M798.28,8.3c0,.41-.13.75-.28.75h-.49c-.15,0-.28-.34-.28-.75V3.06c0-.42.13-.76.28-.76H798c.15,0,.28.34.28.76Z"/><path class="cls-37" d="M807.83,8.3c0,.41-.13.75-.29.75h-.48c-.16,0-.29-.34-.29-.75V3.06c0-.42.13-.76.29-.76h.48c.16,0,.29.34.29.76Z"/><path class="cls-38" d="M817.37,8.3c0,.41-.13.75-.28.75h-.49c-.16,0-.28-.34-.28-.75V3.06c0-.42.12-.76.28-.76h.49c.15,0,.28.34.28.76Z"/><rect class="cls-39" x="759.46" y="79.31" width="65.74" height="0.85"/><rect class="cls-4" x="15.74" y="560.2" width="68.11" height="58.54" rx="12"/><ellipse class="cls-40" cx="49.08" cy="577.54" rx="10.08" ry="14.16"/><text class="cls-41" transform="translate(45.05 586.83) scale(0.71 1)">1</text><text class="cls-42" transform="translate(33.7 612.03) scale(0.71 1)">en/et</text><rect class="cls-4" x="16.83" y="700.16" width="68.11" height="58.54" rx="12"/><ellipse class="cls-43" cx="50.89" cy="719.76" rx="10.08" ry="14.16"/><text class="cls-41" transform="translate(43.37 728.43) scale(0.71 1)">11</text><text class="cls-42" transform="translate(35.53 752.52) scale(0.71 1)">ell<tspan class="cls-44" x="18.27" y="0">ev</tspan><tspan x="36.3" y="0">e</tspan></text><rect class="cls-4" x="100.8" y="560.2" width="68.11" height="58.54" rx="12"/><ellipse class="cls-40" cx="131.62" cy="577.54" rx="10.08" ry="14.16"/><text class="cls-41" transform="translate(128.29 585.15) scale(0.71 1)">2</text><text class="cls-42" transform="translate(127.31 616.03) scale(0.71 1)"><tspan class="cls-45">t</tspan><tspan x="5.7" y="0">o</tspan></text><rect class="cls-4" x="183.35" y="561.01" width="68.11" height="58.54" rx="12"/><ellipse class="cls-40" cx="217.4" cy="577.54" rx="10.08" ry="14.16"/><text class="cls-41" transform="translate(213.16 584.83) scale(0.71 1)">3</text><text class="cls-42" transform="translate(208.74 616.03) scale(0.71 1)">t<tspan class="cls-46" x="5.88" y="0">r</tspan><tspan x="11.8" y="0">e</tspan></text><rect class="cls-4" x="266.79" y="561.01" width="68.11" height="58.54" rx="12"/><ellipse class="cls-40" cx="300.84" cy="580.6" rx="10.08" ry="14.16"/><text class="cls-41" transform="translate(295.6 588.46) scale(0.71 1)">4</text><text class="cls-42" transform="translate(289.69 616.03) scale(0.71 1)">fi<tspan class="cls-47" x="10.62" y="0">r</tspan><tspan class="cls-48" x="16.54" y="0">e</tspan></text><rect class="cls-4" x="350.23" y="561.01" width="68.11" height="58.54" rx="12"/><ellipse class="cls-40" cx="385.19" cy="582.97" rx="10.08" ry="14.16"/><text class="cls-41" transform="translate(380.47 590.65) scale(0.71 1)">5</text><text class="cls-42" transform="translate(374.62 616.03) scale(0.71 1)"><tspan class="cls-49">f</tspan><tspan x="6.04" y="0">em</tspan></text><rect class="cls-4" x="434.2" y="562.19" width="68.11" height="58.54" rx="12"/><ellipse class="cls-40" cx="468.26" cy="581.79" rx="10.08" ry="14.16"/><text class="cls-41" transform="translate(464.62 590.65) scale(0.71 1)">6</text><text class="cls-42" transform="translate(457.4 616.03) scale(0.71 1)">seks</text><rect class="cls-4" x="518.17" y="561.01" width="68.11" height="58.54" rx="12"/><ellipse class="cls-40" cx="552.23" cy="580.6" rx="10.08" ry="14.16"/><text class="cls-41" transform="translate(548.99 589.46) scale(0.71 1)">7</text><text class="cls-42" transform="translate(543.56 612.03) scale(0.71 1)">syv</text><rect class="cls-4" x="602.52" y="561.01" width="68.11" height="58.54" rx="12"/><ellipse class="cls-40" cx="636.58" cy="580.6" rx="10.08" ry="14.16"/><text class="cls-41" transform="translate(633.34 588.46) scale(0.71 1)">8</text><text class="cls-42" transform="translate(627.92 616.03) scale(0.71 1)">otte</text><rect class="cls-4" x="686.87" y="561.01" width="68.11" height="58.54" rx="12"/><ellipse class="cls-40" cx="720.93" cy="580.6" rx="10.08" ry="14.16"/><text class="cls-41" transform="translate(717.09 588.28) scale(0.71 1)">9</text><text class="cls-42" transform="translate(717.09 616.03) scale(0.71 1)">ni</text><ellipse class="cls-40" cx="30.91" cy="533.35" rx="26.39" ry="27.04"/><ellipse class="cls-43" cx="30.91" cy="671.99" rx="26.39" ry="28.18"/><ellipse class="cls-28" cx="30.91" cy="811.61" rx="26.39" ry="30"/><rect class="cls-4" x="100.8" y="700.16" width="68.11" height="58.54" rx="12"/><ellipse class="cls-43" cx="134.85" cy="719.76" rx="10.08" ry="14.16"/><text class="cls-41" transform="translate(127.31 728.43) scale(0.71 1)">12</text><text class="cls-42" transform="translate(125.72 752.52) scale(0.71 1)"><tspan class="cls-45">t</tspan><tspan x="5.7" y="0">olv</tspan></text><rect class="cls-4" x="184.77" y="700.16" width="68.11" height="58.54" rx="12"/><ellipse class="cls-43" cx="218.82" cy="719.76" rx="10.08" ry="14.16"/><text class="cls-41" transform="translate(210.35 728.43) scale(0.71 1)">13</text><text class="cls-42" transform="translate(202.18 752.52) scale(0.71 1)">t<tspan class="cls-46" x="5.88" y="0">r</tspan><tspan x="11.8" y="0">etten</tspan></text><rect class="cls-4" x="268.21" y="700.16" width="68.11" height="58.54" rx="12"/><ellipse class="cls-43" cx="302.27" cy="719.76" rx="10.08" ry="14.16"/><text class="cls-41" transform="translate(295.27 728.43) scale(0.71 1)">14</text><text class="cls-42" transform="translate(284.41 752.02) scale(0.71 1)">fjo<tspan class="cls-50" x="20.81" y="0">r</tspan><tspan x="27.34" y="0">ten</tspan></text><rect class="cls-4" x="348.42" y="701.35" width="68.11" height="58.54" rx="12"/><ellipse class="cls-43" cx="382.47" cy="720.94" rx="10.08" ry="14.16"/><text class="cls-41" transform="translate(374.53 729.62) scale(0.71 1)"><tspan xml:space="preserve">15   </tspan></text><text class="cls-42" transform="translate(365.69 754.52) scale(0.71 1)"><tspan class="cls-49">f</tspan><tspan x="6.04" y="0" xml:space="preserve">emten  </tspan></text><rect class="cls-4" x="432.39" y="701.35" width="68.11" height="58.54" rx="12"/><ellipse class="cls-43" cx="466.44" cy="720.94" rx="10.08" ry="14.16"/><text class="cls-41" transform="translate(458.6 729.62) scale(0.71 1)">16</text><text class="cls-42" transform="translate(446.56 753.52) scale(0.71 1)">seksten</text><rect class="cls-4" x="516.36" y="700.16" width="68.11" height="58.54" rx="12"/><ellipse class="cls-43" cx="550.41" cy="719.76" rx="10.08" ry="14.16"/><text class="cls-41" transform="translate(542.56 728.43) scale(0.71 1)">17</text><text class="cls-42" transform="translate(536.04 751.52) scale(0.71 1)">sytten</text><rect class="cls-4" x="603.95" y="701.35" width="68.11" height="58.54" rx="12"/><ellipse class="cls-43" cx="638" cy="720.94" rx="10.08" ry="14.16"/><text class="cls-41" transform="translate(630.89 728.43) scale(0.71 1)">18</text><text class="cls-42" transform="translate(625.96 752.52) scale(0.71 1)">atten</text><rect class="cls-4" x="688.3" y="702.53" width="68.11" height="58.54" rx="12"/><ellipse class="cls-43" cx="722.35" cy="722.13" rx="10.08" ry="14.16"/><text class="cls-41" transform="translate(715.19 730.8) scale(0.71 1)">19</text><text class="cls-42" transform="translate(708.29 754.7) scale(0.71 1)">nitten</text><rect class="cls-4" x="16.83" y="842.52" width="68.11" height="58.54" rx="12"/><ellipse class="cls-28" cx="50.89" cy="862.12" rx="10.08" ry="14.16"/><text class="cls-41" transform="translate(45.05 871.79) scale(0.71 1)">30</text><text class="cls-42" transform="translate(32.7 894.29) scale(0.71 1)">t<tspan class="cls-46" x="5.88" y="0">r</tspan><tspan x="11.8" y="0">edi</tspan><tspan class="cls-51" x="35.86" y="0">v</tspan><tspan x="44.46" y="0">e</tspan></text><rect class="cls-4" x="100.8" y="842.52" width="68.11" height="58.54" rx="12"/><ellipse class="cls-28" cx="134.85" cy="862.12" rx="10.08" ry="14.16"/><text class="cls-41" transform="translate(127.31 871.79) scale(0.71 1)">40</text><text class="cls-42" transform="translate(120.77 893.29) scale(0.71 1)">fyr<tspan class="cls-47" x="20.86" y="0">r</tspan><tspan x="26.78" y="0">e</tspan></text><rect class="cls-4" x="181.53" y="842.52" width="68.11" height="58.54" rx="12"/><ellipse class="cls-28" cx="215.58" cy="862.12" rx="10.08" ry="14.16"/><text class="cls-41" transform="translate(209.34 870.54) scale(0.71 1)">50</text><text class="cls-42" transform="translate(191.13 893.29) scale(0.71 1)">halvt<tspan class="cls-46" x="38.67" y="0">r</tspan><tspan x="44.6" y="0">eds</tspan></text><rect class="cls-4" x="268.21" y="843.71" width="68.11" height="58.54" rx="12"/><ellipse class="cls-28" cx="302.27" cy="863.3" rx="10.08" ry="14.16"/><text class="cls-41" transform="translate(295.27 871.79) scale(0.71 1)">60</text><text class="cls-42" transform="translate(290.18 896.29) scale(0.71 1)">t<tspan class="cls-46" x="5.88" y="0">r</tspan><tspan x="11.8" y="0">es</tspan></text><rect class="cls-4" x="352.57" y="843.89" width="68.11" height="58.54" rx="12"/><ellipse class="cls-28" cx="386.62" cy="864.49" rx="10.08" ry="14.16"/><text class="cls-41" transform="translate(379.39 874.16) scale(0.71 1)">70</text><text class="cls-42" transform="translate(361.69 896.29) scale(0.71 1)">hal<tspan class="cls-52" x="24.07" y="0">v</tspan><tspan class="cls-53" x="32.91" y="0">fje</tspan><tspan class="cls-47" x="52.99" y="0">r</tspan><tspan x="58.91" y="0">ds</tspan></text><rect class="cls-4" x="435.63" y="842.52" width="68.11" height="58.54" rx="12"/><ellipse class="cls-28" cx="469.68" cy="862.12" rx="10.08" ry="14.16"/><text class="cls-41" transform="translate(462.64 871.79) scale(0.71 1)">80</text><text class="cls-42" transform="translate(460.64 895.29) scale(0.71 1)">firs</text><rect class="cls-4" x="519.6" y="842.52" width="68.11" height="58.54" rx="12"/><ellipse class="cls-28" cx="553.65" cy="862.12" rx="10.08" ry="14.16"/><text class="cls-41" transform="translate(546.41 871.79) scale(0.71 1)">90</text><text class="cls-42" transform="translate(528.91 894.29) scale(0.71 1)">hal<tspan class="cls-54" x="24.07" y="0">v</tspan><tspan class="cls-49" x="32.91" y="0">f</tspan><tspan class="cls-55" x="38.94" y="0">ems</tspan></text><rect class="cls-4" x="603.95" y="842.52" width="68.11" height="58.54" rx="12"/><ellipse class="cls-28" cx="638" cy="862.12" rx="10.08" ry="14.16"/><text class="cls-56" transform="translate(629.81 868.79) scale(0.71 1)">100</text><text class="cls-42" transform="translate(604.37 893.29) scale(0.71 1)">(et)hund<tspan class="cls-47" x="67.75" y="0">r</tspan><tspan x="73.67" y="0">ed</tspan></text><rect class="cls-4" x="688.3" y="842.52" width="68.11" height="58.54" rx="12"/><ellipse class="cls-28" cx="723.95" cy="862.12" rx="11.68" ry="14.16"/><text class="cls-57" transform="translate(715.19 868.79) scale(0.71 1)">200</text><text class="cls-42" transform="translate(693.28 893.29) scale(0.71 1)"><tspan class="cls-58">t</tspan><tspan x="5.7" y="0">o hund</tspan><tspan class="cls-47" x="60.35" y="0">r</tspan><tspan x="66.27" y="0">ed</tspan></text><rect class="cls-4" x="768.54" y="561.01" width="68.11" height="58.54" rx="12"/><ellipse class="cls-40" cx="805.83" cy="580.6" rx="10.08" ry="14.16"/><text class="cls-41" transform="translate(798.24 588.28) scale(0.71 1)">10</text><text class="cls-42" transform="translate(802.59 616.03) scale(0.71 1)">ti</text><rect class="cls-4" x="771.78" y="701.35" width="68.11" height="58.54" rx="12"/><ellipse class="cls-43" cx="805.83" cy="720.94" rx="10.08" ry="14.16"/><text class="cls-41" transform="translate(798.24 729.62) scale(0.71 1)">20</text><text class="cls-42" transform="translate(795.75 753.52) scale(0.71 1)">ty<tspan class="cls-44" x="14.4" y="0">v</tspan><tspan class="cls-59" x="23" y="0">e</tspan></text><rect class="cls-4" x="768.54" y="843.71" width="68.11" height="58.54" rx="12"/><ellipse class="cls-28" cx="807.84" cy="862.12" rx="12.09" ry="14.16"/><text class="cls-56" transform="translate(796.74 868.79) scale(0.71 1)">1000</text><text/><text class="cls-42" transform="translate(776.08 892.89) scale(0.71 1)">(et)tusind</text><text class="cls-60" transform="translate(18.89 541.13) scale(0.71 1)">1-10</text><text class="cls-60" transform="translate(16.7 678.99) scale(0.71 1)">11-20</text><text class="cls-60" transform="translate(22.53 807.12) scale(0.71 1)">30-<tspan x="-8.24" y="24">1000</tspan></text><text class="cls-42" transform="translate(620.05 787.29) scale(0.71 1)">21-enogty<tspan class="cls-44" x="79.41" y="0">v</tspan><tspan class="cls-59" x="88.01" y="0">e, 22-</tspan><tspan class="cls-58" x="130.72" y="0">t</tspan><tspan x="136.42" y="0">oogty</tspan><tspan class="cls-44" x="181.45" y="0">v</tspan><tspan class="cls-59" x="190.05" y="0">e, 23-t</tspan><tspan class="cls-61" x="238.64" y="0">r</tspan><tspan class="cls-55" x="244.56" y="0">eogty</tspan><tspan class="cls-44" x="288.86" y="0">v</tspan><tspan class="cls-59" x="297.47" y="0">e</tspan></text><ellipse class="cls-62" cx="30.68" cy="1008.31" rx="26.62" ry="28.5"/><rect class="cls-4" x="16.36" y="1036.8" width="68.11" height="58.54" rx="12"/><ellipse class="cls-62" cx="50.41" cy="1056.4" rx="10.08" ry="14.16"/><text class="cls-41" transform="translate(46.79 1064.09) scale(0.71 1)">1</text><text class="cls-42" transform="translate(30.24 1090.43) scale(0.71 1)">første</text><rect class="cls-4" x="100.33" y="1036.8" width="68.11" height="58.54" rx="12"/><ellipse class="cls-62" cx="134.38" cy="1056.4" rx="10.08" ry="14.16"/><text class="cls-41" transform="translate(131.14 1064.09) scale(0.71 1)">2</text><text class="cls-42" transform="translate(115.16 1090.43) scale(0.71 1)">anden</text><rect class="cls-4" x="184.3" y="1036.8" width="68.11" height="58.54" rx="12"/><ellipse class="cls-62" cx="218.35" cy="1056.4" rx="10.08" ry="14.16"/><text class="cls-41" transform="translate(215.11 1066.07) scale(0.71 1)">3</text><text class="cls-42" transform="translate(198.78 1090.43) scale(0.71 1)">t<tspan class="cls-46" x="5.88" y="0">r</tspan><tspan x="11.8" y="0">edje</tspan></text><rect class="cls-4" x="267.74" y="1036.8" width="68.11" height="58.54" rx="12"/><ellipse class="cls-62" cx="301.8" cy="1056.4" rx="10.08" ry="14.16"/><text class="cls-41" transform="translate(298.56 1066.07) scale(0.71 1)">4</text><text class="cls-42" transform="translate(282.14 1090.43) scale(0.71 1)">fje<tspan class="cls-46" x="20.08" y="0">r</tspan><tspan class="cls-53" x="26.01" y="0">de</tspan></text><rect class="cls-4" x="349.76" y="1037.99" width="68.11" height="58.54" rx="12"/><ellipse class="cls-62" cx="383.82" cy="1057.58" rx="10.08" ry="14.16"/><text class="cls-41" transform="translate(380.65 1067.26) scale(0.71 1)">5</text><text class="cls-42" transform="translate(366.06 1089.43) scale(0.71 1)"><tspan class="cls-49">f</tspan><tspan x="6.04" y="0">emte</tspan></text><rect class="cls-4" x="435.16" y="1039.17" width="68.11" height="58.54" rx="12"/><ellipse class="cls-62" cx="469.21" cy="1058.77" rx="10.08" ry="14.16"/><text class="cls-41" transform="translate(465.97 1068.44) scale(0.71 1)">6</text><text class="cls-42" transform="translate(454.84 1091.1) scale(0.71 1)">sjette</text><rect class="cls-4" x="520.31" y="1040.36" width="68.11" height="58.54" rx="12"/><ellipse class="cls-62" cx="553.18" cy="1058.77" rx="10.08" ry="14.16"/><text class="cls-41" transform="translate(549.94 1069.63) scale(0.71 1)">7</text><text class="cls-42" transform="translate(527.57 1091.01) scale(0.71 1)">sy<tspan class="cls-44" x="17.8" y="0">v</tspan><tspan class="cls-55" x="26.4" y="0">ende</tspan></text><rect class="cls-4" x="604.5" y="1041.54" width="68.11" height="58.54" rx="12"/><ellipse class="cls-62" cx="637.53" cy="1062.07" rx="10.08" ry="14.16"/><text class="cls-41" transform="translate(634.29 1070.81) scale(0.71 1)">8</text><text class="cls-42" transform="translate(615 1094.53) scale(0.71 1)">ottende</text><rect class="cls-4" x="688.85" y="1040.36" width="68.11" height="58.54" rx="12"/><ellipse class="cls-62" cx="721.88" cy="1062.07" rx="10.08" ry="14.16"/><text class="cls-41" transform="translate(719.06 1070.81) scale(0.71 1)">9</text><text class="cls-42" transform="translate(699.82 1094.53) scale(0.71 1)">niende</text><ellipse class="cls-63" cx="30.68" cy="1154.31" rx="26.62" ry="30"/><rect class="cls-4" x="16.36" y="1185.76" width="68.11" height="58.54" rx="12"/><ellipse class="cls-63" cx="50.41" cy="1205.35" rx="10.08" ry="14.16"/><text class="cls-41" transform="translate(44.58 1215.03) scale(0.71 1)">11</text><text class="cls-42" transform="translate(37.48 1236.25) scale(0.71 1)">elvte</text><rect class="cls-4" x="100.33" y="1186.94" width="68.11" height="58.54" rx="12"/><ellipse class="cls-63" cx="134.38" cy="1206.54" rx="10.08" ry="14.16"/><text class="cls-41" transform="translate(126.84 1216.21) scale(0.71 1)">12</text><text class="cls-42" transform="translate(117.62 1238.82) scale(0.71 1)"><tspan class="cls-45">t</tspan><tspan x="5.7" y="0">olvte</tspan></text><rect class="cls-4" x="184.3" y="1185.76" width="68.11" height="58.54" rx="12"/><ellipse class="cls-63" cx="218.35" cy="1205.35" rx="10.08" ry="14.16"/><text class="cls-41" transform="translate(211.87 1215.03) scale(0.71 1)">13</text><text class="cls-42" transform="translate(193.71 1238.25) scale(0.71 1)">t<tspan class="cls-46" x="5.88" y="0">r</tspan><tspan x="11.8" y="0">ettende</tspan></text><rect class="cls-4" x="267.74" y="1185.76" width="68.11" height="58.54" rx="12"/><ellipse class="cls-63" cx="301.8" cy="1205.35" rx="10.08" ry="14.16"/><text class="cls-41" transform="translate(294.8 1216.21) scale(0.71 1)">14</text><text class="cls-42" transform="translate(275.94 1238.25) scale(0.71 1)">fjo<tspan class="cls-50" x="20.81" y="0">r</tspan><tspan x="27.34" y="0">tende</tspan></text><rect class="cls-4" x="351.19" y="1186.94" width="68.11" height="58.54" rx="12"/><ellipse class="cls-63" cx="385.24" cy="1206.54" rx="10.08" ry="14.16"/><text class="cls-41" transform="translate(378.92 1216.21) scale(0.71 1)">15</text><text class="cls-42" transform="translate(357.22 1238.25) scale(0.71 1)"><tspan class="cls-49">f</tspan><tspan x="6.04" y="0">emtende</tspan></text><rect class="cls-4" x="435.16" y="1185.76" width="68.11" height="58.54" rx="12"/><ellipse class="cls-63" cx="469.21" cy="1205.35" rx="10.08" ry="14.16"/><text class="cls-41" transform="translate(462.17 1215.03) scale(0.71 1)">16</text><text class="cls-42" transform="translate(440.38 1238.25) scale(0.71 1)">sekstende</text><rect class="cls-4" x="519.12" y="1185.76" width="68.11" height="58.54" rx="12"/><ellipse class="cls-63" cx="553.18" cy="1205.35" rx="10.08" ry="14.16"/><text class="cls-41" transform="translate(547.56 1215.03) scale(0.71 1)">17</text><text class="cls-42" transform="translate(527.57 1238.25) scale(0.71 1)">syttende</text><rect class="cls-4" x="603.47" y="1186.94" width="68.11" height="58.54" rx="12"/><ellipse class="cls-63" cx="637.53" cy="1206.54" rx="10.08" ry="14.16"/><text class="cls-41" transform="translate(631.42 1215.03) scale(0.71 1)">18</text><text class="cls-42" transform="translate(612.86 1238.25) scale(0.71 1)">attende</text><rect class="cls-4" x="687.83" y="1186.94" width="68.11" height="58.54" rx="12"/><rect class="cls-13" x="61.14" y="520.21" width="778.75" height="26.28"/><ellipse class="cls-63" cx="721.88" cy="1206.54" rx="10.08" ry="14.16"/><text class="cls-41" transform="translate(714.71 1215.03) scale(0.71 1)">19</text><text class="cls-42" transform="translate(694.59 1240.82) scale(0.71 1)">nittende</text><rect class="cls-4" x="771.31" y="1041.54" width="68.11" height="58.54" rx="12"/><ellipse class="cls-62" cx="805.36" cy="1062.07" rx="10.08" ry="14.16"/><text class="cls-42" transform="translate(782.29 1094.53) scale(0.71 1)">tiende</text><rect class="cls-4" x="771.31" y="1185.76" width="68.11" height="58.54" rx="12"/><ellipse class="cls-63" cx="805.36" cy="1205.35" rx="10.08" ry="14.16"/><text class="cls-41" transform="translate(798.76 1215.03) scale(0.71 1)">20</text><text class="cls-42" transform="translate(782.29 1238.25) scale(0.71 1)">ty<tspan class="cls-44" x="14.4" y="0">v</tspan><tspan x="23" y="0">ende</tspan></text><text class="cls-60" transform="translate(18.23 1015.25) scale(0.71 1)">1-10</text><text class="cls-60" transform="translate(14.62 1162.31) scale(0.71 1)">11-20</text><rect class="cls-4" x="17.39" y="1321.02" width="68.11" height="58.54" rx="12"/><ellipse class="cls-40" cx="51.05" cy="1338.25" rx="10.08" ry="14.16"/><text class="cls-41" transform="translate(45.29 1347.12) scale(0.71 1)">21</text><text class="cls-64" transform="translate(23.23 1372.68) scale(0.71 1)">enogty<tspan class="cls-65" x="42.18" y="0">v</tspan><tspan x="48.87" y="0">ende</tspan></text><rect class="cls-4" x="101.35" y="1319.84" width="68.11" height="58.54" rx="12"/><ellipse class="cls-40" cx="135.41" cy="1339.43" rx="10.08" ry="14.16"/><text class="cls-41" transform="translate(129.72 1349.11) scale(0.71 1)">22</text><text class="cls-64" transform="translate(105.93 1372.68) scale(0.71 1)"><tspan class="cls-66">t</tspan><tspan x="4.44" y="0">oogty</tspan><tspan class="cls-67" x="39.46" y="0">v</tspan><tspan x="46.15" y="0">ende</tspan></text><rect class="cls-4" x="185.32" y="1321.02" width="68.11" height="58.54" rx="12"/><ellipse class="cls-40" cx="219.38" cy="1340.62" rx="10.08" ry="14.16"/><text class="cls-41" transform="translate(213.69 1350.29) scale(0.71 1)">23</text><text class="cls-64" transform="translate(189.87 1372.68) scale(0.71 1)">t<tspan class="cls-68" x="4.57" y="0">r</tspan><tspan x="9.18" y="0">eogty</tspan><tspan class="cls-65" x="43.63" y="0">v</tspan><tspan x="50.33" y="0">ende</tspan></text><rect class="cls-4" x="268.77" y="1318.65" width="68.11" height="58.54" rx="12"/><ellipse class="cls-40" cx="302.82" cy="1338.25" rx="10.08" ry="14.16"/><text class="cls-41" transform="translate(295.71 1347.12) scale(0.71 1)">24</text><text class="cls-64" transform="translate(270.9 1372.68) scale(0.71 1)">fi<tspan class="cls-68" x="8.26" y="0">r</tspan><tspan x="12.86" y="0">eogty</tspan><tspan class="cls-65" x="47.32" y="0">v</tspan><tspan x="54.01" y="0">ende</tspan></text><rect class="cls-4" x="352.21" y="1318.65" width="68.11" height="58.54" rx="12"/><ellipse class="cls-40" cx="387.17" cy="1340.62" rx="10.08" ry="14.16"/><text class="cls-41" transform="translate(380.65 1349.11) scale(0.71 1)">25</text><text class="cls-64" transform="translate(354.71 1372.68) scale(0.71 1)"><tspan class="cls-69">f</tspan><tspan class="cls-70" x="4.7" y="0">emogty</tspan><tspan class="cls-67" x="51.42" y="0">v</tspan><tspan x="58.11" y="0">ende</tspan></text><rect class="cls-4" x="436.18" y="1319.84" width="68.11" height="58.54" rx="12"/><ellipse class="cls-40" cx="470.23" cy="1339.43" rx="10.08" ry="14.16"/><text class="cls-71" transform="translate(464.15 1349.11) scale(0.71 1)">26</text><text class="cls-64" transform="translate(436.18 1372.68) scale(0.71 1)">seksogty<tspan class="cls-67" x="55.99" y="0">v</tspan><tspan x="62.68" y="0">ende</tspan></text><rect class="cls-4" x="520.15" y="1318.65" width="68.11" height="58.54" rx="12"/><ellipse class="cls-40" cx="554.2" cy="1338.25" rx="10.08" ry="14.16"/><text class="cls-41" transform="translate(548.51 1347.92) scale(0.71 1)">27</text><text class="cls-64" transform="translate(522.04 1369.68) scale(0.71 1)">sy<tspan class="cls-72" x="13.84" y="0">v</tspan><tspan x="20.52" y="0">ogty</tspan><tspan class="cls-67" x="47.56" y="0">v</tspan><tspan x="54.25" y="0">ende</tspan></text><rect class="cls-4" x="604.5" y="1318.65" width="68.11" height="58.54" rx="12"/><ellipse class="cls-40" cx="638.55" cy="1338.25" rx="10.08" ry="14.16"/><text class="cls-71" transform="translate(632.87 1347.93) scale(0.71 1)">28</text><text class="cls-64" transform="translate(608.1 1369.68) scale(0.71 1)">otteogty<tspan class="cls-73" x="51.58" y="0">v</tspan><tspan x="58.28" y="0">ende</tspan></text><rect class="cls-4" x="688.85" y="1318.65" width="68.11" height="58.54" rx="12"/><ellipse class="cls-40" cx="722.9" cy="1338.25" rx="10.08" ry="14.16"/><text class="cls-41" transform="translate(716.62 1347.93) scale(0.71 1)">29</text><text class="cls-64" transform="translate(694.73 1369.68) scale(0.71 1)">niogty<tspan class="cls-67" x="38.16" y="0">v</tspan><tspan x="44.85" y="0">ende</tspan></text><ellipse class="cls-40" cx="31.9" cy="1293.12" rx="25.4" ry="27.04"/><rect class="cls-4" x="770.52" y="1318.65" width="68.11" height="58.54" rx="12"/><ellipse class="cls-40" cx="807.81" cy="1338.25" rx="10.08" ry="14.16"/><text class="cls-41" transform="translate(801.21 1347.92) scale(0.71 1)">30</text><text class="cls-64" transform="translate(788.15 1372.67) scale(0.71 1)">t<tspan class="cls-68" x="4.57" y="0">r</tspan><tspan x="9.18" y="0">edivte</tspan></text><text class="cls-74" transform="translate(798.75 1070.81) scale(0.71 1)">10</text><text class="cls-60" transform="translate(17.87 1301.97) scale(0.71 1)">21-30</text><polygon class="cls-75" points="563.64 116.38 695.99 116.38 695.99 141.66 563.64 141.66 563.64 116.38 563.64 116.38"/><polygon class="cls-75" points="695.99 116.38 828.34 116.38 828.34 141.66 695.99 141.66 695.99 116.38 695.99 116.38"/><polygon class="cls-76" points="563.64 141.66 695.99 141.66 695.99 166.93 563.64 166.93 563.64 141.66 563.64 141.66"/><polygon class="cls-76" points="695.99 141.66 828.34 141.66 828.34 166.93 695.99 166.93 695.99 141.66 695.99 141.66"/><polygon class="cls-75" points="563.64 166.93 695.99 166.93 695.99 192.21 563.64 192.21 563.64 166.93 563.64 166.93"/><polygon class="cls-75" points="695.99 166.93 828.34 166.93 828.34 192.21 695.99 192.21 695.99 166.93 695.99 166.93"/><polygon class="cls-76" points="563.64 192.21 695.99 192.21 695.99 217.49 563.64 217.49 563.64 192.21 563.64 192.21"/><polygon class="cls-76" points="695.99 192.21 828.34 192.21 828.34 217.49 695.99 217.49 695.99 192.21 695.99 192.21"/><polygon class="cls-75" points="563.64 217.49 695.99 217.49 695.99 242.76 563.64 242.76 563.64 217.49 563.64 217.49"/><polygon class="cls-75" points="695.99 217.49 828.34 217.49 828.34 242.76 695.99 242.76 695.99 217.49 695.99 217.49"/><polygon class="cls-76" points="563.64 242.76 695.99 242.76 695.99 268.04 563.64 268.04 563.64 242.76 563.64 242.76"/><polygon class="cls-76" points="695.99 242.76 828.34 242.76 828.34 268.04 695.99 268.04 695.99 242.76 695.99 242.76"/><polygon class="cls-75" points="563.64 268.04 695.99 268.04 695.99 293.31 563.64 293.31 563.64 268.04 563.64 268.04"/><polygon class="cls-75" points="695.99 268.04 828.34 268.04 828.34 293.31 695.99 293.31 695.99 268.04 695.99 268.04"/><polygon class="cls-76" points="563.64 293.31 695.99 293.31 695.99 318.59 563.64 318.59 563.64 293.31 563.64 293.31"/><polygon class="cls-76" points="695.99 293.31 828.34 293.31 828.34 318.59 695.99 318.59 695.99 293.31 695.99 293.31"/><polygon class="cls-75" points="563.64 318.59 695.99 318.59 695.99 343.87 563.64 343.87 563.64 318.59 563.64 318.59"/><polygon class="cls-75" points="695.99 318.59 828.34 318.59 828.34 343.87 695.99 343.87 695.99 318.59 695.99 318.59"/><polygon class="cls-76" points="563.64 343.87 695.99 343.87 695.99 369.14 563.64 369.14 563.64 343.87 563.64 343.87"/><polygon class="cls-76" points="695.99 343.87 828.34 343.87 828.34 369.14 695.99 369.14 695.99 343.87 695.99 343.87"/><polygon class="cls-75" points="563.64 369.14 695.99 369.14 695.99 394.42 563.64 394.42 563.64 369.14 563.64 369.14"/><polygon class="cls-75" points="695.99 369.14 828.34 369.14 828.34 394.42 695.99 394.42 695.99 369.14 695.99 369.14"/><polygon class="cls-76" points="563.64 394.42 695.99 394.42 695.99 419.69 563.64 419.69 563.64 394.42 563.64 394.42"/><polygon class="cls-76" points="695.99 394.42 828.34 394.42 828.34 419.69 695.99 419.69 695.99 394.42 695.99 394.42"/><polygon class="cls-75" points="563.64 419.69 695.99 419.69 695.99 444.97 563.64 444.97 563.64 419.69 563.64 419.69"/><polygon class="cls-75" points="695.99 419.69 828.34 419.69 828.34 444.97 695.99 444.97 695.99 419.69 695.99 419.69"/><polygon class="cls-76" points="563.64 444.97 695.99 444.97 695.99 470.25 563.64 470.25 563.64 444.97 563.64 444.97"/><polygon class="cls-76" points="695.99 444.97 828.34 444.97 828.34 470.25 695.99 470.25 695.99 444.97 695.99 444.97"/><polygon class="cls-75" points="563.64 470.25 695.99 470.25 695.99 495.52 563.64 495.52 563.64 470.25 563.64 470.25"/><polygon class="cls-75" points="695.99 470.25 828.34 470.25 828.34 495.52 695.99 495.52 695.99 470.25 695.99 470.25"/><line class="cls-77" x1="695.99" y1="116.23" x2="695.99" y2="495.68"/><line class="cls-77" x1="563.49" y1="141.66" x2="828.49" y2="141.66"/><line class="cls-77" x1="563.49" y1="166.93" x2="828.49" y2="166.93"/><line class="cls-77" x1="563.49" y1="192.21" x2="828.49" y2="192.21"/><line class="cls-77" x1="563.49" y1="217.49" x2="828.49" y2="217.49"/><line class="cls-77" x1="563.49" y1="242.76" x2="828.49" y2="242.76"/><line class="cls-77" x1="563.49" y1="268.04" x2="828.49" y2="268.04"/><line class="cls-77" x1="563.49" y1="293.31" x2="828.49" y2="293.31"/><line class="cls-77" x1="563.49" y1="318.59" x2="828.49" y2="318.59"/><line class="cls-77" x1="563.49" y1="343.87" x2="828.49" y2="343.87"/><line class="cls-77" x1="563.49" y1="369.14" x2="828.49" y2="369.14"/><line class="cls-77" x1="563.49" y1="394.42" x2="828.49" y2="394.42"/><line class="cls-77" x1="563.49" y1="419.69" x2="828.49" y2="419.69"/><line class="cls-77" x1="563.49" y1="444.97" x2="828.49" y2="444.97"/><line class="cls-77" x1="563.49" y1="470.25" x2="828.49" y2="470.25"/><line class="cls-77" x1="563.64" y1="116.23" x2="563.64" y2="495.68"/><line class="cls-77" x1="828.34" y1="116.23" x2="828.34" y2="495.68"/><line class="cls-77" x1="563.49" y1="116.38" x2="828.49" y2="116.38"/><line class="cls-77" x1="563.49" y1="495.52" x2="828.49" y2="495.52"/><g class="cls-78"><g class="cls-79"><text class="cls-80" transform="translate(566.15 134.84)"><tspan class="cls-81">J</tspan><tspan class="cls-82" x="5.32" y="0">a</tspan><tspan class="cls-83" x="13.44" y="0">nu</tspan><tspan class="cls-82" x="30.99" y="0">a</tspan><tspan class="cls-84" x="39.12" y="0">r</tspan><tspan x="45.06" y="0">y</tspan></text></g></g><g class="cls-85"><g class="cls-86"><text class="cls-87" transform="translate(698.49 134.84)"><tspan class="cls-88">j</tspan><tspan class="cls-89" x="4.36" y="0">a</tspan><tspan x="12.8" y="0">nu</tspan><tspan class="cls-89" x="30.93" y="0">a</tspan><tspan x="39.37" y="0">r</tspan></text></g></g><g class="cls-90"><g class="cls-91"><text class="cls-80" transform="translate(566.15 160.11)"><tspan class="cls-92">F</tspan><tspan class="cls-93" x="7.51" y="0">e</tspan><tspan class="cls-83" x="15.95" y="0">b</tspan><tspan class="cls-88" x="24.72" y="0">r</tspan><tspan class="cls-83" x="30.66" y="0">u</tspan><tspan class="cls-82" x="39.43" y="0">a</tspan><tspan class="cls-84" x="47.56" y="0">r</tspan><tspan x="53.5" y="0">y</tspan></text></g></g><g class="cls-94"><g class="cls-95"><text class="cls-87" transform="translate(698.49 160.11)"><tspan class="cls-96">f</tspan><tspan class="cls-97" x="5.01" y="0">e</tspan><tspan class="cls-98" x="13.46" y="0">b</tspan><tspan class="cls-99" x="22.52" y="0">r</tspan><tspan x="28.48" y="0">u</tspan><tspan class="cls-89" x="37.54" y="0">a</tspan><tspan x="45.98" y="0">r</tspan></text></g></g><g class="cls-100"><g class="cls-101"><text class="cls-80" transform="translate(566.15 185.39)"><tspan class="cls-97">M</tspan><tspan class="cls-93" x="14.39" y="0">a</tspan><tspan class="cls-92" x="22.52" y="0">r</tspan><tspan class="cls-88" x="28.15" y="0">c</tspan><tspan x="35.35" y="0">h</tspan></text></g></g><g class="cls-102"><g class="cls-103"><text class="cls-87" transform="translate(698.49 185.39)"><tspan class="cls-104">m</tspan><tspan class="cls-89" x="13.76" y="0">a</tspan><tspan class="cls-99" x="22.2" y="0">r</tspan><tspan class="cls-105" x="28.15" y="0">t</tspan><tspan x="34.09" y="0">s</tspan></text></g></g><g class="cls-106"><g class="cls-107"><text class="cls-80" transform="translate(566.15 210.66)"><tspan class="cls-81">A</tspan><tspan class="cls-83" x="9.71" y="0">p</tspan><tspan class="cls-88" x="18.48" y="0">r</tspan><tspan class="cls-108" x="24.42" y="0">i</tspan><tspan x="28.18" y="0">l</tspan></text></g></g><g class="cls-109"><g class="cls-110"><text class="cls-87" transform="translate(698.49 210.66)"><tspan class="cls-89">a</tspan><tspan x="8.44" y="0">p</tspan><tspan class="cls-99" x="17.51" y="0">r</tspan><tspan class="cls-111" x="23.46" y="0">i</tspan><tspan x="27.54" y="0">l</tspan></text></g></g><g class="cls-112"><g class="cls-113"><text class="cls-80" transform="translate(566.15 235.95)"><tspan class="cls-97">M</tspan><tspan class="cls-114" x="14.39" y="0">a</tspan><tspan x="22.21" y="0">y</tspan></text></g></g><g class="cls-115"><g class="cls-116"><text class="cls-87" transform="translate(698.49 235.95)"><tspan class="cls-104">m</tspan><tspan class="cls-89" x="13.76" y="0">a</tspan><tspan x="22.2" y="0">j</tspan></text></g></g><g class="cls-117"><g class="cls-118"><text class="cls-80" transform="translate(566.15 261.22)"><tspan class="cls-81">J</tspan><tspan class="cls-83" x="5.32" y="0">un</tspan><tspan x="22.87" y="0">e</tspan></text></g></g><g class="cls-119"><g class="cls-120"><text class="cls-87" transform="translate(698.49 261.22)"><tspan class="cls-88">j</tspan><tspan x="4.36" y="0">uni</tspan></text></g></g><g class="cls-121"><g class="cls-122"><text class="cls-80" transform="translate(566.15 286.5)"><tspan class="cls-81">J</tspan><tspan class="cls-83" x="5.32" y="0">u</tspan><tspan class="cls-108" x="14.09" y="0">l</tspan><tspan x="17.85" y="0">y</tspan></text></g></g><g class="cls-123"><g class="cls-124"><text class="cls-87" transform="translate(698.49 286.5)"><tspan class="cls-88">j</tspan><tspan x="4.36" y="0">u</tspan><tspan class="cls-111" x="13.43" y="0">l</tspan><tspan x="17.51" y="0">i</tspan></text></g></g><g class="cls-125"><g class="cls-126"><text class="cls-127" transform="translate(566.15 311.77)">A<tspan class="cls-83" x="9.71" y="0">u</tspan><tspan class="cls-108" x="18.48" y="0">g</tspan><tspan class="cls-83" x="26.31" y="0">u</tspan><tspan class="cls-96" x="35.09" y="0">s</tspan><tspan class="cls-128" x="41.36" y="0">t</tspan></text></g></g><g class="cls-129"><g class="cls-130"><text class="cls-87" transform="translate(698.49 311.77)"><tspan class="cls-89">a</tspan><tspan x="8.44" y="0">u</tspan><tspan class="cls-131" x="17.51" y="0">g</tspan><tspan x="25.63" y="0">u</tspan><tspan class="cls-132" x="34.7" y="0">s</tspan><tspan x="41.27" y="0">t</tspan></text></g></g><g class="cls-133"><g class="cls-134"><text class="cls-135" transform="translate(566.15 337.05)">S<tspan class="cls-93" x="7.81" y="0">e</tspan><tspan class="cls-83" x="16.25" y="0">p</tspan><tspan class="cls-136" x="25.02" y="0">t</tspan><tspan class="cls-82" x="30.35" y="0">e</tspan><tspan class="cls-137" x="38.78" y="0">m</tspan><tspan class="cls-83" x="52.24" y="0">b</tspan><tspan class="cls-82" x="61.02" y="0">e</tspan><tspan class="cls-98" x="69.46" y="0">r</tspan></text></g></g><g class="cls-138"><g class="cls-139"><text class="cls-87" transform="translate(698.49 337.05)"><tspan class="cls-140">s</tspan><tspan class="cls-99" x="6.87" y="0">e</tspan><tspan x="15.33" y="0">p</tspan><tspan class="cls-141" x="24.39" y="0">t</tspan><tspan class="cls-97" x="30.03" y="0">e</tspan><tspan class="cls-142" x="38.48" y="0">m</tspan><tspan x="52.24" y="0">b</tspan><tspan class="cls-99" x="61.31" y="0">e</tspan><tspan x="69.76" y="0">r</tspan></text></g></g><g class="cls-143"><g class="cls-144"><text class="cls-145" transform="translate(566.15 362.33)">O<tspan class="cls-88" x="11.25" y="0">c</tspan><tspan class="cls-136" x="18.45" y="0">t</tspan><tspan class="cls-146" x="23.77" y="0">o</tspan><tspan class="cls-83" x="32.54" y="0">b</tspan><tspan class="cls-82" x="41.31" y="0">e</tspan><tspan class="cls-98" x="49.75" y="0">r</tspan></text></g></g><g class="cls-147"><g class="cls-148"><text class="cls-87" transform="translate(698.49 362.33)">o<tspan class="cls-142" x="9.08" y="0">k</tspan><tspan class="cls-141" x="17.21" y="0">t</tspan><tspan x="22.84" y="0">ob</tspan><tspan class="cls-99" x="40.99" y="0">e</tspan><tspan x="49.44" y="0">r</tspan></text></g></g><g class="cls-149"><g class="cls-150"><text class="cls-80" transform="translate(566.15 387.59)"><tspan class="cls-82">N</tspan><tspan class="cls-146" x="10.94" y="0">o</tspan><tspan class="cls-151" x="19.71" y="0">v</tspan><tspan class="cls-93" x="26.92" y="0">e</tspan><tspan class="cls-152" x="35.36" y="0">m</tspan><tspan class="cls-83" x="48.82" y="0">b</tspan><tspan class="cls-93" x="57.59" y="0">e</tspan><tspan x="66.03" y="0">r</tspan></text></g></g><g class="cls-153"><g class="cls-154"><text class="cls-87" transform="translate(698.49 387.59)">no<tspan class="cls-155" x="18.15" y="0">v</tspan><tspan class="cls-99" x="26.27" y="0">e</tspan><tspan class="cls-104" x="34.73" y="0">m</tspan><tspan class="cls-98" x="48.49" y="0">b</tspan><tspan class="cls-97" x="57.55" y="0">e</tspan><tspan x="66" y="0">r</tspan></text></g></g><g class="cls-156"><g class="cls-157"><text class="cls-80" transform="translate(566.15 412.87)"><tspan class="cls-81">D</tspan><tspan class="cls-93" x="10.33" y="0">e</tspan><tspan class="cls-88" x="18.76" y="0">c</tspan><tspan class="cls-82" x="25.96" y="0">e</tspan><tspan class="cls-137" x="34.4" y="0">m</tspan><tspan class="cls-158" x="47.86" y="0">b</tspan><tspan class="cls-93" x="56.63" y="0">e</tspan><tspan x="65.07" y="0">r</tspan></text></g></g><g class="cls-159"><g class="cls-160"><text class="cls-87" transform="translate(698.49 412.87)">d<tspan class="cls-99" x="9.07" y="0">e</tspan><tspan class="cls-131" x="17.52" y="0">c</tspan><tspan class="cls-99" x="24.7" y="0">e</tspan><tspan class="cls-104" x="33.16" y="0">m</tspan><tspan x="46.92" y="0">b</tspan><tspan class="cls-99" x="55.98" y="0">e</tspan><tspan x="64.43" y="0">r</tspan></text></g></g><g class="cls-161"><g class="cls-162"><text class="cls-80" transform="translate(566.15 438.15)"><tspan class="cls-152">m</tspan><tspan class="cls-163" x="13.46" y="0">o</tspan><tspan class="cls-83" x="22.23" y="0">n</tspan><tspan class="cls-164" x="31.01" y="0">t</tspan><tspan x="36.65" y="0">h</tspan></text></g></g><g class="cls-165"><g class="cls-166"><text class="cls-87" transform="translate(698.49 438.15)"><tspan class="cls-104">m</tspan><tspan class="cls-89" x="13.76" y="0">å</tspan><tspan class="cls-98" x="22.2" y="0">n</tspan><tspan class="cls-97" x="31.26" y="0">e</tspan><tspan x="39.72" y="0">d</tspan></text></g></g><g class="cls-167"><g class="cls-168"><text class="cls-169" transform="translate(566.15 463.43)">y<tspan class="cls-82" x="7.21" y="0">ea</tspan><tspan class="cls-98" x="23.77" y="0">r</tspan></text></g></g><g class="cls-170"><g class="cls-171"><text class="cls-87" transform="translate(698.49 463.43)"><tspan class="cls-89">å</tspan><tspan x="8.44" y="0">r</tspan></text></g></g><g class="cls-172"><g class="cls-173"><text class="cls-174" transform="translate(566.15 488.7)">m<tspan class="cls-163" x="13.46" y="0">o</tspan><tspan class="cls-83" x="22.23" y="0">n</tspan><tspan class="cls-164" x="31.01" y="0">t</tspan><tspan class="cls-83" x="36.65" y="0">h</tspan><tspan class="cls-175" x="45.42" y="0">l</tspan><tspan class="cls-98" x="49.18" y="0">y</tspan></text></g></g><g class="cls-176"><g class="cls-177"><text class="cls-87" transform="translate(698.49 488.7)"><tspan class="cls-104">m</tspan><tspan class="cls-89" x="13.76" y="0">å</tspan><tspan class="cls-98" x="22.2" y="0">n</tspan><tspan class="cls-97" x="31.26" y="0">e</tspan><tspan x="39.72" y="0">d</tspan><tspan class="cls-111" x="48.78" y="0">li</tspan><tspan x="56.94" y="0">g</tspan></text></g></g><rect class="cls-13" x="61.14" y="993.66" width="777.04" height="26.28"/><text class="cls-178" transform="translate(333.94 1016.8) scale(0.71 1)"><tspan class="cls-179">T</tspan><tspan x="13.44" y="0">AL </tspan><tspan class="cls-180" x="48.56" y="0">P</tspan><tspan x="61.96" y="0">Å </tspan><tspan class="cls-181" x="84.08" y="0">D</tspan><tspan x="99.43" y="0">ANSK - ORDENS</tspan><tspan class="cls-182" x="276.46" y="0">T</tspan><tspan x="289.9" y="0">AL</tspan></text><text class="cls-178" transform="translate(327.9 542.63) scale(0.71 1)"><tspan class="cls-179">T</tspan><tspan x="13.44" y="0">AL </tspan><tspan class="cls-180" x="48.56" y="0">P</tspan><tspan x="61.96" y="0">Å </tspan><tspan class="cls-181" x="84.08" y="0">D</tspan><tspan x="99.43" y="0">ANSK - GRUN</tspan><tspan class="cls-183" x="248.18" y="0">D</tspan><tspan class="cls-184" x="262.78" y="0">T</tspan><tspan x="276.22" y="0">AL</tspan></text><text class="cls-178" transform="translate(32.02 431.84)">H<tspan class="cls-22" x="16.96" y="0">v</tspan><tspan x="28.91" y="0">ad dag og da</tspan><tspan class="cls-26" x="166.98" y="0">t</tspan><tspan x="174.74" y="0">o er det i dag?</tspan><tspan x="0" y="28.8">I dag er det mandag den 15 januar 2017.</tspan></text></g></g></svg>